{"glyphs":{"0":{"ha":688,"x_min":52,"x_max":635,"o":"m 344 989 q 487 924 417 989 q 596 739 557 859 q 635 486 635 618 q 597 235 635 355 q 489 50 559 116 q 344 -17 420 -17 q 198 50 268 -17 q 91 235 129 116 q 52 486 52 355 q 91 739 52 618 q 200 924 130 859 q 344 989 270 989 m 161 467 q 202 237 170 345 q 283 71 235 128 q 370 18 327 18 q 378 19 374 18 q 465 90 426 24 q 520 270 504 156 q 530 419 530 342 q 527 505 530 461 q 485 737 517 627 q 404 903 452 847 q 317 954 359 954 q 309 954 313 954 q 224 884 263 949 q 168 705 184 819 q 157 552 157 630 q 161 467 157 510 z "},"1":{"ha":688,"x_min":148,"x_max":538,"o":"m 159 0 l 159 34 l 224 34 q 294 193 294 34 l 294 732 q 214 819 294 819 l 148 819 l 148 853 q 370 972 346 896 l 404 972 l 404 193 q 473 34 404 34 l 538 34 l 538 0 l 159 0 z "},"2":{"ha":688,"x_min":77,"x_max":635,"o":"m 490 703 q 431 869 490 803 q 305 935 373 935 q 119 846 190 935 l 104 846 l 104 879 q 182 949 130 913 q 307 986 233 986 q 515 904 431 986 q 599 703 599 822 q 174 81 599 525 l 460 81 q 602 157 548 81 l 635 157 l 565 0 l 77 0 l 78 34 q 490 703 490 492 z "},"3":{"ha":688,"x_min":56,"x_max":607,"o":"m 295 15 q 443 94 397 15 q 488 284 488 173 q 458 424 488 355 q 338 524 428 492 l 338 537 q 436 619 393 568 q 479 761 479 670 q 441 889 479 836 q 329 952 404 943 q 245 922 283 952 q 208 846 208 891 l 179 846 l 179 954 q 229 977 179 968 q 334 986 279 986 q 509 929 439 986 q 578 760 578 872 q 536 648 578 701 q 406 553 495 594 q 538 462 469 544 q 607 273 607 380 q 509 74 607 163 q 289 -15 412 -15 q 121 12 186 -15 q 56 71 56 38 l 56 139 l 90 139 q 148 49 90 83 q 295 15 206 15 z "},"4":{"ha":688,"x_min":29,"x_max":677,"o":"m 407 297 l 407 762 l 119 297 l 407 297 m 500 229 l 500 113 q 549 34 500 34 l 600 34 l 600 0 l 300 0 l 300 34 l 352 34 q 407 115 407 34 l 407 229 l 29 229 l 29 253 l 477 972 l 500 972 l 500 297 l 513 297 q 644 387 603 297 l 677 387 l 607 229 l 500 229 z "},"5":{"ha":688,"x_min":52,"x_max":631,"o":"m 155 578 l 253 972 l 522 972 q 597 1008 591 972 l 631 1008 l 589 891 l 298 891 l 227 610 q 490 525 380 610 q 600 321 600 441 q 503 74 600 163 q 283 -15 406 -15 q 115 12 180 -15 q 52 67 52 37 l 52 139 l 83 139 q 142 47 83 79 q 289 15 200 15 q 436 94 391 15 q 481 330 481 173 q 407 509 481 437 q 214 581 332 581 q 155 578 186 581 z "},"6":{"ha":688,"x_min":52,"x_max":635,"o":"m 378 7 q 489 74 447 7 q 531 242 531 141 q 463 468 531 380 q 317 557 395 557 q 206 488 255 557 q 157 318 157 419 q 222 111 157 214 q 378 7 287 7 m 543 989 l 543 957 q 322 835 423 949 q 163 518 220 722 q 344 581 229 581 q 487 543 417 581 q 596 432 557 504 q 635 282 635 361 q 597 133 635 203 q 499 22 559 62 q 385 -17 440 -17 q 136 93 220 -17 q 52 346 52 203 q 194 776 52 563 q 543 989 336 989 z "},"7":{"ha":688,"x_min":65,"x_max":623,"o":"m 500 891 l 229 891 q 99 815 139 891 l 65 815 l 135 972 l 623 972 l 622 939 q 371 121 371 351 q 416 34 371 34 l 496 34 l 496 0 l 217 0 l 217 34 l 262 34 q 311 123 311 34 q 500 891 324 323 z "},"8":{"ha":688,"x_min":52,"x_max":635,"o":"m 374 563 q 480 647 456 580 q 498 742 498 698 q 496 768 498 755 q 461 873 488 823 q 393 947 433 922 q 321 970 356 970 l 315 970 q 244 939 277 968 q 197 858 211 909 q 189 790 189 825 q 191 751 189 771 q 226 648 199 697 q 374 563 253 600 m 320 532 q 197 426 243 518 q 159 286 159 348 q 161 262 159 274 q 202 129 170 192 q 283 34 235 66 q 370 4 326 4 l 378 4 q 465 45 426 7 q 520 149 504 83 q 530 235 530 191 q 527 284 530 259 q 477 428 519 360 q 320 532 435 496 m 431 550 q 487 526 460 541 q 596 419 557 488 q 635 273 635 349 q 597 129 635 197 q 489 21 559 60 q 344 -17 420 -17 q 198 21 268 -17 q 91 129 129 60 q 52 273 52 197 q 91 419 52 349 q 200 526 130 488 q 256 550 228 541 q 223 564 239 556 q 133 648 165 594 q 101 760 101 701 q 134 873 101 819 q 224 957 166 928 q 344 986 282 986 q 463 957 405 986 q 554 873 522 928 q 587 760 587 819 q 555 648 587 701 q 465 564 523 594 q 431 550 448 555 z "},"9":{"ha":688,"x_min":52,"x_max":635,"o":"m 309 965 q 199 898 241 965 q 157 730 157 831 q 225 504 157 593 q 371 416 293 416 q 482 485 433 416 q 531 654 531 553 q 466 862 531 758 q 309 965 401 965 m 144 -17 l 144 16 q 366 137 264 24 q 524 454 467 251 q 344 391 460 391 q 201 430 271 391 q 92 540 131 469 q 52 690 52 612 q 91 840 52 769 q 188 950 129 911 q 303 989 248 989 q 552 879 468 989 q 635 627 635 769 q 494 196 635 410 q 144 -17 352 -17 z "}," ":{"ha":345,"x_min":0,"x_max":0,"o":""},"!":{"ha":456,"x_min":140,"x_max":310,"o":"m 212 222 l 179 925 q 193 972 179 956 q 235 987 208 987 q 278 972 264 987 q 292 925 292 956 l 237 222 l 212 222 m 151 113 l 207 170 q 227 180 217 180 q 248 169 235 180 l 302 111 q 310 91 310 100 q 300 70 310 81 l 246 10 q 227 -3 233 -3 q 207 6 216 -3 l 147 75 q 140 92 140 83 q 151 113 140 102 z "},"\"":{"ha":456,"x_min":68,"x_max":390,"o":"m 134 751 l 113 751 l 71 995 q 68 1017 68 1010 q 82 1056 68 1042 q 123 1069 96 1069 q 164 1056 149 1069 q 178 1018 178 1043 q 176 995 178 1013 l 134 751 m 345 751 l 325 751 l 283 995 q 280 1017 280 1010 q 294 1056 280 1042 q 334 1069 308 1069 q 375 1056 361 1069 q 390 1018 390 1043 q 387 995 390 1013 l 345 751 z "},"#":{"ha":906,"x_min":79,"x_max":827,"o":"m 404 583 l 347 386 l 511 386 l 569 583 l 404 583 m 456 972 l 519 972 l 424 649 l 588 649 l 684 972 l 747 972 l 651 649 l 827 649 l 807 583 l 631 583 l 575 387 l 764 387 l 744 320 l 554 320 l 459 0 l 397 0 l 491 320 l 328 320 l 232 0 l 170 0 l 264 320 l 79 320 l 100 387 l 283 387 l 342 583 l 142 583 l 161 649 l 361 649 l 456 972 z "},"$":{"ha":688,"x_min":77,"x_max":665,"o":"m 391 1053 l 391 983 q 487 960 437 978 q 500 956 494 956 q 528 986 517 956 l 562 986 l 631 795 l 598 795 q 484 916 557 886 q 391 943 434 937 l 391 576 q 610 452 555 513 q 665 273 665 391 q 584 70 665 140 q 391 -12 503 0 l 391 -174 l 342 -174 l 342 -13 q 161 13 214 -11 q 149 17 155 17 q 121 -14 132 17 l 87 -14 l 87 211 l 120 211 q 223 58 154 87 q 342 28 293 28 l 342 459 q 139 563 197 505 q 77 732 77 625 q 161 916 77 844 q 342 985 233 975 l 342 1053 l 391 1053 m 391 444 l 391 31 q 535 96 476 42 q 593 244 593 149 q 547 368 593 323 q 391 444 505 408 m 342 592 l 342 945 q 207 896 261 941 q 149 772 149 846 q 186 669 149 706 q 342 592 221 632 z "},"%":{"ha":1092,"x_min":42,"x_max":1050,"o":"m 304 989 q 434 956 371 989 q 532 862 496 923 q 567 732 567 800 q 533 605 567 665 q 436 510 498 544 q 304 475 373 475 q 174 510 237 475 q 77 605 111 544 q 42 732 42 665 q 77 862 42 800 q 175 956 113 923 q 304 989 238 989 m 140 723 q 177 605 149 661 q 250 521 206 550 q 327 494 288 494 q 336 494 332 494 q 414 530 378 496 q 463 623 449 564 q 472 698 472 659 q 469 742 472 720 q 431 861 461 805 q 359 945 401 917 q 281 971 319 971 l 273 971 q 197 936 232 969 q 147 844 161 903 q 137 765 137 805 q 140 723 137 744 m 201 -20 l 839 971 l 896 971 l 260 -20 l 201 -20 m 787 500 q 916 467 853 500 q 1015 372 979 433 q 1050 243 1050 311 q 1016 115 1050 176 q 919 20 981 54 q 787 -14 856 -14 q 656 20 719 -14 q 559 115 594 54 q 525 243 525 176 q 560 372 525 311 q 658 467 595 433 q 787 500 721 500 m 623 233 q 660 116 631 171 q 732 31 689 60 q 811 5 772 5 l 819 5 q 897 41 861 7 q 946 133 932 75 q 955 208 955 170 q 952 252 955 230 q 914 371 944 315 q 842 456 884 427 q 764 481 802 481 l 756 481 q 680 446 715 479 q 630 355 644 413 q 620 275 620 315 q 623 233 620 254 z "},"&":{"ha":1141,"x_min":103,"x_max":1124,"o":"m 713 133 l 337 596 q 215 538 257 596 q 174 399 174 479 q 198 276 174 338 q 267 165 222 215 q 378 79 315 109 q 510 49 441 49 q 625 72 570 49 q 713 133 680 94 m 945 0 q 851 17 907 0 q 738 106 795 34 q 619 23 692 56 q 456 -11 546 -11 q 202 91 300 -11 q 103 353 103 193 q 155 533 103 462 q 307 636 206 605 q 265 715 279 677 q 251 790 251 752 q 303 924 251 861 q 427 986 355 986 q 523 960 473 986 q 535 956 529 956 q 561 986 551 956 l 592 986 l 657 795 l 626 795 q 521 916 589 886 q 425 941 463 941 q 353 910 381 941 q 326 831 326 880 q 395 650 326 742 l 755 195 q 837 361 821 294 q 848 449 848 414 q 806 515 848 515 l 745 515 l 745 549 l 1046 549 l 1046 515 l 985 515 q 886 361 920 515 q 781 163 865 271 q 949 71 855 71 l 960 71 q 1090 157 1057 82 l 1124 157 l 1054 0 l 945 0 z "},"'":{"ha":235,"x_min":68,"x_max":178,"o":"m 134 751 l 113 751 l 71 995 q 68 1017 68 1010 q 82 1056 68 1042 q 123 1069 96 1069 q 164 1056 149 1069 q 178 1018 178 1043 q 176 995 178 1013 l 134 751 z "},"(":{"ha":514,"x_min":171,"x_max":475,"o":"m 171 408 q 238 767 172 595 q 420 1067 304 939 l 475 1067 q 319 770 358 903 q 280 415 280 639 l 280 400 q 319 46 280 176 q 475 -251 358 -87 l 420 -251 q 238 48 304 -123 q 171 408 172 220 z "},")":{"ha":514,"x_min":39,"x_max":343,"o":"m 94 -251 l 39 -251 q 195 46 156 -87 q 234 400 234 176 l 234 415 q 195 770 234 639 q 39 1067 156 903 l 94 1067 q 276 767 210 939 q 343 408 342 595 q 276 48 342 220 q 94 -251 210 -123 z "},"*":{"ha":694,"x_min":148,"x_max":546,"o":"m 338 878 q 313 966 335 926 q 288 1023 288 1010 q 303 1058 288 1044 q 346 1071 319 1071 q 388 1059 371 1071 q 404 1027 404 1046 q 380 966 404 1013 q 355 878 357 925 q 431 929 399 895 q 478 970 466 966 q 492 972 486 972 q 516 966 505 972 q 542 930 534 954 q 546 905 546 917 q 543 886 546 895 q 517 861 536 866 q 505 859 513 859 q 453 865 488 859 q 416 869 434 869 q 361 861 388 869 q 432 805 391 824 q 486 773 478 783 q 494 747 494 761 q 493 736 494 741 q 467 700 488 715 q 427 685 447 685 q 426 686 426 685 q 393 701 405 686 q 378 765 385 713 q 347 850 372 810 q 315 766 321 810 q 302 705 309 715 q 269 686 289 688 l 265 686 q 227 701 246 686 q 200 735 206 715 q 197 749 197 742 q 205 770 197 760 q 261 805 214 782 q 332 861 302 825 q 278 868 304 868 q 242 865 260 868 q 189 857 205 857 q 180 859 183 857 q 152 884 159 865 q 148 904 148 893 q 152 928 148 916 q 176 964 159 952 q 199 972 188 972 q 212 970 205 972 q 262 928 225 966 q 338 878 294 895 z "},"+":{"ha":688,"x_min":59,"x_max":629,"o":"m 296 439 l 59 439 l 59 534 l 296 534 l 296 784 l 297 785 l 391 785 l 391 534 l 628 534 l 629 533 l 629 439 l 391 439 l 391 188 l 296 188 l 296 439 z "},",":{"ha":378,"x_min":81,"x_max":252,"o":"m 161 175 q 221 131 191 175 q 252 28 252 86 q 203 -126 252 -46 q 109 -205 155 -205 l 109 -176 q 168 -47 159 -147 q 81 62 168 33 l 81 90 l 161 175 z "},"-":{"ha":454,"x_min":79,"x_max":376,"o":"m 106 277 q 79 296 79 277 l 79 353 q 106 372 79 372 l 348 372 q 376 353 376 372 l 376 296 q 349 277 376 277 l 106 277 z "},".":{"ha":378,"x_min":87,"x_max":257,"o":"m 98 113 l 154 170 q 174 180 164 180 q 195 169 182 180 l 249 111 q 257 91 257 100 q 248 70 257 81 l 193 10 q 174 -3 180 -3 q 154 6 163 -3 l 94 75 q 87 92 87 83 q 98 113 87 102 z "},"/":{"ha":386,"x_min":9,"x_max":430,"o":"m 63 -34 l 9 -34 l 376 972 l 430 972 l 63 -34 z "},":":{"ha":378,"x_min":87,"x_max":257,"o":"m 98 113 l 154 170 q 174 180 164 180 q 195 169 182 180 l 249 111 q 257 91 257 100 q 248 70 257 81 l 193 10 q 174 -3 180 -3 q 154 6 163 -3 l 94 75 q 87 92 87 83 q 98 113 87 102 m 98 583 l 154 640 q 174 650 164 650 q 195 639 182 650 l 249 581 q 257 561 257 570 q 248 540 257 551 l 193 480 q 174 467 180 467 q 154 476 163 467 l 94 545 q 87 562 87 553 q 98 583 87 572 z "},";":{"ha":378,"x_min":81,"x_max":257,"o":"m 98 583 l 154 640 q 174 649 164 649 q 195 638 182 649 l 249 580 q 257 560 257 569 q 248 539 257 550 l 193 479 q 174 466 180 466 q 154 475 163 466 l 94 544 q 87 562 87 553 q 98 583 87 572 m 161 175 q 221 131 191 175 q 252 28 252 86 q 203 -126 252 -46 q 109 -205 155 -205 l 109 -176 q 168 -47 159 -147 q 81 62 168 33 l 81 90 l 161 175 z "},"<":{"ha":688,"x_min":59,"x_max":629,"o":"m 629 728 l 205 485 l 629 244 l 629 131 l 59 457 l 59 513 l 629 842 l 629 728 z "},"=":{"ha":688,"x_min":59,"x_max":629,"o":"m 59 428 l 629 428 l 629 333 l 59 333 l 59 428 m 59 640 l 629 640 l 629 545 l 59 545 l 59 640 z "},">":{"ha":688,"x_min":59,"x_max":629,"o":"m 59 842 l 629 513 l 629 457 l 59 131 l 59 244 l 483 485 l 59 728 l 59 842 z "},"?":{"ha":507,"x_min":90,"x_max":452,"o":"m 90 902 q 254 972 176 972 q 397 926 343 972 q 452 803 452 880 q 430 708 452 756 q 345 582 408 660 q 249 455 284 505 q 214 358 214 404 q 238 230 214 315 l 206 230 q 172 373 172 323 q 251 585 172 447 q 330 794 330 722 q 298 882 330 850 q 210 913 267 913 q 90 859 153 913 l 90 902 m 151 113 l 207 170 q 227 180 217 180 q 248 169 235 180 l 302 111 q 310 91 310 100 q 300 70 310 81 l 246 10 q 227 -3 233 -3 q 207 6 216 -3 l 147 75 q 140 92 140 83 q 151 113 140 102 z "},"@":{"ha":1369,"x_min":68,"x_max":1276,"o":"m 659 422 q 557 368 603 415 q 511 233 511 320 q 554 101 511 160 q 678 42 597 42 q 764 155 744 45 l 764 478 q 659 422 727 435 m 922 20 q 854 32 880 20 q 812 68 829 43 q 757 25 793 43 q 667 6 721 6 q 493 74 569 6 q 416 233 416 142 q 452 346 417 292 q 542 424 488 399 q 660 457 597 448 q 734 486 705 468 q 764 536 764 504 q 736 621 762 583 q 648 659 709 659 q 566 619 600 659 q 532 534 532 579 l 501 534 l 501 642 q 550 669 501 656 q 671 683 600 683 q 802 639 745 682 q 859 532 859 597 l 859 133 q 923 54 859 54 q 1104 183 1048 77 q 1160 443 1160 290 q 1002 809 1146 670 q 677 937 869 937 q 411 843 538 937 q 228 602 283 750 q 182 357 182 481 q 270 11 182 145 q 477 -186 358 -124 q 693 -249 596 -249 q 1083 -108 879 -249 l 1083 -159 q 696 -283 905 -283 q 383 -200 533 -283 q 151 32 233 -117 q 68 345 68 180 q 152 660 68 509 q 386 891 236 810 q 696 972 536 972 q 1109 817 941 972 q 1276 433 1276 661 q 1157 135 1276 250 q 922 20 1038 21 z "},"A":{"ha":580,"x_min":-79,"x_max":555,"o":"m 249 977 q 252 974 252 977 l 257 977 l 262 977 q 309 932 277 968 q 298 908 298 916 q 333 874 324 875 q 340 861 333 869 l 340 853 l 328 825 q 385 625 343 800 q 464 421 397 604 q 488 363 471 412 q 511 319 492 359 q 506 313 511 313 q 503 316 506 316 q 485 306 496 306 q 543 172 516 208 q 529 164 529 169 q 555 101 555 115 l 550 98 l 543 98 q 503 149 527 104 q 488 135 488 145 q 516 83 488 125 q 522 73 516 79 l 522 67 q 513 62 513 67 l 534 7 q 516 1 522 1 l 516 -17 q 508 -24 516 -20 l 506 -24 q 464 22 477 -24 l 461 22 l 458 18 l 458 -54 l 453 -77 q 456 -153 453 -98 q 448 -163 452 -163 q 432 -100 432 -127 l 435 -100 l 432 -96 l 432 -85 q 435 -82 432 -82 q 412 94 424 94 q 330 267 364 186 l 273 267 l 273 264 l 277 256 q 273 250 273 255 l 273 172 q 259 106 271 106 q 249 156 252 106 q 241 185 241 156 l 241 248 q 236 253 241 253 l 212 253 q 189 245 199 253 l 173 245 q 142 258 163 256 l 142 264 l 149 264 l 149 269 q 134 271 138 269 q 115 216 126 262 q 81 119 86 166 q 68 104 79 119 l 52 106 q 39 94 43 94 l 42 83 q 21 43 29 43 q 5 -3 5 39 q -29 -9 -16 -9 q -66 1 -29 -4 q -73 12 -69 12 q -76 9 -73 9 l -79 15 q -42 109 -60 109 q -21 143 -31 135 q -24 164 -21 146 q -11 203 -14 164 q 18 290 -3 203 q 21 292 21 290 q -8 321 21 301 l -8 329 q 18 410 18 385 l 50 481 q 47 518 50 485 q 84 602 84 586 q 86 610 86 607 q 84 612 84 610 q 134 735 94 614 l 139 738 l 146 738 l 155 767 q 144 746 149 767 l 142 746 l 139 751 q 228 961 204 911 l 243 971 q 249 977 244 977 m 139 732 q 136 725 139 730 l 142 725 l 142 732 l 139 732 m 236 505 q 194 400 236 500 l 197 400 q 254 416 250 416 q 273 426 266 426 q 241 505 252 463 l 236 505 m 488 347 q 490 340 490 342 l 495 340 l 495 342 q 490 347 495 347 l 488 347 m 225 264 l 225 258 l 236 258 l 236 264 l 225 264 z "},"B":{"ha":661,"x_min":9,"x_max":628,"o":"m 100 1063 q 140 1012 119 1057 q 149 985 142 992 l 149 983 q 140 964 140 977 q 172 988 150 964 q 202 966 186 988 l 207 964 l 212 966 q 245 958 235 958 l 248 958 q 250 964 248 964 q 360 937 263 964 q 374 939 365 939 q 355 947 374 945 l 355 953 q 481 913 394 949 q 505 870 505 884 l 502 870 q 555 811 502 856 l 577 770 l 574 770 l 577 766 q 574 763 577 763 l 577 758 l 577 752 q 518 680 545 710 l 518 677 q 521 666 521 672 l 513 661 l 510 661 l 505 663 q 459 615 499 661 q 427 572 451 615 l 427 567 q 591 454 502 534 q 628 376 627 393 l 628 358 q 612 331 612 334 q 572 299 610 331 q 524 267 531 267 q 505 87 510 103 l 494 87 q 486 109 488 87 q 488 111 486 111 l 486 125 l 486 138 q 488 237 486 170 q 486 240 486 237 q 440 213 482 240 l 440 205 q 427 192 435 192 l 419 192 q 387 162 419 173 l 357 138 l 360 138 q 389 154 379 148 l 397 154 l 366 125 q 341 133 350 126 q 309 114 332 133 q 285 92 307 114 l 288 87 q 242 18 271 71 l 239 18 l 242 12 q 226 -4 242 8 l 212 -4 l 197 -1 q 189 -7 189 -4 q 161 1 161 -4 q 164 4 164 1 q 161 7 161 4 l 156 4 q 146 7 151 7 q 143 -4 146 1 l 146 -9 q 138 -58 138 -47 l 138 -68 q 127 -84 127 -75 q 111 -106 125 -106 l 108 -100 q 111 34 111 7 l 113 34 l 111 39 q 113 47 113 44 q 84 92 104 83 q 73 117 73 96 l 73 122 q 60 141 66 122 l 60 149 q 33 235 41 149 q 9 313 9 243 q 12 465 12 419 q 14 486 14 485 q 12 497 12 491 q 20 541 20 497 l 20 548 q 22 551 20 551 q 20 553 22 553 q 43 755 38 741 l 52 755 l 52 758 l 54 784 q 46 806 46 786 l 46 819 l 49 819 l 54 817 q 62 848 54 824 q 60 859 60 853 q 68 902 66 859 q 65 905 68 905 l 68 918 l 68 932 q 71 983 68 953 q 68 991 68 988 l 71 996 q 68 998 71 998 l 71 1017 l 71 1034 q 81 1042 71 1040 q 90 1039 87 1039 l 84 1047 l 84 1049 q 100 1063 84 1053 m 229 972 l 231 972 q 237 966 237 971 l 229 966 l 229 972 m 132 945 l 130 918 q 132 897 130 907 l 127 865 l 140 867 l 146 865 q 159 867 150 867 l 159 888 q 153 899 153 895 q 156 907 156 905 q 140 926 146 911 l 138 926 l 138 932 l 143 932 l 143 939 q 132 945 139 939 m 210 862 l 207 838 l 210 827 q 207 824 207 827 q 253 768 240 799 l 253 760 q 250 693 253 737 q 239 685 239 693 q 248 674 241 674 l 248 666 q 237 653 237 654 l 237 650 l 245 650 q 239 629 239 631 l 239 612 l 242 612 q 274 642 273 633 q 271 653 271 647 q 397 733 380 718 l 406 763 l 406 766 q 376 789 406 782 l 366 800 q 368 808 368 806 l 366 808 l 349 806 q 319 817 333 817 q 309 730 317 756 l 304 730 q 296 739 300 730 l 296 749 q 277 832 288 832 q 215 862 256 838 l 210 862 m 319 463 q 282 430 299 430 l 282 428 l 296 428 q 285 412 296 412 q 248 417 271 412 q 226 406 226 412 l 215 328 q 212 326 212 328 q 215 323 212 323 l 212 310 l 212 307 l 215 294 l 212 294 q 218 272 218 283 l 218 269 l 212 261 l 212 259 q 223 248 212 255 q 282 310 282 286 q 374 376 323 343 l 376 376 q 387 374 380 374 q 395 382 387 378 q 408 366 406 366 l 419 366 q 448 393 437 393 l 448 395 q 403 425 447 401 q 344 460 394 446 q 330 463 339 463 l 319 463 m 496 313 l 496 307 q 499 299 499 302 l 496 299 q 499 291 499 294 q 515 296 505 296 q 496 313 509 308 m 515 275 q 513 267 515 272 l 518 267 l 518 275 l 515 275 m 384 178 l 384 176 l 392 176 q 406 186 406 183 l 406 189 l 403 189 q 384 178 389 178 z "},"C":{"ha":618,"x_min":-18,"x_max":652,"o":"m 571 986 l 579 986 q 595 954 584 986 q 642 910 642 954 q 647 872 645 910 q 642 867 642 871 q 650 831 642 861 l 650 826 l 647 821 q 652 815 652 820 l 652 812 q 633 796 652 810 l 631 796 l 625 799 l 620 791 l 628 791 l 628 788 q 614 769 614 774 l 609 769 l 609 772 q 612 780 612 777 q 590 753 599 772 q 595 747 595 752 q 563 720 566 720 q 544 690 563 703 q 511 416 519 427 q 506 411 511 411 l 500 411 q 495 416 495 411 q 498 563 498 510 l 498 566 q 500 568 498 568 l 498 574 l 498 601 q 492 606 498 606 q 473 585 475 585 l 476 579 l 476 576 q 457 560 457 576 l 460 560 l 465 563 l 465 560 q 449 538 463 551 l 452 533 q 441 519 445 519 l 435 519 q 397 560 410 539 l 395 560 q 359 517 386 534 l 357 517 q 319 557 335 533 l 319 566 q 365 639 319 586 q 392 685 365 643 l 392 688 q 373 674 377 682 l 368 671 l 362 674 q 351 666 351 670 l 354 666 l 359 669 l 362 663 q 330 633 350 648 q 294 582 330 628 q 292 566 292 578 l 294 566 l 294 563 q 289 557 294 557 q 281 560 283 560 l 283 555 l 283 552 q 264 541 283 541 l 267 536 l 267 533 q 254 506 267 520 l 256 500 l 256 492 l 259 492 l 259 487 q 251 484 251 487 l 254 479 l 248 465 l 243 468 l 240 468 q 248 463 240 463 q 229 392 248 456 l 235 392 l 235 389 q 224 365 224 389 q 216 330 224 356 q 270 229 218 285 q 419 148 351 170 q 460 134 431 142 l 509 140 l 511 134 q 509 132 511 132 l 511 126 q 484 107 484 109 q 487 96 487 102 l 471 83 l 468 83 q 422 85 454 83 l 411 69 q 419 61 411 65 l 438 61 q 487 85 454 61 l 503 85 q 509 80 509 85 l 509 77 q 506 64 509 68 l 509 47 q 452 23 509 23 q 384 1 422 9 l 378 4 q 376 1 376 4 q 300 15 323 7 q 275 12 285 12 l 270 12 l 256 15 q 251 -20 254 9 q 254 -31 254 -25 q 245 -75 245 -49 l 245 -142 q 235 -153 245 -146 l 229 -153 q 221 -145 225 -153 q 216 26 221 -75 q 107 134 152 63 l 99 140 l 94 140 q 88 91 88 102 l 91 80 q 83 50 88 50 l 72 50 q 64 66 67 50 q 66 69 64 69 q 53 199 60 199 q -18 245 23 199 q 26 438 -18 315 q 28 457 28 449 q 15 487 25 457 q 12 490 12 487 l 12 492 q 80 595 15 530 l 83 595 l 83 587 l 94 587 q 110 598 94 595 l 110 601 q 102 606 102 601 l 140 655 q 156 685 140 667 l 151 693 q 221 755 203 755 q 229 753 227 753 q 262 793 262 774 q 349 880 262 804 q 373 897 366 880 q 438 943 412 919 l 460 951 l 454 959 q 473 970 458 959 l 479 967 q 487 975 479 971 l 492 975 q 509 959 509 975 q 552 981 522 959 q 571 986 565 981 m 604 766 l 606 766 l 606 764 q 601 758 606 758 l 598 764 l 604 766 m 210 628 l 216 628 q 227 636 227 632 l 218 636 q 210 628 214 636 m 490 620 q 484 609 490 616 l 484 606 l 487 606 q 495 620 487 610 l 490 620 m 191 614 q 189 606 189 609 l 186 606 l 178 612 l 175 612 l 175 609 q 186 604 179 609 q 199 612 195 612 l 199 614 l 191 614 m 243 574 l 243 568 l 251 568 l 251 574 l 243 574 m 237 495 q 248 525 243 495 l 245 525 q 237 495 239 525 m 99 514 l 99 511 q 110 517 106 517 l 110 522 q 99 514 99 518 m 161 506 l 161 503 l 167 503 l 167 511 q 161 506 161 511 m 137 441 l 137 430 l 140 430 l 140 441 l 137 441 m 134 427 l 134 416 q 148 419 139 419 l 148 422 q 134 427 141 422 m 47 338 l 47 319 l 50 319 l 53 335 l 47 338 m 39 302 l 39 297 l 42 297 q 50 305 46 297 l 45 308 q 39 302 39 307 m 58 294 q 56 286 58 292 l 58 275 q 47 264 56 264 l 47 259 q 50 256 47 256 l 47 251 l 47 240 q 64 243 52 243 l 64 245 l 61 273 q 72 281 72 277 l 72 283 q 61 294 61 283 l 58 294 m 191 294 l 191 292 l 194 286 q 191 278 191 281 q 208 240 191 271 q 205 229 208 234 q 208 218 208 224 q 205 216 205 218 l 251 180 l 254 180 l 254 186 l 191 294 m 45 275 l 45 273 l 50 273 l 50 281 q 45 275 45 280 m 75 281 q 83 273 75 277 l 85 273 l 85 275 q 80 281 85 281 l 75 281 m 99 248 q 96 235 99 239 q 99 232 99 235 q 110 235 104 235 q 104 248 104 243 l 99 248 m 56 216 q 61 210 56 210 l 64 210 l 61 216 l 61 221 l 72 213 q 75 216 72 216 l 83 199 q 96 210 95 205 q 72 227 96 213 q 56 216 56 221 m 137 142 l 142 142 l 140 137 l 140 134 l 142 134 q 148 151 144 151 q 145 159 145 156 q 137 142 137 156 m 151 153 q 145 132 151 137 q 151 126 146 126 l 153 126 q 164 137 153 137 l 164 140 q 153 153 153 140 l 151 153 m 243 102 q 254 85 248 85 l 251 102 l 243 102 m 302 102 q 321 94 302 96 q 302 102 321 100 m 330 96 l 335 88 q 332 85 332 88 q 370 75 370 79 q 389 83 384 83 q 330 96 389 89 z "},"D":{"ha":608,"x_min":5,"x_max":578,"o":"m 158 1006 l 163 1006 l 184 974 l 168 821 q 171 812 171 815 l 174 812 q 195 847 195 824 q 214 876 202 847 l 218 879 l 221 879 q 253 826 244 852 q 256 823 256 826 q 235 781 238 781 q 208 660 214 665 q 197 654 201 654 l 197 646 l 200 646 l 208 652 q 211 649 208 649 q 200 631 211 646 q 208 610 208 619 q 200 583 207 583 q 195 588 200 588 q 184 572 184 576 q 208 528 208 532 q 195 490 208 519 q 197 488 195 488 l 195 475 l 195 462 q 197 440 195 451 q 187 398 192 398 l 190 382 q 187 348 190 370 l 190 332 q 182 330 184 330 l 182 316 q 176 311 176 315 l 176 290 l 174 274 q 176 266 176 269 l 171 263 l 158 266 l 150 256 q 155 248 155 256 l 171 248 l 171 237 l 174 237 q 200 266 182 240 q 227 290 205 266 q 274 351 244 304 l 277 351 q 298 342 290 342 l 300 342 q 388 483 355 408 q 398 538 395 500 q 395 546 398 541 q 398 583 398 568 l 398 586 q 395 599 398 594 l 398 612 q 374 720 398 720 q 324 762 334 762 l 324 760 q 309 575 317 575 l 306 575 l 295 583 q 298 649 298 627 l 298 696 q 295 779 298 730 q 298 786 298 784 q 288 818 288 812 l 290 823 q 285 829 285 823 l 285 865 q 288 868 285 868 q 235 953 269 901 l 237 966 q 232 987 237 968 l 232 995 q 245 1006 232 999 l 248 1006 q 353 895 325 939 q 467 808 426 874 l 536 667 q 578 578 578 600 l 578 572 l 572 564 q 557 575 570 564 l 546 575 q 557 517 557 538 l 554 504 q 562 483 559 504 q 536 467 548 483 q 483 409 505 446 q 469 393 479 409 l 469 387 q 480 353 469 385 l 480 342 q 456 335 480 338 q 435 311 435 314 l 435 292 q 406 58 422 215 l 401 55 l 398 55 q 393 60 393 55 l 393 94 q 395 105 393 100 q 393 115 393 110 l 393 137 q 395 139 393 139 q 391 155 393 155 q 395 245 395 184 l 395 250 l 393 256 q 382 248 382 252 l 377 250 l 374 250 l 374 239 q 338 216 366 229 q 314 174 328 206 q 279 150 296 174 q 264 126 276 150 l 258 123 q 256 126 258 126 l 258 113 q 237 94 237 100 q 245 89 245 94 q 224 81 243 81 l 224 79 l 229 79 l 229 76 q 211 60 211 63 l 214 60 q 211 44 211 57 q 216 39 216 43 q 197 20 216 35 l 187 20 l 174 23 q 126 -12 144 -5 q 113 -114 126 -32 q 105 -149 113 -149 l 102 -149 q 94 -140 98 -149 l 94 -125 q 90 -77 94 -90 q 92 -75 90 -75 q 90 -30 90 -43 l 90 -6 l 87 10 l 90 15 q 47 58 90 37 q 31 108 38 108 q 5 147 16 108 l 5 158 q 10 203 5 182 l 7 218 l 10 218 l 7 224 l 7 250 q 10 261 7 256 q 7 271 7 265 q 13 277 13 271 q 10 285 10 282 l 13 285 l 10 290 l 10 298 q 7 300 7 298 l 10 316 q 7 342 7 330 l 7 345 q 10 348 7 348 l 7 353 l 7 385 q 16 430 7 401 l 13 435 q 16 437 13 437 l 13 451 l 13 454 q 18 483 13 457 q 16 504 18 494 q 26 533 18 533 l 37 525 l 39 525 q 44 538 39 532 l 44 546 l 39 546 q 20 541 34 541 q 18 543 20 543 q 42 638 18 626 l 42 652 l 50 652 l 50 638 l 58 644 l 55 649 l 60 662 q 52 665 55 665 l 52 673 q 63 684 63 673 l 55 688 q 52 681 52 684 l 47 681 l 47 686 l 39 681 l 37 681 l 37 686 q 58 765 37 709 q 68 781 66 765 l 71 781 q 79 779 76 779 l 81 784 l 81 786 l 76 784 l 71 784 l 71 794 q 97 903 92 862 l 100 903 q 97 924 97 917 q 116 958 97 934 l 121 956 q 129 963 125 956 q 126 974 129 969 q 137 1003 133 1003 l 153 1000 q 158 1006 153 1006 m 205 889 q 211 884 211 888 l 211 879 q 203 871 211 875 q 197 876 197 871 q 203 882 203 876 l 200 886 l 205 889 m 42 575 l 42 570 l 52 570 l 52 575 l 42 575 m 34 562 l 34 559 q 42 551 34 555 q 47 557 47 551 q 42 562 47 562 l 34 562 m 37 475 l 42 472 l 47 480 l 44 493 q 37 475 39 493 m 34 422 l 34 414 l 37 414 q 42 419 42 414 l 42 422 l 34 422 m 155 340 l 155 335 l 166 335 q 161 340 166 340 l 155 340 m 161 288 q 158 279 161 285 l 163 279 q 168 285 168 279 l 163 288 l 161 288 z "},"E":{"ha":518,"x_min":-1,"x_max":511,"o":"m 113 1040 q 155 965 155 1017 l 155 946 l 163 946 q 176 996 163 964 l 182 993 q 193 998 189 998 q 229 960 218 990 q 274 962 245 960 l 307 960 q 330 968 323 968 q 425 962 397 962 q 460 974 449 962 q 483 918 477 974 q 474 890 479 901 q 477 887 477 890 q 444 882 472 884 l 446 876 q 444 868 444 871 q 449 863 449 867 q 446 854 446 857 l 488 843 l 488 838 q 455 818 467 838 q 430 815 440 818 q 421 818 425 818 q 408 812 421 812 l 408 810 l 425 806 l 425 801 l 413 801 q 344 793 397 801 l 344 785 l 307 785 l 307 754 q 294 712 307 712 q 282 751 286 712 l 285 757 q 277 785 279 785 q 221 768 222 785 q 208 729 208 743 q 213 673 213 684 q 208 648 208 655 l 210 642 q 199 587 201 609 q 201 578 201 581 l 199 573 q 208 559 202 559 l 271 559 q 307 573 286 573 q 430 553 417 573 l 425 545 q 441 503 438 545 q 469 498 466 498 l 469 495 l 466 490 q 471 484 471 489 q 449 473 456 473 l 458 462 l 458 459 q 446 445 446 459 q 435 442 437 442 l 435 445 q 433 442 433 445 l 418 445 q 393 437 416 445 q 385 439 388 439 l 382 434 q 402 429 395 434 l 416 429 l 416 422 q 388 406 405 422 l 344 406 l 344 401 q 349 395 345 395 l 363 395 l 363 392 q 319 381 363 387 q 307 384 313 384 q 288 326 288 380 l 279 320 l 277 320 q 266 331 273 320 l 266 353 l 263 367 q 201 364 221 364 l 191 364 l 180 373 l 176 373 q 171 359 176 359 l 165 361 l 165 345 l 174 351 l 176 351 l 176 339 q 171 334 176 334 l 165 336 l 163 331 l 163 300 q 168 311 168 300 l 174 311 q 168 281 172 281 q 155 273 161 281 q 152 275 155 275 l 149 256 l 149 248 q 155 256 155 248 l 157 256 l 157 245 q 138 231 143 231 l 138 228 q 149 222 142 228 q 155 228 150 228 q 165 217 159 228 l 165 214 q 155 209 155 214 l 155 200 l 171 195 l 285 209 l 291 206 q 299 209 296 209 q 307 200 299 205 l 332 203 q 349 195 349 200 l 344 186 q 366 156 359 186 q 368 153 368 156 q 380 156 370 153 q 397 153 394 153 l 402 156 q 418 147 415 147 l 418 142 l 413 134 q 455 117 433 120 l 480 117 q 499 100 496 100 l 494 89 q 511 53 500 89 l 488 42 q 352 36 416 36 l 352 33 l 385 33 l 385 31 q 380 25 385 25 l 349 25 q 327 17 329 25 l 327 -8 q 316 -28 327 -23 l 310 -28 q 302 -5 302 -26 l 302 14 q 294 20 302 20 q 188 3 254 20 l 174 5 l 171 5 q 132 0 162 5 l 132 -50 l 130 -66 q 132 -69 130 -69 q 115 -139 129 -139 q 104 -109 109 -139 l 104 -73 q 107 -61 104 -66 q 102 -3 104 -61 q 54 33 54 -3 q 13 75 38 68 q -1 100 7 75 l -1 128 q 7 153 1 153 l 4 170 q 18 364 10 364 l 16 370 l 16 398 q 18 409 16 404 q 16 412 18 412 l 18 439 l 18 462 q 37 492 29 462 q 18 507 18 503 l 18 553 q 16 565 18 559 q 26 612 23 612 l 24 623 q 43 701 33 682 q 41 709 43 704 q 60 812 60 803 q 54 821 54 812 q 74 921 69 844 q 85 990 79 921 q 99 1023 94 1021 l 96 1029 q 113 1040 96 1034 m 24 523 l 24 517 q 29 512 24 512 l 32 517 l 32 528 l 29 528 q 24 523 24 528 m 24 456 l 24 437 l 26 437 q 29 454 26 449 l 24 456 m 319 404 q 324 398 319 398 q 330 404 330 398 l 319 404 m 168 378 l 165 373 l 171 370 l 174 376 l 168 378 m 168 326 l 174 326 l 174 317 l 168 317 l 168 326 m 160 292 q 163 283 163 287 l 168 287 q 165 295 165 292 l 160 292 m 143 217 q 149 212 144 212 l 152 212 q 146 217 152 217 l 143 217 m 282 33 l 282 28 l 296 31 l 296 33 l 282 33 m 399 33 l 421 33 l 421 28 l 399 28 l 399 33 z "},"F":{"ha":571,"x_min":9,"x_max":690,"o":"m 176 998 q 202 970 202 987 l 208 967 l 224 967 l 224 984 l 228 989 q 236 987 233 987 l 241 989 q 276 964 247 989 l 290 964 q 384 956 324 964 l 401 958 l 420 958 l 420 964 l 429 958 q 517 970 475 970 l 529 967 q 540 970 534 970 q 551 967 547 970 l 580 970 q 616 967 615 967 q 620 970 620 967 q 688 939 688 970 l 690 933 q 665 862 690 862 l 662 862 q 651 870 662 869 q 625 811 625 870 q 608 800 616 800 q 606 808 606 805 q 520 793 520 804 l 515 793 l 515 800 l 503 800 l 494 793 l 484 793 l 484 800 l 466 800 l 469 793 l 469 788 l 446 788 l 446 785 l 452 785 l 452 779 l 444 779 q 412 774 440 779 l 404 774 l 404 768 l 389 768 q 384 762 384 768 l 387 757 q 375 677 382 732 q 372 671 372 677 l 367 671 q 355 697 355 675 l 355 734 q 353 745 355 741 l 355 751 l 353 757 l 355 762 q 353 771 353 768 l 350 771 l 344 768 q 341 774 344 774 q 284 762 332 767 l 284 760 l 304 760 l 304 754 l 284 754 l 284 751 q 296 745 296 751 q 267 643 271 745 q 262 635 264 643 l 256 637 l 253 637 q 248 623 253 633 q 256 621 253 621 l 256 618 l 250 609 l 250 604 q 284 592 250 593 q 315 597 292 592 l 395 583 q 406 587 400 587 q 418 578 406 582 q 429 581 423 581 q 446 575 439 575 l 506 575 q 526 544 526 560 q 523 513 523 524 l 523 498 q 484 478 523 492 q 463 450 484 460 q 477 441 477 448 q 475 430 475 437 l 455 430 l 455 439 l 446 439 q 427 418 443 418 q 420 408 420 418 l 395 408 q 367 393 387 408 q 353 391 361 391 q 350 393 350 391 q 333 373 333 387 q 336 345 336 349 q 315 208 330 208 l 313 208 l 307 212 l 301 385 l 284 385 l 256 382 l 256 379 l 267 379 l 267 373 q 205 345 205 370 q 210 339 210 344 q 208 336 210 336 l 210 325 q 199 291 207 291 q 202 288 199 288 q 196 268 200 268 q 199 265 196 265 q 174 220 199 231 l 174 200 l 179 203 q 182 174 179 184 q 174 138 176 138 q 179 115 179 123 l 157 98 l 159 92 q 151 83 159 87 q 148 86 151 86 l 148 78 l 154 69 l 154 66 l 151 52 q 159 47 159 52 l 159 38 l 151 26 l 154 21 q 151 9 151 16 q 157 4 157 9 q 154 -61 154 -48 q 137 -70 144 -70 q 114 -189 133 -189 l 109 -180 l 109 -127 q 105 -87 109 -111 l 109 -81 q 94 -50 94 -57 q 97 -10 97 -26 l 97 4 q 74 1 81 1 q 52 30 57 1 q 49 33 49 30 l 49 35 q 60 90 56 40 q 40 100 60 97 q 28 98 35 98 l 18 112 q 20 123 20 117 l 9 129 q 23 237 14 205 q 18 243 18 237 l 18 254 q 26 274 18 274 l 23 319 q 32 342 32 321 l 32 356 l 28 385 l 35 385 l 35 416 q 40 439 35 418 l 40 450 q 52 564 52 543 q 45 569 45 564 l 45 572 q 57 592 57 572 q 80 669 66 669 l 77 683 l 77 686 q 94 777 83 692 q 119 862 107 802 q 145 956 130 888 l 148 956 l 145 962 l 145 964 q 168 998 168 964 l 176 998 m 97 737 q 88 703 97 726 l 85 688 l 91 688 q 100 703 98 688 l 100 711 l 105 711 l 102 726 q 105 728 105 726 q 100 737 100 728 l 97 737 m 63 564 l 60 544 l 60 538 l 63 538 q 71 549 63 549 l 71 561 q 63 564 68 561 m 60 532 l 60 518 l 63 518 l 63 532 l 60 532 m 432 441 l 432 439 l 444 439 l 444 441 l 432 441 z "},"G":{"ha":676,"x_min":7,"x_max":769,"o":"m 532 975 q 556 939 556 949 q 568 913 556 926 l 559 903 l 559 900 q 570 895 570 900 q 545 880 545 889 l 548 880 q 556 883 553 883 l 556 880 l 562 883 l 570 883 l 570 878 q 551 864 555 878 q 556 844 556 853 q 524 825 546 837 l 515 825 l 517 831 l 512 833 q 485 817 498 819 l 485 812 q 504 817 490 812 l 504 814 l 498 806 l 504 806 q 578 836 516 817 q 604 828 604 834 l 604 825 q 581 812 596 812 l 573 817 l 570 812 l 576 812 l 576 809 q 524 784 574 803 l 524 773 l 526 773 q 568 792 551 781 l 573 792 l 573 789 q 504 751 562 781 l 504 748 l 509 748 l 509 743 l 507 743 l 501 745 q 479 737 486 737 l 479 732 l 488 732 l 488 737 l 493 737 l 493 734 l 449 699 q 432 687 449 689 q 410 657 432 673 q 363 627 401 640 q 280 532 280 553 q 258 375 271 375 q 247 403 250 375 l 247 431 q 200 370 200 414 q 197 334 197 360 q 211 270 197 304 q 208 267 211 267 l 211 254 l 211 237 q 208 234 211 234 q 233 160 217 190 l 239 163 q 250 160 243 160 q 267 174 250 165 q 283 193 271 186 q 291 184 287 193 q 277 179 291 179 l 277 176 q 286 171 286 176 q 267 140 267 150 l 269 140 q 368 264 291 140 q 404 317 373 265 l 408 317 l 408 320 q 399 328 408 324 l 347 315 q 327 331 334 319 l 327 334 q 338 342 327 340 l 324 359 l 327 364 q 311 400 311 389 l 341 425 q 330 441 341 428 l 330 463 q 327 475 330 470 l 330 480 l 327 494 q 360 513 341 513 l 366 513 q 427 524 366 524 q 452 532 446 528 l 454 532 q 463 530 463 532 q 471 532 465 530 q 755 505 755 528 q 761 499 761 505 l 761 496 q 749 488 761 488 q 769 475 749 486 l 769 458 q 764 452 769 452 q 761 455 761 452 q 741 450 741 452 l 736 452 l 733 452 q 686 428 718 428 l 686 431 q 650 403 678 430 q 631 386 647 395 q 628 361 628 371 l 628 347 q 601 130 621 130 q 595 138 595 130 q 601 353 595 212 q 592 367 597 367 l 589 367 q 556 356 589 356 q 526 298 541 314 q 532 292 532 297 q 524 287 532 287 l 526 273 q 496 240 522 273 q 504 237 498 240 q 446 118 470 146 q 435 74 440 112 q 421 35 431 71 q 391 -3 404 3 q 352 -86 367 -61 l 352 -105 q 336 -130 352 -119 q 327 -153 336 -138 l 330 -158 q 321 -169 326 -169 q 313 -163 321 -163 q 288 -180 288 -163 l 288 -202 l 283 -210 l 277 -208 l 250 -241 l 236 -238 l 231 -241 q 205 -230 205 -234 q 261 -3 237 -130 q 258 5 258 2 q 217 -37 220 -37 l 214 -31 q 228 -1 214 -21 l 228 8 q 164 24 228 13 q 98 85 136 48 l 98 52 l 95 35 q 98 33 95 33 l 95 19 l 95 -17 q 81 -37 85 -37 q 68 118 72 -37 q 26 190 49 160 q 7 315 7 258 q 40 513 7 391 q 56 530 40 526 q 65 549 65 538 l 79 547 l 81 552 q 73 574 73 570 l 81 580 l 79 585 l 79 588 q 87 596 79 592 l 92 593 l 92 599 q 90 607 90 604 l 95 610 q 106 599 95 606 q 112 604 112 599 q 109 607 109 604 l 104 604 l 100 604 l 100 610 l 106 618 l 106 629 l 104 635 l 109 635 l 106 646 q 131 676 115 676 l 134 682 q 131 684 131 682 l 134 684 q 136 682 136 684 q 186 718 149 682 q 195 715 192 715 q 203 728 200 728 l 200 734 l 217 762 l 211 762 l 211 767 q 250 800 218 767 q 291 831 283 828 l 291 833 q 288 836 291 836 q 363 886 322 886 q 380 900 363 890 l 391 897 q 401 905 401 901 q 396 911 396 905 q 488 964 418 936 q 532 975 488 970 m 468 753 l 468 751 q 473 745 469 745 q 512 762 499 759 l 512 764 q 507 770 512 770 q 468 753 473 753 m 151 704 l 153 699 l 145 699 q 151 704 146 704 m 92 591 l 92 585 l 104 585 l 104 588 l 92 591 m 68 541 l 68 530 l 71 530 l 71 541 l 68 541 m 236 469 q 247 458 240 469 q 244 486 244 473 q 236 469 236 483 m 205 422 l 205 416 l 208 416 l 247 444 l 241 447 q 205 422 237 447 z "},"H":{"ha":620,"x_min":1,"x_max":610,"o":"m 503 1012 l 506 1012 q 516 985 511 1012 l 516 975 l 513 947 l 530 943 q 543 964 531 950 q 541 972 541 969 l 546 975 q 575 947 575 962 q 604 905 575 944 l 610 881 l 607 867 q 610 865 607 865 q 591 753 602 769 q 583 713 585 713 q 586 705 586 707 q 575 627 581 631 q 578 620 575 625 q 570 595 576 604 l 572 582 q 567 569 572 569 l 570 564 l 570 561 l 556 545 q 564 539 564 545 q 556 524 559 539 l 564 524 l 564 515 q 556 510 564 510 l 562 499 q 559 489 559 495 q 562 481 562 484 q 553 473 557 481 l 559 470 q 553 441 557 441 l 556 435 q 546 417 549 427 l 543 417 l 543 409 q 551 404 551 409 q 543 398 551 398 q 551 379 551 388 q 541 355 551 371 l 543 350 l 541 339 l 543 334 l 538 315 q 541 313 538 313 l 538 286 l 538 273 q 535 270 538 270 q 538 267 535 267 q 519 153 538 186 l 522 139 l 522 123 q 519 121 522 121 l 522 115 q 519 113 522 113 q 524 92 524 102 q 503 43 518 43 q 498 35 502 43 q 513 -5 509 -5 l 513 -18 q 498 -26 511 -26 q 481 75 481 -26 q 466 96 481 81 q 458 134 460 134 l 460 147 l 460 161 q 458 172 460 167 l 460 176 q 458 184 458 182 l 460 184 q 458 195 458 189 l 452 193 l 455 187 q 439 153 439 159 l 439 115 q 441 104 439 109 q 436 96 439 96 q 439 89 436 94 l 436 64 l 439 49 q 423 -90 433 -90 l 420 -90 q 407 3 407 -90 q 410 78 410 31 q 399 129 399 109 q 407 161 400 161 l 404 179 l 404 187 q 407 190 404 190 q 396 219 399 204 q 399 238 399 230 q 393 281 399 247 q 407 379 401 371 q 404 382 407 382 q 410 433 410 412 l 407 433 q 378 422 395 433 l 375 422 q 372 425 372 422 q 359 414 365 424 l 279 398 l 281 393 q 273 376 275 376 l 276 372 l 276 329 q 260 216 276 216 l 252 227 l 252 256 q 247 299 247 295 l 247 376 q 236 401 242 401 q 231 395 236 395 q 220 398 224 395 q 201 372 205 398 q 191 366 195 366 l 191 363 l 196 363 l 196 358 l 193 353 q 201 345 197 353 l 201 339 l 196 339 l 196 336 l 199 332 q 191 321 195 332 q 193 313 193 315 q 185 310 188 310 l 188 299 q 183 292 185 292 l 185 286 l 183 281 l 183 273 l 178 270 q 180 259 180 265 l 188 264 l 188 259 l 178 246 q 183 230 183 237 l 183 227 q 175 209 183 218 l 180 201 l 180 198 l 167 174 q 170 163 170 170 q 159 150 166 163 l 159 142 q 164 132 164 135 q 153 62 158 85 l 156 56 l 156 30 l 135 -10 l 127 -10 q 124 -7 124 -10 q 108 -21 120 -7 l 95 -21 q 79 -7 79 -12 q 92 104 88 84 q 90 113 90 110 q 71 104 79 110 l 65 104 l 58 110 q 52 104 58 104 l 44 104 l 41 99 q 44 96 41 96 q 28 22 37 22 q 15 75 15 22 l 15 102 q 1 134 15 132 q 4 142 1 136 l 1 161 l 12 219 l 9 224 q 12 235 12 229 l 12 238 l 7 238 q 55 638 20 281 q 84 793 55 730 q 113 913 113 907 q 138 929 121 924 q 140 921 140 924 l 148 921 q 180 905 156 921 q 185 932 180 918 l 180 935 q 212 961 180 944 l 212 964 q 210 966 210 964 l 215 969 q 218 966 215 966 q 236 993 218 977 l 239 993 l 241 980 l 247 983 q 252 977 248 977 q 258 983 253 983 q 295 953 272 976 q 300 932 300 943 q 295 905 300 905 l 298 892 q 273 715 284 826 q 244 617 258 646 l 250 614 l 244 564 l 271 564 q 364 569 278 564 l 386 569 l 401 566 q 426 593 426 566 l 433 665 l 431 670 l 433 684 q 431 694 433 690 q 433 718 433 709 l 433 740 q 436 750 433 745 q 433 761 433 755 q 455 950 433 838 q 473 1001 468 950 q 503 1012 488 1012 z "},"I":{"ha":460,"x_min":-70,"x_max":564,"o":"m 209 1031 l 226 1031 q 276 972 245 1026 q 281 970 276 970 q 360 964 330 969 q 371 967 365 967 l 382 967 q 416 962 416 966 l 421 964 q 435 962 431 964 l 449 964 q 519 939 519 954 l 519 925 l 513 917 l 513 914 q 564 897 549 914 q 544 844 553 844 q 533 847 539 847 l 530 842 l 505 847 q 488 844 503 847 l 444 850 q 433 827 433 832 l 435 822 q 433 810 433 817 l 433 808 q 441 802 433 802 l 441 800 q 433 797 438 800 l 427 800 q 401 783 401 800 q 399 747 399 770 l 399 739 q 396 582 399 681 q 388 568 393 568 q 368 797 374 568 q 354 802 354 797 l 340 800 l 323 802 q 315 800 318 800 l 315 797 q 321 791 316 791 q 313 707 318 736 l 307 707 l 307 719 l 304 719 l 304 707 l 307 707 q 304 699 304 702 q 307 691 307 694 q 296 680 302 691 l 296 677 q 304 671 304 677 l 296 657 q 304 637 304 647 q 301 629 304 635 l 307 585 q 298 507 301 585 q 293 501 293 506 l 298 492 l 296 481 l 296 473 q 288 465 292 473 l 296 454 q 281 431 285 454 l 290 414 l 290 406 l 281 406 l 285 392 q 276 373 285 383 l 276 370 q 285 367 279 370 l 281 339 l 281 336 l 285 322 q 276 314 280 322 l 276 311 l 285 300 l 285 286 l 296 286 q 276 267 296 281 l 276 256 l 273 256 l 273 247 l 279 250 q 285 244 285 249 l 279 236 q 281 211 279 226 q 279 208 281 208 l 281 194 l 281 163 q 360 155 295 155 q 363 158 360 158 l 376 149 l 368 130 l 349 133 l 329 130 q 323 136 329 136 q 301 119 301 122 l 321 116 l 340 116 l 349 111 l 363 111 q 399 99 389 111 q 408 102 404 102 q 416 96 408 96 l 416 94 l 401 94 l 396 96 q 385 60 396 75 q 388 58 388 60 q 379 54 382 54 l 379 52 l 385 52 l 385 46 q 363 41 380 46 l 357 43 q 340 41 355 43 l 326 43 q 318 41 321 41 l 313 43 q 288 13 292 43 q 285 10 288 10 q 290 -21 290 -5 q 254 -37 283 -21 q 243 -29 243 -33 l 243 7 q 237 13 243 13 q 223 4 223 9 l 226 -9 q 195 -24 198 -24 l 193 -18 l 193 10 q 184 13 184 10 l 178 10 q 168 13 174 13 l 165 -1 l 165 -29 q 156 -62 165 -36 l 156 -104 q 148 -127 156 -125 l 142 -127 q 125 7 134 -94 q 36 4 66 4 l 31 4 q 25 10 25 4 l 28 16 q 14 43 24 19 l 17 49 l 14 66 q 31 71 25 71 l 31 79 l 25 88 l 25 105 q 86 121 25 117 q 95 119 92 119 l 95 121 l 92 141 q 111 161 93 148 l 131 161 l 131 174 q 134 219 131 191 q 131 228 131 224 l 134 228 l 131 233 l 131 236 q 140 261 131 243 q 131 286 132 261 l 134 292 l 128 314 q 140 336 128 336 l 140 339 q 123 387 127 347 l 123 392 q 128 406 123 406 l 125 420 l 125 423 q 128 434 125 429 l 123 445 q 125 476 125 469 q 123 484 125 479 q 136 509 123 509 l 131 517 q 142 532 135 517 q 136 537 142 537 q 134 534 136 534 l 131 540 q 142 543 136 543 l 142 551 l 140 551 l 134 549 l 131 554 l 131 568 l 142 615 q 140 627 140 621 q 151 705 151 688 q 148 707 151 707 q 156 741 151 741 l 153 747 l 153 766 q 125 791 153 791 l 125 797 l 120 797 l 115 794 q 111 802 111 800 l 109 802 q 106 800 106 802 l 95 805 q 78 794 95 802 l 58 794 q 53 785 58 785 l 47 785 l 53 794 l 53 797 q 36 802 36 797 q 22 800 31 800 l 22 791 l 33 791 l 33 783 q 0 774 7 781 l 3 769 l 3 766 q -45 758 -3 766 l -59 758 q -64 764 -64 758 l -64 766 l -59 774 q -64 780 -64 774 l -56 791 q -70 800 -70 795 l -70 810 q -56 825 -70 814 l -59 830 l -59 833 q -56 844 -59 840 q -64 872 -64 871 l -53 889 q -22 900 -22 896 q 3 945 -22 932 q 131 964 22 954 l 131 962 q 156 970 150 965 l 173 967 q 184 972 180 972 l 184 978 q 201 1012 184 995 q 209 1031 201 1015 m 83 953 q 90 947 84 947 l 100 947 l 100 956 l 83 953 m 496 867 l 496 861 l 502 864 q 511 861 508 861 l 511 864 l 508 869 q 496 867 503 867 m 441 814 l 446 814 l 446 805 l 441 805 l 441 814 m 14 772 l 25 772 l 25 766 l 14 766 l 14 772 m 31 772 l 42 772 l 42 766 l 31 766 l 31 772 m 70 772 l 78 772 l 78 766 l 70 766 l 70 772 m 273 389 l 273 378 l 276 378 q 279 387 276 381 l 273 389 m 229 322 l 229 317 l 231 317 q 243 334 231 326 l 243 336 l 240 336 q 229 322 229 331 m 226 303 l 231 300 l 234 311 q 226 303 230 311 m 229 199 q 231 189 231 195 q 237 194 237 189 l 237 203 l 234 203 l 229 199 m 418 152 q 427 149 424 149 l 427 144 l 413 141 l 404 141 q 399 146 399 141 l 399 149 l 418 152 m 184 26 l 181 21 l 181 18 l 193 18 l 193 24 q 184 26 190 24 z "},"J":{"ha":609,"x_min":-19,"x_max":648,"o":"m 359 977 q 385 974 368 974 q 395 977 387 974 q 419 972 406 972 q 427 974 422 972 q 482 964 482 970 l 500 969 l 506 966 q 509 969 509 966 q 611 948 568 961 q 648 940 624 948 l 648 937 q 640 930 648 933 q 629 935 629 932 q 618 932 625 932 l 621 927 l 621 924 q 600 932 600 927 q 603 935 603 932 q 587 940 595 940 l 587 930 l 572 930 q 569 924 572 924 q 579 916 569 916 l 579 911 l 572 911 l 574 898 q 569 892 574 892 q 595 864 569 864 l 595 861 q 582 859 591 859 l 582 853 l 593 835 q 577 749 582 795 q 572 743 572 748 q 574 722 574 729 q 556 720 571 720 l 558 714 l 564 717 l 569 714 l 566 704 l 569 686 q 556 651 566 686 q 545 628 553 651 q 551 623 551 627 q 545 612 545 623 l 540 612 l 543 625 q 537 630 543 630 q 524 614 537 625 q 532 609 532 614 l 532 588 q 522 568 522 581 q 530 547 530 566 l 530 538 l 524 530 l 524 526 q 530 520 525 520 q 516 470 522 477 l 516 454 q 522 444 522 448 q 511 394 517 433 l 509 394 l 503 397 q 498 386 503 386 q 496 389 498 389 l 496 384 q 500 378 496 378 l 498 360 l 498 349 l 500 349 q 506 357 506 349 q 511 352 511 357 l 511 339 q 506 334 511 334 l 503 334 l 503 339 l 500 339 q 498 334 500 334 q 500 331 498 331 l 498 313 l 498 305 l 509 315 q 511 313 509 313 l 509 300 q 511 279 509 293 q 506 231 506 252 l 506 224 q 516 186 516 212 q 519 58 516 156 l 509 -2 q 506 -5 509 -5 l 503 -5 q 490 50 495 -3 q 493 53 490 53 l 490 71 l 490 116 q 482 119 488 116 l 479 113 q 482 105 482 108 q 461 98 468 102 l 448 105 q 451 113 448 108 q 448 134 448 127 l 446 134 q 437 119 437 132 l 437 95 q 435 92 437 92 l 437 87 l 437 77 l 440 50 l 437 50 q 448 35 437 47 q 440 22 440 26 q 446 5 446 13 l 446 1 l 443 1 l 437 3 l 435 -13 q 437 -16 437 -13 q 427 -20 431 -20 l 427 -39 q 435 -44 435 -39 l 435 -50 q 419 -62 425 -50 l 419 -110 q 406 -149 414 -149 q 401 -144 401 -149 l 401 -139 q 382 -62 401 -62 q 367 -16 378 -62 q 319 43 355 -16 l 309 50 q 291 29 292 42 l 286 26 l 277 26 l 212 142 q 207 153 207 142 l 204 153 q 196 111 196 153 l 196 77 q 189 61 196 63 q 168 205 176 61 q 162 213 165 205 q 165 224 165 218 q 146 242 165 227 l 141 242 l 144 237 l 141 237 q 125 255 138 237 l 125 258 l 131 265 q 104 284 113 265 q 86 307 100 285 l 86 315 q 50 363 72 315 q 41 373 50 373 q 39 370 41 370 l 39 373 l 41 378 q 20 415 36 378 q 10 439 14 415 q 18 441 15 441 l 18 460 q 28 457 24 460 q 39 460 33 460 q 57 452 45 460 l 62 452 l 62 457 l 57 465 l 57 481 l 60 494 q 110 447 81 494 l 123 439 l 133 439 l 141 444 l 144 444 q 168 431 151 437 q 228 349 168 420 q 235 352 233 352 q 286 310 254 352 q 349 237 293 286 l 354 239 l 361 239 l 361 234 l 367 234 l 367 237 l 361 245 l 361 263 q 364 265 361 265 l 361 271 l 361 273 q 367 279 362 279 l 367 268 l 372 268 l 375 294 l 375 302 l 372 307 l 367 305 l 364 305 l 364 318 l 370 318 l 370 313 l 375 313 l 375 326 q 364 331 364 326 q 372 334 370 334 l 372 339 l 367 339 l 367 347 l 370 347 q 377 345 375 345 l 377 349 q 375 357 377 357 l 377 370 l 377 381 l 375 386 q 380 391 380 386 l 375 394 q 382 452 382 439 l 377 460 l 380 460 l 385 457 l 385 463 l 382 473 q 388 484 385 484 l 385 488 q 388 496 385 491 q 385 505 388 499 l 391 557 l 385 581 q 388 602 388 591 l 395 602 l 393 614 q 404 675 398 619 l 398 675 l 398 680 l 404 688 l 398 696 l 398 701 q 406 707 398 707 l 406 714 q 409 725 406 720 q 406 728 409 728 l 409 741 l 406 753 q 414 770 414 756 q 406 780 408 770 q 409 788 409 785 q 404 793 404 788 q 406 795 406 793 l 382 798 q 377 793 382 793 q 372 798 377 798 l 364 798 l 367 793 l 367 790 q 354 793 358 790 q 346 790 351 793 q 312 793 323 793 l 301 790 l 296 793 q 277 783 277 787 l 277 696 q 270 662 277 690 q 273 588 273 608 l 267 586 l 264 586 q 252 633 258 586 l 254 638 q 249 659 254 643 l 252 665 q 243 793 246 689 q 238 801 241 801 l 225 798 q 222 806 222 804 l 173 806 l 173 804 l 186 801 l 186 795 l 183 795 q 110 790 124 795 q 99 793 105 793 q 73 790 96 793 q 44 838 56 802 l 47 843 q 10 856 39 853 q -6 877 10 867 q -19 916 -6 884 l -19 919 q 5 935 -19 923 l 5 937 l -1 945 l -1 948 q 44 964 13 964 l 170 964 q 259 974 214 964 q 264 972 264 974 l 283 974 l 312 974 q 359 977 334 974 m 566 943 q 572 937 567 937 l 579 937 l 579 943 l 566 943 m 600 911 l 608 911 q 603 906 608 906 l 600 906 l 600 911 m 535 644 l 535 633 l 540 633 l 543 646 l 543 649 l 540 649 q 535 644 535 648 m 561 644 l 564 644 l 564 641 q 558 635 564 635 l 556 635 l 556 638 q 561 644 557 644 m 553 623 l 556 623 q 561 617 561 622 l 556 614 l 553 614 l 553 623 m 503 444 l 503 436 l 509 436 l 509 444 l 503 444 m 99 399 l 99 391 l 113 391 l 113 397 l 99 399 m 110 389 l 110 386 q 115 376 115 380 l 117 376 l 117 378 q 110 389 113 389 m 133 357 l 133 355 q 146 339 133 339 l 146 342 q 133 357 137 357 m 498 300 l 496 286 l 500 284 q 503 286 500 286 q 500 300 500 291 l 498 300 m 138 284 l 138 281 q 146 271 142 271 l 146 276 q 138 284 146 280 m 149 268 q 157 250 157 257 l 162 250 q 152 268 159 268 l 149 268 m 367 265 q 372 239 372 243 l 375 239 l 375 252 l 372 265 l 367 265 z "},"K":{"ha":657,"x_min":5,"x_max":747,"o":"m 168 1151 q 192 1120 186 1140 q 235 1068 223 1120 l 241 1065 l 262 1086 l 272 1086 q 302 1059 302 1062 l 302 1053 l 287 961 l 281 961 l 275 964 l 272 949 q 278 943 273 943 l 278 955 l 281 955 q 287 949 287 954 l 284 933 l 278 933 l 278 939 l 272 939 l 272 930 q 262 909 272 920 l 262 903 q 272 884 265 884 l 272 890 l 278 890 l 281 878 q 272 860 278 860 l 272 876 q 260 857 268 876 q 262 848 262 851 l 272 854 l 278 851 l 275 836 l 278 814 l 272 811 l 269 811 l 262 814 q 269 832 269 824 l 269 842 q 248 839 256 839 l 254 829 l 254 793 q 248 787 254 787 q 244 789 248 789 l 244 768 l 235 768 l 232 732 q 238 722 238 732 q 370 848 245 722 q 422 882 376 848 l 428 882 l 428 878 q 410 854 410 863 l 410 851 l 412 851 q 465 894 447 893 l 477 888 l 513 903 l 513 909 l 507 918 l 507 930 q 538 952 524 930 l 538 955 l 535 955 l 529 952 l 526 958 q 541 970 541 962 l 553 970 q 593 939 587 952 l 593 933 l 590 915 q 612 897 590 899 l 612 894 q 581 869 591 869 l 581 863 l 584 863 l 593 869 l 596 869 l 602 866 q 618 876 602 873 l 618 872 l 575 836 l 575 832 l 578 832 q 661 882 644 882 l 667 878 q 694 884 673 884 l 694 882 l 701 882 q 731 903 701 891 l 734 909 q 728 915 728 909 l 728 918 l 734 918 q 747 903 734 914 q 725 882 739 903 q 673 832 694 859 q 633 799 667 832 q 600 771 601 777 q 602 768 602 771 q 569 750 593 768 l 569 734 q 557 707 557 723 q 559 606 559 623 q 541 575 559 585 q 535 557 541 557 q 519 600 526 557 l 519 640 q 517 692 519 656 l 511 692 q 505 682 511 682 l 498 682 l 492 686 q 465 649 484 659 l 450 649 l 452 643 q 431 609 431 631 l 434 609 l 434 603 l 425 603 l 425 609 q 418 603 418 608 q 422 593 422 597 q 394 585 404 589 l 397 578 l 394 560 q 477 391 421 488 q 486 364 486 367 l 480 364 l 471 370 l 465 370 q 489 336 473 349 l 486 352 l 486 361 l 489 361 q 513 315 503 342 q 505 312 507 312 q 535 251 524 251 l 535 248 l 532 241 q 566 208 561 208 l 563 201 l 563 199 l 569 189 l 566 174 q 578 165 578 173 q 575 156 575 159 l 581 159 l 584 159 q 624 92 624 104 l 640 92 q 682 27 661 64 q 691 18 686 27 q 688 9 688 12 q 694 3 694 8 l 694 0 q 682 -13 690 0 l 664 -13 q 602 43 664 -5 l 596 45 l 590 45 l 590 43 l 600 31 l 600 27 l 596 27 q 559 45 568 27 l 559 49 q 572 55 572 49 q 557 79 559 55 l 535 79 q 529 88 529 79 l 523 88 l 523 85 l 532 70 l 532 27 l 538 18 q 532 12 532 17 l 532 -31 q 513 -111 523 -111 q 489 79 501 -111 q 434 146 434 113 q 388 214 412 165 q 351 266 368 224 q 339 272 347 266 l 336 272 q 339 156 339 188 q 321 101 330 101 q 302 251 302 101 q 296 309 300 257 l 299 309 q 262 395 299 347 q 244 422 244 417 l 238 422 l 241 416 l 241 413 q 189 355 213 384 l 192 342 q 183 302 189 319 l 186 288 q 180 254 180 255 q 186 233 180 248 q 146 174 186 197 q 149 165 149 168 l 155 168 l 159 162 l 159 119 q 134 107 159 116 l 131 79 q 134 67 134 74 q 103 27 126 62 q 100 31 100 27 q 82 15 96 31 l 70 15 q 66 18 66 15 l 60 15 l 58 15 q 45 43 45 19 l 45 116 q 48 144 45 127 l 45 150 q 60 199 45 180 l 60 211 q 58 208 58 211 q 12 239 12 208 q 9 263 9 251 l 9 296 q 5 309 9 304 l 12 321 q 9 349 9 338 q 24 355 16 355 l 24 367 q 9 376 9 370 l 21 404 l 18 410 l 21 425 q 15 407 15 425 l 9 407 l 9 429 q 15 435 9 435 q 21 429 16 429 l 27 429 q 39 444 27 436 l 39 447 q 21 459 30 447 l 24 453 q 18 447 24 447 l 12 447 q 24 585 15 536 q 30 597 30 585 q 24 603 24 597 q 33 609 24 609 l 27 618 l 27 633 l 45 646 l 45 649 q 33 673 40 673 q 45 719 33 681 l 52 716 l 54 716 l 54 719 l 42 732 q 60 753 60 747 q 54 762 54 753 q 48 753 48 762 l 42 753 l 42 771 q 48 795 42 784 q 45 799 45 795 q 54 802 52 802 l 54 811 l 52 817 q 66 845 58 818 q 52 854 52 848 l 52 857 q 54 860 52 860 l 52 866 l 52 888 l 54 888 l 60 884 l 64 890 q 58 897 58 890 l 58 903 l 60 918 l 54 921 q 76 973 54 973 q 100 991 76 978 q 119 1108 100 1036 l 116 1114 q 168 1151 138 1151 m 52 312 q 42 288 47 295 l 42 284 q 58 300 46 284 l 58 306 q 52 312 58 312 m 12 288 q 15 278 15 281 l 21 278 l 21 281 q 18 290 18 288 l 12 288 m 517 290 l 526 290 q 519 284 526 284 l 517 290 m 538 269 l 541 263 l 541 260 l 538 260 q 532 266 532 260 l 538 269 m 581 201 l 584 195 l 578 193 l 575 193 l 575 195 q 581 201 576 201 m 563 116 l 563 113 q 569 107 564 107 l 572 107 l 572 116 l 563 116 z "},"L":{"ha":266,"x_min":9,"x_max":245,"o":"m 115 1028 l 136 1028 q 161 993 157 993 l 161 987 q 155 966 161 979 q 158 958 158 960 l 172 974 l 191 966 l 196 968 l 201 966 q 212 968 206 968 q 245 939 245 949 l 245 936 q 223 841 229 880 l 234 814 q 218 757 234 789 q 220 719 220 723 q 215 689 218 693 l 218 673 l 218 665 q 215 662 218 662 q 231 640 215 652 q 218 488 231 549 l 220 472 q 207 420 214 420 q 201 415 201 420 q 210 380 203 386 l 210 374 q 193 296 201 368 q 188 290 188 295 q 199 274 191 290 l 199 244 q 182 171 199 194 l 188 168 q 191 171 188 171 l 193 165 l 193 146 q 188 141 193 141 l 191 122 l 191 117 l 182 117 l 182 109 q 191 103 191 109 q 193 52 191 81 q 188 3 191 3 q 172 -5 179 3 l 155 -5 l 153 -19 q 155 -24 153 -24 q 142 -100 151 -100 q 117 11 127 -100 q 115 16 115 11 l 109 14 q 93 33 103 30 l 96 46 l 96 73 q 98 119 96 87 l 96 119 q 82 100 92 119 l 71 98 l 66 106 l 60 103 q 44 114 58 103 q 25 92 28 92 l 22 92 q 9 111 9 106 q 17 228 17 222 l 20 228 q 17 236 17 233 q 28 271 23 264 q 22 277 22 271 l 22 304 q 33 420 33 383 l 36 420 q 33 429 33 426 q 41 475 38 434 q 36 483 36 475 q 47 608 36 509 l 44 621 q 50 640 46 640 q 47 648 47 646 q 58 765 47 725 l 55 770 q 58 773 55 773 l 55 787 q 68 890 55 814 q 66 936 66 918 l 71 939 l 74 939 l 79 936 q 87 963 87 958 l 87 990 l 115 1028 m 210 486 l 210 475 l 212 475 l 212 486 l 210 486 m 207 467 l 207 450 l 210 450 l 212 469 l 212 472 q 207 467 207 471 m 44 136 l 44 125 l 47 125 l 47 136 l 44 136 z "},"M":{"ha":852,"x_min":7,"x_max":865,"o":"m 81 996 l 89 996 l 89 991 l 86 985 l 92 983 l 94 983 q 100 991 94 991 l 111 991 l 116 988 q 121 996 116 996 l 124 996 l 135 983 l 146 991 l 151 991 l 151 988 q 149 980 149 983 l 154 983 l 162 983 q 178 964 162 979 q 200 934 184 934 q 208 926 206 926 l 205 920 q 214 893 214 909 q 208 888 208 892 q 211 877 211 883 l 208 877 q 224 839 216 852 l 238 842 l 241 842 q 243 839 243 842 l 249 842 l 254 842 q 311 766 294 823 q 328 717 328 722 q 325 695 325 698 q 355 616 325 688 q 390 530 368 530 q 439 595 433 595 q 477 663 440 610 q 498 692 490 666 q 542 720 534 720 l 539 725 l 539 728 q 558 752 552 736 l 564 755 l 574 755 l 572 749 l 572 739 l 580 739 q 623 771 605 771 q 626 768 623 768 q 653 787 640 784 l 653 782 q 629 752 648 782 l 629 747 l 637 752 l 640 752 l 640 744 q 631 739 631 744 l 648 739 q 677 777 648 752 q 732 836 712 836 l 729 842 l 729 844 q 767 885 755 880 q 821 945 767 893 q 851 969 821 949 l 859 969 q 865 956 859 962 q 840 915 844 925 q 800 882 812 901 q 816 869 812 880 l 813 852 l 816 852 l 821 855 l 824 850 l 824 844 q 794 774 809 823 q 810 755 804 771 q 802 644 808 665 l 805 638 q 791 554 800 578 q 794 532 794 544 l 791 532 q 794 530 791 530 q 783 454 790 454 l 786 448 l 786 443 q 778 427 778 437 q 783 421 783 426 q 762 397 783 409 l 762 394 q 770 380 762 380 l 770 370 q 762 364 770 364 l 762 361 l 767 353 q 759 299 764 317 q 772 272 759 286 q 756 248 763 263 l 759 234 l 753 223 q 756 204 756 212 q 751 188 751 195 q 753 185 753 188 l 748 182 l 753 139 q 748 115 751 134 q 753 71 753 79 l 745 66 q 743 68 745 68 l 743 52 l 745 52 l 745 63 l 751 63 q 753 44 751 55 q 734 14 753 27 q 710 20 717 20 l 707 20 q 713 -2 713 3 q 694 -83 694 -2 q 677 -168 684 -83 l 669 -173 q 659 -157 664 -173 q 672 -78 659 -145 l 669 -73 q 672 -70 669 -70 l 669 -56 l 669 -10 q 661 -7 667 -10 q 645 -13 652 -13 q 634 3 640 3 l 631 3 l 621 -5 q 604 6 608 6 l 607 20 l 607 39 l 612 39 l 612 33 l 615 33 l 615 50 l 607 50 l 607 55 q 610 58 607 58 q 607 60 610 60 l 610 74 l 610 85 l 612 85 l 618 82 l 621 101 q 607 128 614 101 q 612 136 610 136 l 610 142 l 610 172 q 615 177 610 177 l 610 188 q 612 201 612 191 q 604 234 606 201 l 607 245 l 604 250 q 610 283 610 269 l 610 286 l 615 286 l 615 280 l 623 280 q 640 291 635 280 q 631 307 636 307 l 634 321 q 618 342 634 332 l 618 359 q 629 372 627 372 l 626 378 l 626 405 l 631 405 l 631 397 l 634 397 q 640 408 634 401 l 631 418 l 631 424 q 642 440 637 424 l 637 448 l 637 454 q 648 492 648 470 q 645 500 645 497 l 650 503 l 648 508 l 648 522 q 637 532 637 522 l 645 546 l 645 551 l 642 557 q 566 467 629 557 q 536 435 536 444 l 536 367 q 528 340 536 357 q 515 237 524 237 q 501 383 507 237 l 496 383 q 455 315 472 334 q 431 269 455 311 q 420 242 431 256 q 436 210 420 236 q 412 182 433 210 q 382 223 387 223 l 371 223 q 366 215 371 215 l 344 245 l 344 253 l 349 272 l 341 267 l 338 267 q 336 283 336 281 l 341 280 l 341 288 l 336 288 l 336 283 q 281 394 294 351 q 276 408 277 394 q 292 416 276 416 l 292 421 l 290 421 q 276 416 281 416 q 254 456 254 445 l 257 467 q 246 473 253 467 l 243 473 q 227 375 243 430 q 230 367 230 370 q 222 364 224 364 l 222 361 l 227 353 l 224 340 q 227 337 227 340 q 216 326 224 337 l 219 321 q 216 318 219 318 q 222 296 222 301 q 214 283 218 283 q 200 304 214 296 q 189 296 200 296 l 189 294 l 195 294 l 195 288 q 168 269 184 288 q 181 248 176 248 l 189 248 q 195 269 195 262 l 200 269 l 200 256 q 205 250 201 250 q 211 275 205 262 l 216 275 l 219 261 q 214 231 217 231 q 216 229 214 229 l 214 215 l 216 201 q 203 193 208 193 l 208 185 l 208 172 l 205 172 l 197 177 q 192 161 197 170 q 195 153 195 155 l 189 153 l 184 155 l 184 150 l 195 131 l 195 128 l 184 128 l 178 131 q 176 128 178 128 q 178 47 178 74 l 178 14 q 176 12 178 12 q 178 9 176 9 q 168 -37 176 -37 q 149 14 149 -26 l 149 52 l 143 52 q 108 12 143 12 l 105 12 q 100 17 100 12 l 100 28 q 121 115 100 36 l 121 125 l 119 125 q 108 123 114 123 q 102 134 102 130 q 75 115 87 115 q 70 120 75 120 l 67 120 q 62 96 62 102 l 62 90 q 40 79 50 90 l 24 82 q 21 79 24 79 q 16 85 21 85 l 10 82 q 7 90 7 87 q 29 215 19 189 l 29 218 q 26 229 29 229 l 32 304 q 24 323 24 321 q 26 440 24 336 l 35 467 q 26 481 26 476 q 37 519 35 493 q 32 524 32 519 q 40 554 32 533 l 37 565 l 40 570 q 37 578 40 573 q 43 619 41 614 l 37 638 l 45 692 q 43 695 45 695 l 54 814 l 51 820 q 56 844 56 840 l 54 850 q 70 945 62 909 q 67 953 70 947 q 81 996 72 994 m 802 871 l 802 863 l 808 863 l 808 871 l 802 871 m 580 763 l 583 763 l 583 760 q 577 755 583 755 l 574 755 l 574 758 q 580 763 575 763 m 612 733 l 615 733 q 621 739 621 733 l 621 741 q 612 733 616 741 m 547 709 q 574 720 562 720 l 574 722 l 572 736 l 566 736 q 547 709 547 714 m 574 695 l 574 690 l 577 690 q 602 703 591 700 q 599 714 599 708 l 596 714 q 574 695 581 695 m 526 690 l 526 687 l 528 687 q 545 703 536 687 l 539 706 q 526 690 530 690 m 561 625 l 561 619 l 566 619 q 574 630 570 619 l 566 630 q 561 625 561 629 m 558 611 l 558 608 l 564 608 l 564 616 q 558 611 558 616 m 333 587 l 333 578 l 344 578 q 347 587 344 581 l 333 587 m 178 522 l 178 519 q 184 505 184 512 q 195 516 188 505 l 195 527 l 192 527 q 178 522 183 522 m 637 511 l 640 511 q 645 505 645 510 l 645 503 l 642 503 q 637 508 637 503 l 637 511 m 775 503 q 767 494 775 494 l 767 492 q 772 486 768 486 l 775 486 q 778 500 775 495 l 778 503 l 775 503 m 254 494 l 262 489 l 262 500 l 260 500 q 254 494 254 499 m 314 383 q 328 375 319 383 l 330 375 l 330 378 q 319 389 330 382 q 314 383 314 388 m 303 383 l 303 378 q 319 361 303 374 l 319 370 q 303 383 315 380 m 178 345 l 176 340 l 176 334 q 186 323 180 334 q 195 326 192 326 l 195 329 q 178 345 191 329 m 203 323 l 203 315 q 214 321 210 321 l 214 323 l 203 323 m 181 307 q 173 310 176 310 l 173 304 l 189 304 l 189 313 l 181 307 m 195 229 l 197 215 l 195 215 q 197 207 197 210 l 203 207 q 208 229 203 229 q 205 245 205 233 q 195 229 195 242 m 178 218 l 178 212 l 189 212 l 189 218 l 178 218 m 105 188 l 105 182 q 111 188 111 182 l 111 193 q 105 188 105 193 m 737 6 l 743 6 l 743 -5 q 737 -10 743 -10 l 737 6 m 743 -32 q 751 -73 749 -32 q 737 -48 747 -73 l 737 -37 q 743 -32 738 -32 z "},"N":{"ha":688,"x_min":0,"x_max":709,"o":"m 669 1036 q 683 1019 669 1029 l 683 1010 l 697 1013 q 709 996 697 1010 l 709 981 q 677 804 695 960 q 657 659 667 791 q 646 627 646 635 q 649 618 646 618 l 629 507 l 629 487 l 634 478 l 626 467 l 626 464 q 606 347 626 386 l 606 338 q 609 335 606 335 q 603 270 603 304 q 606 267 606 270 l 600 267 l 600 258 q 606 267 606 258 l 612 267 l 612 264 l 603 247 q 609 241 609 246 l 609 224 l 600 212 q 606 195 606 203 q 589 153 589 159 l 591 141 q 580 96 587 96 l 583 90 q 577 52 577 56 q 583 30 583 42 l 583 24 q 551 4 569 4 l 546 7 q 517 1 533 1 q 506 4 507 4 l 506 1 q 523 -36 506 -13 q 529 -47 523 -41 q 523 -54 529 -54 q 497 -10 513 -45 q 500 1 500 -5 q 486 16 486 1 l 483 16 l 480 4 l 483 -10 l 480 -10 q 477 -7 477 -10 q 460 -19 473 -7 q 423 75 446 -5 q 389 161 412 89 q 334 284 361 210 l 329 284 l 326 270 l 326 190 q 323 113 326 165 l 317 110 l 315 110 q 294 321 303 110 q 260 458 294 383 q 231 532 231 515 q 240 538 231 538 l 240 544 q 217 564 217 556 q 197 604 209 604 q 200 587 200 589 q 160 233 179 233 l 165 190 q 163 181 163 184 q 172 172 168 181 l 169 138 l 172 127 q 169 124 169 127 q 151 130 159 130 q 155 90 155 94 l 143 70 q 149 64 149 69 l 143 56 l 143 52 q 160 21 157 52 l 155 18 q 140 30 140 27 q 125 -7 125 30 q 111 -76 125 -45 q 103 -99 109 -99 q 94 -90 98 -99 l 94 -64 q 92 -50 94 -56 l 94 -33 q 92 44 94 -26 q 83 75 83 44 l 83 81 l 75 81 l 75 73 l 66 73 q 49 81 51 73 l 49 98 q 52 101 49 101 q 26 132 52 132 q 3 184 26 159 q 0 195 0 189 q 9 258 0 227 l 9 264 q 17 481 17 370 q 23 530 23 519 q 20 538 23 532 q 40 699 29 669 q 37 701 40 701 q 77 913 37 757 q 97 956 77 942 l 109 956 q 157 921 129 956 l 160 921 l 157 927 q 163 941 157 941 q 160 949 160 947 q 169 967 163 967 l 183 964 l 183 981 q 189 987 184 987 l 191 981 l 189 964 l 203 964 l 209 961 q 217 972 213 972 l 240 927 l 237 927 q 243 913 243 918 q 237 867 243 888 q 283 827 237 859 q 340 673 311 724 q 372 624 340 667 q 414 527 372 620 l 414 521 l 409 518 q 406 527 406 524 q 400 518 400 527 q 403 470 403 479 q 400 467 400 470 q 406 461 406 466 l 400 458 q 397 461 400 461 l 394 450 l 406 450 l 406 455 l 414 455 q 429 427 414 450 l 429 418 q 420 415 423 415 l 423 410 l 417 401 q 426 398 423 398 l 426 395 l 423 390 q 434 381 434 388 l 417 364 q 426 355 417 359 q 429 358 426 358 q 446 324 446 326 q 454 327 452 327 l 454 332 l 449 332 q 460 347 460 340 q 474 541 465 360 q 480 547 480 541 q 477 564 480 549 q 494 627 477 586 l 489 635 l 489 650 q 497 684 489 662 l 494 690 q 506 709 502 709 l 509 690 q 503 684 503 689 q 511 667 511 673 l 517 667 l 520 684 q 511 690 511 684 q 526 701 520 701 l 526 715 l 532 724 l 532 761 q 560 850 545 781 l 566 852 q 574 844 566 848 l 577 855 l 580 855 l 589 850 l 597 850 q 626 949 606 850 l 626 956 l 629 956 l 634 953 q 643 984 643 983 q 637 989 637 984 q 669 1036 640 1007 m 517 784 l 520 784 l 523 767 q 511 741 517 767 l 509 741 q 517 784 511 784 m 506 741 q 511 735 511 741 l 511 730 q 506 735 506 730 l 506 741 m 506 647 q 500 635 506 642 q 511 633 507 635 l 514 638 q 511 647 511 644 l 506 647 m 374 584 l 374 581 q 380 575 375 575 l 380 578 q 374 584 380 584 m 383 570 l 383 564 q 391 547 391 555 l 394 547 l 394 553 q 383 570 388 570 m 280 438 l 280 435 q 283 427 283 430 l 289 430 q 286 438 286 435 l 280 438 m 412 421 l 412 418 l 420 418 l 420 427 l 417 427 q 412 421 412 426 m 446 295 l 446 278 l 452 278 l 452 295 l 446 295 m 449 210 l 449 207 q 452 190 449 205 l 446 190 l 446 186 l 452 186 q 454 190 452 190 q 469 161 469 168 l 466 161 q 460 170 460 161 l 457 170 q 454 161 457 167 q 474 106 466 145 l 483 106 q 492 130 483 117 l 489 136 l 492 150 q 466 190 487 152 l 469 204 q 449 210 457 210 m 417 138 l 414 118 l 420 115 l 426 115 q 429 132 426 128 q 417 138 425 132 m 426 113 l 426 104 l 431 101 l 431 104 q 429 113 429 110 l 426 113 m 431 92 q 452 33 431 85 l 460 33 l 457 38 l 463 41 q 480 18 480 24 l 483 18 l 483 26 l 477 35 q 486 64 484 43 l 477 58 l 469 58 l 457 73 l 454 73 l 454 70 q 457 61 457 64 l 452 61 q 437 92 441 61 l 431 92 m 483 -22 l 486 -22 l 486 -33 q 483 -36 486 -36 l 486 -42 q 477 -50 486 -46 l 474 -50 q 466 -33 466 -47 q 474 -28 466 -28 l 483 -28 l 483 -22 z "},"O":{"ha":629,"x_min":3,"x_max":602,"o":"m 366 979 l 368 972 q 371 975 371 972 q 401 970 397 970 l 407 972 q 431 958 431 968 l 440 964 l 443 958 l 449 960 q 479 930 479 949 l 485 934 q 538 871 486 928 q 595 733 595 791 q 599 722 599 733 l 595 673 q 599 629 599 647 q 589 623 589 629 q 602 614 602 623 q 593 569 599 585 l 595 563 q 581 548 595 548 q 587 518 583 526 q 574 485 579 518 l 581 485 l 581 479 q 551 368 567 404 q 515 270 528 347 q 497 135 507 135 q 482 81 486 135 l 473 75 q 467 81 467 75 q 470 138 470 129 l 467 150 q 470 168 470 155 l 467 174 q 470 186 470 179 l 470 192 l 464 192 q 428 144 453 144 q 407 69 409 107 q 371 24 390 54 q 366 31 366 24 q 341 -3 356 29 l 315 -26 q 296 -20 304 -20 l 302 -29 q 296 -35 302 -35 l 288 -35 q 281 -29 281 -35 l 305 7 l 302 7 l 285 -3 q 183 18 224 -3 l 180 18 q 171 16 177 18 q 132 28 165 16 q 114 -131 120 -52 l 105 -137 l 99 -137 q 90 -110 94 -137 l 93 -98 q 96 3 93 -84 q 48 171 92 88 q 6 267 48 212 l 3 302 l 3 317 l 9 327 q 6 336 9 336 q 16 446 16 384 q 21 452 16 452 q 18 455 21 455 q 45 515 34 515 l 52 515 q 60 512 57 512 q 69 539 69 534 q 60 559 60 541 q 45 527 54 559 l 42 527 l 42 533 l 52 566 q 42 602 48 585 q 87 718 56 665 l 177 835 q 228 904 183 855 q 366 979 298 979 m 422 799 q 443 769 439 769 l 443 772 l 440 790 l 449 805 l 449 808 q 440 814 449 814 q 422 799 422 808 m 273 590 l 267 590 q 260 595 260 590 q 258 680 258 656 q 237 635 254 680 q 231 625 233 625 l 234 620 q 216 602 231 602 l 216 599 l 222 599 l 222 587 q 201 473 213 553 q 192 476 195 476 l 192 461 q 189 458 192 458 q 192 455 189 455 l 189 440 q 192 393 192 410 l 189 393 q 203 311 195 375 l 198 309 l 201 302 l 201 300 l 198 294 q 213 264 203 294 l 210 258 q 252 171 235 171 q 275 165 252 165 q 383 270 311 165 q 404 315 404 313 l 428 383 l 422 422 q 437 455 428 455 q 446 452 443 452 l 449 458 q 446 461 446 458 l 440 458 l 434 458 q 422 497 434 475 l 428 497 l 434 494 l 434 512 q 419 533 429 512 q 434 566 434 550 q 425 572 425 566 l 425 575 l 434 575 l 434 578 l 428 587 q 434 593 434 587 q 425 605 429 605 l 428 620 l 428 623 q 410 631 425 623 l 413 637 l 410 652 q 413 665 413 658 q 407 671 407 665 l 407 673 l 410 680 q 401 703 404 680 q 362 784 376 784 q 285 650 285 741 q 273 590 285 590 m 87 616 l 84 610 l 84 608 l 87 608 q 93 614 93 608 l 87 616 m 245 620 l 252 620 l 252 610 q 245 605 252 605 l 243 605 l 245 620 m 243 602 l 245 595 l 245 593 q 239 587 245 587 l 237 593 l 237 595 q 243 602 237 602 m 42 500 l 39 494 l 39 488 l 42 488 q 48 497 42 497 l 48 500 l 42 500 m 192 491 l 192 482 q 198 488 198 482 l 192 491 m 234 117 l 234 111 l 243 102 l 258 105 l 267 105 q 269 114 267 109 l 264 117 l 258 114 l 252 117 q 239 114 246 114 l 234 117 m 320 43 l 311 28 l 315 28 q 326 39 319 28 l 320 43 z "},"P":{"ha":576,"x_min":0,"x_max":555,"o":"m 122 1032 l 127 1032 q 158 967 158 1005 q 197 988 176 973 q 215 991 205 988 l 218 985 l 213 978 l 233 978 q 257 981 243 978 q 324 952 262 981 q 355 947 331 952 l 368 949 q 407 947 391 947 l 415 947 q 485 905 466 934 q 537 789 537 826 q 534 781 537 786 q 547 685 540 724 l 553 687 l 555 687 l 555 685 q 532 627 532 633 q 534 433 534 494 l 529 431 l 524 431 q 516 438 520 431 q 509 545 516 454 q 449 485 475 495 q 446 488 449 488 q 454 508 454 505 l 449 508 q 444 498 449 498 l 441 498 l 436 500 q 433 495 436 495 l 436 490 q 418 472 436 488 l 405 475 q 371 438 380 446 q 374 431 374 433 l 366 425 l 348 425 q 345 428 345 425 q 317 412 317 422 q 319 368 319 382 l 319 296 q 306 228 319 233 l 303 228 q 290 288 297 228 q 275 397 287 293 l 273 397 q 257 394 259 394 q 200 410 215 394 q 179 431 184 420 q 161 444 172 431 q 158 435 161 441 q 171 420 163 435 l 171 418 l 169 405 q 176 399 176 405 q 158 368 176 381 q 153 376 153 368 q 155 391 153 378 l 153 397 l 155 412 l 151 415 q 148 387 151 396 q 151 366 151 376 l 148 366 q 151 363 148 363 l 148 350 l 148 340 l 140 340 l 140 332 l 145 334 l 148 334 l 151 309 l 151 306 l 148 293 l 142 293 l 142 298 l 138 298 l 132 275 l 132 264 q 142 239 140 264 l 148 239 l 148 228 q 142 236 142 228 l 140 236 l 138 223 l 138 205 q 125 199 138 199 l 125 195 l 130 186 q 127 158 127 164 q 130 155 130 158 q 125 151 125 155 q 130 148 130 151 q 125 132 125 139 l 125 119 q 127 111 125 111 l 125 98 l 125 60 l 127 44 q 111 28 125 35 q 106 44 106 28 l 101 44 l 101 28 l 98 28 l 91 34 q 85 28 91 28 l 88 23 l 88 20 l 85 20 l 81 23 l 78 18 l 78 16 q 91 10 86 16 q 98 13 96 13 q 104 7 99 7 l 98 -18 l 101 -24 l 98 -28 l 101 -41 l 88 -47 l 83 -44 q 75 -47 78 -47 l 62 -26 l 57 -28 l 47 -28 q 39 13 39 -28 l 41 18 q 37 34 37 28 l 39 39 q 37 47 39 41 q 44 106 37 52 q 41 117 41 111 q 44 127 44 121 q 21 148 40 127 l 21 142 l 16 142 q 10 155 16 147 q 13 163 13 161 q 0 197 5 163 l 0 212 l 7 270 l 5 286 q 10 384 10 352 l 5 397 q 18 654 12 416 q 52 908 35 908 q 85 952 67 952 l 85 954 l 81 962 q 104 998 100 962 q 122 1029 109 998 l 122 1032 m 264 825 l 262 819 q 264 817 264 819 q 275 819 269 819 l 275 822 l 264 825 m 246 724 l 244 724 q 229 789 237 724 l 226 789 l 189 760 q 169 708 174 760 q 161 701 161 708 q 174 583 174 620 l 179 581 q 345 635 243 581 q 358 682 352 682 l 361 682 l 361 674 l 363 674 q 374 734 374 726 l 374 736 l 368 734 l 366 734 l 371 775 l 361 791 l 311 802 q 286 796 289 796 q 280 802 286 802 l 267 802 q 254 729 262 802 l 246 724 m 361 713 l 366 713 l 366 701 q 361 695 366 695 l 361 713 m 358 671 l 358 659 l 361 659 l 361 671 l 358 671 m 205 495 q 176 498 182 498 l 176 488 q 197 479 178 479 l 208 479 q 218 485 208 485 q 220 479 218 479 q 267 503 267 486 l 264 503 q 205 495 240 495 m 151 444 l 151 428 l 155 428 l 153 444 l 151 444 m 155 358 l 161 358 l 163 347 l 158 345 l 155 350 l 155 358 m 155 319 l 163 319 l 163 303 q 158 298 163 298 q 153 303 153 298 l 153 306 l 155 319 m 166 314 l 174 314 l 174 309 q 169 303 174 303 l 166 303 l 166 314 m 155 293 l 161 293 l 161 286 l 155 286 l 155 293 m 142 283 l 148 283 l 151 272 l 145 270 l 142 275 l 142 283 m 153 243 l 161 243 l 161 233 q 155 228 161 228 l 153 228 l 153 243 m 10 130 l 16 130 l 16 119 l 10 119 l 10 130 m 7 111 l 13 111 l 13 91 l 7 91 l 7 111 m 23 109 q 26 106 23 106 q 18 83 23 83 l 16 88 q 23 109 16 108 m 5 85 l 10 85 l 10 67 l 18 73 l 21 73 l 21 54 q 16 50 21 50 l 13 50 l 13 52 q 16 60 16 57 l 10 62 l 10 50 l 5 50 l 5 85 m 16 3 q 21 -3 21 2 q 16 -8 21 -8 l 10 0 l 16 3 z "},"Q":{"ha":757,"x_min":-12,"x_max":774,"o":"m 532 1015 l 558 1015 q 576 994 576 1002 l 591 994 q 620 968 608 968 q 756 924 743 939 q 774 882 770 924 q 765 870 770 870 l 762 870 q 750 876 755 876 l 735 873 q 680 906 735 899 q 614 924 677 909 q 606 921 608 921 q 593 924 599 921 q 547 915 559 921 l 547 911 q 591 894 547 906 l 591 891 q 585 885 585 890 q 647 797 647 835 q 641 791 641 795 q 661 737 652 737 q 673 773 667 737 q 656 847 665 800 q 647 867 652 847 q 680 882 647 880 q 730 817 730 852 l 730 779 q 712 785 724 779 q 709 776 712 782 q 721 758 713 776 l 721 749 q 709 732 709 737 q 712 723 709 728 l 709 705 l 709 699 q 726 682 726 699 q 712 608 721 632 q 718 593 718 608 l 726 599 q 730 590 730 593 q 724 575 724 580 l 721 575 l 715 578 l 709 569 q 715 563 715 568 l 715 560 q 706 545 706 551 q 694 477 706 493 q 706 439 706 467 l 706 427 l 685 410 q 680 415 685 415 q 671 404 680 404 l 667 404 l 661 406 l 659 401 l 659 397 q 671 389 671 396 q 632 338 665 365 q 629 318 632 321 q 632 306 632 313 l 632 297 l 629 297 l 620 303 q 600 247 615 270 q 588 241 600 241 l 588 238 l 602 194 q 671 90 616 169 l 667 75 l 661 75 l 656 79 q 647 40 656 40 q 652 16 652 29 q 623 -1 652 -1 q 600 -4 612 -4 l 578 -1 q 602 -58 602 -50 q 573 -78 586 -78 l 558 -78 q 537 -176 547 -176 l 534 -176 q 514 -43 521 -176 q 454 61 475 61 q 431 64 443 61 q 393 40 407 40 l 393 37 l 399 37 l 399 31 l 328 5 q 295 -81 325 -81 q 280 1 280 -56 l 275 5 l 257 5 q 162 31 227 5 l 147 31 l 130 28 q 62 87 103 28 q 12 271 32 178 q 14 273 12 273 l 12 288 l 12 297 q 20 318 20 311 q -6 404 7 386 q -12 415 -6 415 q 26 528 16 528 l 23 534 l 23 536 q 38 549 38 545 l 59 602 q 79 673 68 621 q 106 705 79 690 l 103 720 q 144 770 106 720 l 142 776 q 165 820 165 808 l 153 814 l 151 820 l 168 835 l 171 835 l 171 826 l 174 826 q 186 832 181 832 l 186 841 q 177 847 177 841 l 206 873 l 210 873 q 230 859 230 866 q 254 882 237 859 q 251 894 251 888 q 345 932 312 932 l 357 941 l 360 941 l 375 939 q 443 971 375 959 q 449 965 444 965 l 534 985 l 534 989 l 532 989 q 484 983 500 983 q 514 998 484 989 q 532 1015 514 1006 m 425 773 l 422 767 l 422 749 q 404 625 422 625 l 399 622 q 387 673 390 622 l 387 682 q 390 708 387 696 q 387 737 387 724 l 387 767 l 378 767 q 372 755 378 755 q 369 758 372 758 l 372 764 l 372 767 q 334 720 368 767 l 330 720 l 330 726 l 336 734 l 336 741 q 269 654 304 722 q 233 602 262 654 q 159 463 192 559 q 147 395 151 431 q 165 318 147 370 l 168 318 q 248 356 186 318 q 257 353 254 353 q 192 271 257 338 q 177 250 192 257 q 248 205 212 220 l 254 208 q 295 182 263 194 q 313 176 295 176 q 375 238 313 179 l 378 244 l 378 250 l 354 268 l 354 273 q 372 286 354 279 q 384 282 377 282 q 399 297 386 297 l 395 303 q 419 315 395 307 l 422 309 l 428 312 l 443 309 l 443 312 q 410 362 435 334 l 410 371 q 422 383 410 376 l 428 383 l 446 371 q 452 377 452 371 q 440 389 448 377 l 449 389 q 467 380 449 382 q 481 368 467 368 q 502 386 481 372 l 508 383 l 532 421 l 526 421 q 564 501 564 490 q 558 528 558 524 q 573 545 558 545 q 555 575 573 551 q 549 599 549 597 q 555 604 555 599 q 543 637 547 604 q 541 640 541 637 l 543 661 q 519 687 534 661 q 475 752 505 696 q 425 773 450 773 m 321 702 l 325 696 l 316 690 l 316 696 q 321 702 317 702 m 301 667 l 307 667 l 307 661 q 292 643 296 643 l 292 649 q 301 667 301 663 m 665 415 l 665 410 l 667 410 q 673 415 673 410 l 665 415 m 136 342 l 144 342 l 144 347 l 142 347 q 136 342 136 347 m 210 155 l 210 149 l 218 149 l 218 155 l 210 155 m 227 146 l 230 140 l 230 135 l 221 123 q 262 117 237 117 l 266 123 l 266 125 q 230 146 245 146 l 227 146 z "},"R":{"ha":628,"x_min":0,"x_max":675,"o":"m 143 1078 q 157 1064 157 1076 l 162 1064 l 162 1070 l 168 1070 q 182 1036 174 1070 q 171 986 176 1029 q 185 966 174 977 q 179 932 179 940 q 188 930 185 930 q 243 958 224 945 q 275 961 259 958 q 277 952 277 955 l 283 952 q 288 964 283 956 l 302 961 q 359 972 354 966 q 493 935 451 962 q 566 871 565 895 q 619 756 619 804 q 622 751 622 756 q 610 709 620 709 l 613 697 l 596 633 q 580 608 588 629 q 560 600 569 600 q 557 602 560 602 q 538 577 538 583 q 541 574 541 577 q 535 569 535 574 l 535 566 l 541 557 l 535 555 l 532 555 l 532 560 l 529 560 q 501 476 501 551 q 498 412 498 447 q 487 398 493 399 q 476 423 476 414 l 476 446 q 462 498 476 498 q 395 454 441 492 q 364 434 395 447 q 345 418 364 428 q 333 401 342 407 l 381 331 l 372 331 q 328 389 372 339 l 322 392 l 322 387 q 409 272 396 304 q 442 216 424 260 q 476 151 454 208 l 476 149 l 473 143 q 484 121 481 143 q 481 109 481 116 q 513 59 500 109 q 543 12 543 41 q 549 6 549 11 l 549 3 l 541 3 l 543 -3 l 543 -5 l 541 -11 q 551 -20 551 -12 q 541 -42 541 -21 q 568 -64 549 -42 l 574 -64 q 580 -53 574 -53 q 591 -75 582 -70 l 588 -81 q 605 -92 591 -92 q 600 -109 605 -100 q 625 -129 608 -109 l 630 -125 l 635 -125 l 635 -129 q 633 -137 633 -134 q 644 -148 637 -137 l 644 -151 q 622 -162 640 -151 q 661 -210 636 -184 q 675 -238 661 -220 q 667 -246 675 -242 l 664 -246 q 622 -224 652 -233 q 566 -162 581 -187 q 546 -157 560 -162 l 543 -162 q 551 -168 551 -162 l 551 -176 q 521 -210 537 -197 q 498 -174 521 -204 q 493 -154 498 -165 l 487 -157 q 476 -151 480 -151 l 476 -145 l 479 -145 l 484 -148 l 484 -142 q 434 -75 484 -137 q 422 -70 430 -75 l 422 -159 l 426 -176 q 414 -229 422 -229 q 392 -182 392 -208 l 392 -174 q 375 -25 392 -25 q 355 39 363 39 q 361 45 361 39 q 350 59 361 50 l 353 64 q 350 73 350 71 l 336 73 q 328 84 328 80 l 319 84 l 313 81 q 308 98 308 87 l 313 98 q 294 129 313 108 l 297 135 l 288 135 l 291 140 q 263 174 288 152 q 238 216 263 180 q 224 238 236 229 l 227 244 q 199 292 199 262 q 176 319 176 300 l 171 319 q 165 314 165 319 l 165 311 q 179 300 174 311 l 179 275 q 168 224 179 224 q 159 233 168 229 l 157 233 l 159 218 l 159 193 l 154 185 q 168 146 154 159 q 157 90 164 132 l 151 90 q 149 22 151 87 q 132 0 144 22 q 106 -8 113 0 q 101 28 104 -2 q 104 62 104 43 l 101 62 q 92 59 95 59 l 90 64 l 92 76 q 87 84 90 84 l 92 151 q 84 154 90 151 q 64 143 64 151 l 64 115 q 56 93 64 95 l 50 93 q 37 154 43 144 q 22 149 27 149 q 20 160 20 153 l 12 154 q 0 163 12 161 q 17 267 0 205 q 14 269 17 269 q 25 302 17 293 l 20 311 l 22 339 l 14 353 l 17 364 q 14 373 14 370 l 17 378 q 14 389 14 383 q 25 409 25 403 q 20 414 20 409 l 20 418 q 37 465 24 446 q 31 488 31 484 q 45 566 37 507 q 42 574 42 572 l 50 580 l 47 585 l 47 591 q 56 625 56 601 l 47 636 l 47 642 l 59 644 l 50 656 q 53 659 50 659 l 50 672 l 50 681 q 59 686 50 686 l 59 697 l 53 706 l 53 720 q 75 753 53 739 q 67 779 67 766 q 70 795 67 781 q 67 815 67 806 q 75 818 73 818 l 73 829 q 79 857 73 841 l 75 868 q 81 902 75 876 l 79 907 q 92 964 87 921 l 95 964 l 92 969 q 109 1056 109 993 q 129 1064 120 1064 q 132 1061 132 1064 q 149 1067 140 1067 l 149 1073 l 143 1073 l 143 1078 m 196 1056 l 201 1053 q 196 1022 201 1050 l 191 1022 q 196 1056 191 1036 m 233 762 l 233 759 q 241 753 241 759 l 241 751 q 221 692 241 718 l 221 664 l 227 664 q 221 659 227 659 q 218 661 221 661 q 204 652 218 652 l 204 650 q 213 644 213 650 q 199 625 213 632 l 196 605 l 201 602 l 201 608 l 208 608 l 210 594 q 193 543 207 594 q 199 538 199 543 l 199 527 q 196 524 199 524 q 199 505 199 520 q 252 524 252 519 q 280 543 252 526 l 280 546 q 277 557 280 553 q 283 577 283 566 l 297 577 q 384 630 384 608 q 422 656 406 656 q 454 723 438 706 q 451 726 454 726 q 456 751 454 745 q 451 776 454 755 l 454 776 q 400 832 454 814 q 350 810 350 827 q 330 726 343 726 q 311 835 317 727 q 305 846 305 835 l 302 846 q 249 823 251 830 q 233 762 249 762 m 504 770 l 507 759 q 479 661 507 743 q 513 701 492 662 l 515 701 l 513 706 q 524 756 519 711 l 513 773 l 509 773 l 504 770 m 476 736 l 473 726 l 479 726 l 479 736 l 476 736 m 185 610 l 185 591 l 188 591 l 188 610 l 185 610 m 302 373 l 302 370 q 308 359 308 363 l 313 359 q 302 373 308 371 m 37 328 l 39 311 l 47 311 q 45 322 47 317 q 47 334 47 327 l 37 328 m 37 289 l 39 275 l 42 275 l 42 289 l 37 289 m 90 283 l 87 269 q 95 277 91 269 q 90 283 95 283 m 90 230 q 87 222 90 227 l 92 222 l 92 230 l 90 230 m 319 104 l 319 96 l 325 96 l 325 98 q 319 104 325 104 z "},"S":{"ha":594,"x_min":-90,"x_max":604,"o":"m 292 986 l 315 986 q 402 953 349 979 l 402 959 l 413 959 l 430 962 l 441 962 q 447 968 442 968 l 452 968 q 590 935 590 947 q 604 913 601 925 l 602 901 q 604 892 604 896 l 593 886 l 596 880 l 596 874 l 576 871 q 551 874 566 871 l 545 871 q 526 874 534 874 l 511 871 l 517 863 q 435 850 502 850 q 388 838 435 845 q 366 747 382 747 q 357 718 366 718 q 340 784 352 718 q 326 793 335 784 q 267 757 301 793 q 182 724 257 757 l 180 724 q 228 682 182 711 q 261 663 228 675 q 332 612 261 653 l 334 612 l 334 606 l 326 606 q 320 612 320 606 l 315 609 q 298 615 303 615 q 281 606 298 609 q 228 624 251 621 q 216 630 228 628 q 208 627 211 627 q 399 530 225 613 q 425 500 417 520 l 425 494 q 418 482 418 487 q 455 431 455 437 q 506 382 455 410 q 548 322 548 355 q 551 319 551 322 q 528 304 528 316 q 557 232 551 262 q 537 180 548 194 q 526 126 529 162 l 514 114 q 500 135 500 119 l 500 168 l 494 168 q 450 108 488 168 q 413 66 413 85 q 396 -37 413 1 q 385 -88 396 -88 q 379 -82 379 -88 q 366 62 379 -39 l 357 62 l 349 56 q 340 66 349 61 l 208 2 q 185 8 203 2 q 177 5 180 5 l 163 8 q 123 -13 130 -3 l 123 -49 q 121 -61 123 -56 q 123 -64 121 -64 q 101 -212 118 -139 l 96 -215 q 84 -191 84 -202 l 84 -134 q 64 -22 84 -22 q 50 -7 61 -22 q 53 20 53 12 q -28 62 -28 31 q -43 114 -28 67 q -17 123 -43 121 l -17 126 q -71 183 -71 178 q -65 214 -65 206 q -71 220 -71 214 l -68 226 l -85 250 l -82 262 q -85 289 -85 279 l -82 295 q -87 319 -87 311 l -85 326 q -90 340 -90 335 q -87 343 -87 340 l -73 340 l -56 355 l -54 355 q 104 237 37 302 q 160 189 109 229 l 163 189 q 248 235 172 189 q 283 262 262 235 q 329 286 324 286 l 329 292 q 152 440 289 329 l 149 440 q 138 404 147 404 q 115 479 125 404 q 67 545 67 524 q 11 663 47 545 q -9 696 1 663 l -3 709 l -6 715 q 70 865 2 779 q 113 901 81 877 l 118 901 l 118 892 l 126 892 q 132 905 126 905 q 138 899 133 899 l 140 899 q 177 928 143 899 q 180 926 177 926 q 253 962 217 949 l 258 959 q 292 986 271 986 m 258 220 l 264 220 q 278 232 277 226 l 278 235 q 258 220 260 229 m 180 180 q 194 174 189 174 q 224 189 198 174 l 224 201 l 222 201 q 180 180 180 195 m 349 68 l 349 66 l 351 66 q 357 72 357 66 l 357 78 q 349 68 353 78 m 5 66 l 14 54 l 14 39 q 42 62 28 39 q 22 68 28 68 l 5 66 z "},"T":{"ha":307,"x_min":-104,"x_max":728,"o":"m 12 1164 l 88 1164 q 161 1152 161 1164 q 195 1160 182 1154 q 471 1124 410 1148 q 584 1097 584 1111 q 728 1069 728 1084 l 728 1066 l 722 1066 q 706 1069 711 1066 l 688 1066 l 675 1066 q 657 1072 667 1066 l 639 1069 q 630 1072 633 1072 l 630 1066 l 621 1066 l 611 1072 q 605 1063 611 1063 l 596 1069 l 587 1069 l 578 1063 l 547 1063 q 513 1042 525 1042 l 513 1044 q 449 1023 480 1029 q 410 986 427 986 l 370 986 l 351 830 q 336 800 341 830 l 330 800 q 315 888 323 800 l 315 901 q 317 983 315 926 l 309 983 q 290 956 290 972 l 290 892 q 278 880 290 887 l 272 882 l 266 846 q 269 842 266 842 q 260 806 266 806 l 262 791 l 256 769 l 260 739 q 241 668 248 668 l 244 656 l 241 635 l 244 613 q 229 506 238 559 l 232 500 q 220 435 232 494 q 223 427 220 433 l 217 378 q 220 366 220 372 q 214 347 214 355 l 214 341 q 217 329 214 334 q 214 319 214 323 l 217 304 q 211 267 211 283 l 211 212 q 205 206 211 206 q 193 246 197 206 q 189 249 189 246 l 193 255 l 186 258 l 183 258 l 180 246 q 186 237 183 237 q 180 216 180 224 l 183 203 l 180 197 q 183 173 183 180 q 168 56 172 129 q 153 -54 159 56 l 146 -57 l 137 -57 l 137 -26 q 131 -2 137 -13 q 134 56 134 32 l 134 75 q 128 170 128 119 l 125 170 q 106 130 125 161 l 110 123 q 100 102 100 110 q 104 78 104 85 q 88 66 94 66 l 94 56 q 70 -118 77 11 q 52 -195 70 -175 q 33 -286 46 -286 l 27 -286 q 18 -268 18 -283 l 18 -256 q 24 -149 24 -157 l 24 -142 q 15 -136 15 -142 q 18 -127 15 -133 l 15 -115 q 24 -81 17 -88 l 24 -75 l 18 -75 l 18 -63 l 21 -45 l 18 -39 q 30 62 24 -39 q 21 68 21 62 q 27 185 21 94 l 18 191 q 36 329 28 296 l 33 347 l 33 356 q 43 399 39 399 l 39 414 l 39 423 q 45 451 39 431 q 43 460 43 457 q 45 469 45 467 q 43 473 45 473 q 58 536 43 485 q 55 555 55 553 q 61 579 55 560 q 58 589 61 583 q 61 623 61 609 l 61 653 q 67 656 67 653 q 64 665 64 662 l 73 674 q 70 684 73 677 q 98 928 85 841 q 100 980 98 938 q 94 983 94 980 l 88 980 q 73 1002 85 980 l 27 1002 q 21 996 21 1001 q 5 904 21 907 l -1 904 q -19 1004 -12 1004 q -56 1020 -56 1004 q -50 1048 -56 1027 q -58 1060 -54 1060 l -62 1060 l -83 1057 l -86 1063 l -80 1072 q -95 1087 -88 1072 l -95 1090 q -92 1093 -95 1093 q -104 1127 -104 1118 l -104 1136 q -95 1154 -98 1136 l -40 1154 q 12 1164 -1 1164 m 183 283 l 183 267 l 189 267 q 193 279 189 275 l 186 283 l 183 283 z "},"U":{"ha":657,"x_min":9,"x_max":654,"o":"m 201 1014 q 218 996 214 1014 l 224 1000 q 235 953 235 1000 q 224 851 224 871 q 229 825 229 832 q 221 656 221 764 q 250 590 245 656 l 253 575 q 221 412 227 469 q 224 360 224 385 q 210 334 210 355 l 210 332 q 218 326 218 332 l 218 308 q 210 302 218 302 q 218 273 215 295 q 215 264 215 267 l 224 258 l 233 258 q 357 319 357 286 q 395 380 378 340 q 410 401 399 392 q 433 473 410 420 q 441 511 433 490 q 439 523 439 517 l 441 523 q 439 526 441 526 q 453 566 444 566 q 462 564 459 564 l 465 570 q 462 578 462 575 l 456 575 l 450 575 l 450 584 q 459 610 450 591 q 453 616 453 610 q 462 627 458 616 q 456 633 456 627 q 473 674 459 674 l 479 674 l 477 680 l 477 683 l 485 683 l 485 688 l 477 688 l 477 683 l 471 683 q 465 692 465 683 q 485 753 465 730 l 485 761 q 496 810 485 786 q 514 869 508 869 q 532 863 524 863 q 541 903 532 903 l 546 903 q 570 892 559 892 l 578 898 q 584 886 584 898 l 590 886 l 590 909 q 598 918 590 911 q 622 976 598 976 l 633 985 q 645 970 637 985 l 645 959 q 654 924 646 924 l 642 842 l 648 828 l 645 822 l 648 810 q 602 581 622 667 q 587 514 594 514 l 587 500 q 566 369 587 479 q 570 355 570 364 q 564 337 564 345 l 566 317 q 561 311 561 316 l 564 299 q 532 180 552 229 q 534 178 534 180 q 520 154 524 178 l 517 154 l 514 160 q 526 178 514 178 l 526 180 q 514 183 519 180 l 509 174 l 509 160 q 523 137 522 142 q 517 131 517 136 l 517 113 q 491 96 504 113 l 488 96 q 471 102 481 102 l 471 113 l 473 128 l 471 128 q 453 87 467 128 q 424 44 431 44 q 412 -69 418 44 q 395 -96 403 -95 q 383 -78 390 -96 q 387 -46 387 -58 l 387 -41 q 369 20 369 -41 q 357 38 359 20 q 349 41 355 38 l 279 3 q 229 -5 246 -5 l 229 -12 q 247 -20 247 -14 l 247 -23 q 229 -28 229 -24 q 136 26 165 -28 q 108 38 121 38 q 90 32 98 32 l 79 41 q 61 -9 72 -9 q 50 15 50 8 q 35 134 50 134 l 38 149 l 29 163 q 32 165 32 163 q 12 212 12 175 l 15 218 q 12 230 12 223 q 26 262 26 243 l 18 256 l 12 256 q 9 271 12 265 q 23 294 15 294 l 23 299 l 15 299 l 15 302 q 32 337 22 309 q 26 343 26 337 l 26 346 q 29 349 26 349 q 26 357 26 355 l 18 352 q 15 360 15 357 l 18 380 q 15 389 15 387 q 20 395 20 389 q 9 416 9 408 q 20 448 18 430 l 18 453 q 23 468 20 468 q 18 488 18 479 q 23 506 18 493 l 20 511 q 41 633 41 631 q 38 636 41 636 q 81 912 64 852 q 122 964 81 952 q 142 930 122 960 l 142 927 l 149 927 q 174 987 149 987 q 201 1014 201 1010 m 189 712 l 195 703 q 180 668 180 680 l 186 668 l 186 665 l 183 660 l 189 660 q 201 680 201 665 l 201 688 l 195 697 q 203 703 203 697 l 203 709 q 195 718 195 709 q 189 712 189 717 m 104 111 q 99 87 104 87 q 93 93 93 87 q 81 90 88 90 l 87 81 l 81 81 l 81 67 l 87 67 l 84 73 l 84 79 l 93 79 q 102 67 94 67 l 104 67 q 113 76 104 76 l 113 93 q 104 111 113 109 m 311 38 l 311 35 l 319 35 q 326 41 326 35 l 326 44 q 311 38 316 38 z "},"V":{"ha":622,"x_min":-8,"x_max":671,"o":"m 104 1074 q 137 1041 120 1074 q 155 934 146 1041 q 176 833 157 933 l 170 833 q 158 866 165 866 l 158 863 q 176 759 167 837 q 208 616 189 759 q 256 445 232 556 q 253 441 253 445 q 268 379 260 441 q 271 370 271 379 q 318 430 275 371 l 315 430 q 309 421 309 430 l 303 424 q 348 522 333 474 q 369 551 359 522 q 387 596 380 559 q 419 652 410 614 q 502 795 443 686 l 508 798 l 505 804 l 505 806 q 526 821 513 821 l 523 836 l 523 839 l 532 839 l 532 836 q 529 827 529 830 q 547 863 534 827 l 553 863 l 553 857 l 559 860 l 555 866 l 555 869 q 562 875 556 875 l 562 869 l 564 869 l 564 872 q 562 881 562 878 q 615 961 583 885 l 621 961 l 627 958 q 633 964 627 964 l 642 964 q 656 952 655 952 q 668 955 662 955 l 671 949 l 671 934 q 642 872 654 918 l 635 872 l 639 866 q 633 848 639 858 q 635 845 635 848 q 624 825 628 845 q 612 821 618 821 l 612 812 l 618 815 q 621 812 618 812 q 603 789 621 802 q 600 791 603 791 l 603 777 l 603 771 q 588 747 592 747 l 591 741 l 591 739 q 576 730 591 733 l 579 724 l 579 718 l 573 709 l 573 706 l 576 691 q 553 652 557 669 q 538 637 540 646 l 541 620 q 532 596 532 606 q 541 590 541 596 q 532 584 541 584 l 532 581 q 549 560 544 560 q 564 575 555 560 l 573 575 q 553 549 569 561 q 535 513 553 534 q 538 504 538 507 l 523 495 l 526 489 l 514 471 q 517 463 517 465 q 484 409 511 463 l 484 406 l 493 406 l 493 412 l 499 412 l 499 409 q 475 376 479 376 l 475 382 q 478 391 478 388 q 464 370 471 390 l 467 370 l 475 376 l 475 370 q 446 231 446 336 q 425 106 435 106 q 413 124 419 106 q 416 225 413 157 l 413 243 q 416 245 416 243 l 410 249 q 387 184 410 233 q 380 165 387 172 q 383 154 383 161 q 372 142 380 154 l 374 136 l 374 133 q 366 127 366 133 l 366 121 l 369 106 q 342 59 359 106 l 342 56 q 348 50 342 50 q 324 -134 334 1 l 312 -146 q 286 -116 286 -131 l 286 -68 q 279 -45 286 -66 l 279 -21 l 277 8 q 274 5 274 8 q 229 29 260 5 q 220 26 223 26 q 188 71 205 60 l 188 74 l 182 71 l 164 85 l 164 89 q 167 98 164 98 q 149 228 167 174 q 140 249 149 248 q 108 198 108 233 q 104 118 104 163 l 104 113 q 93 85 104 90 q 78 184 85 102 l 78 213 l 72 234 q 57 543 65 543 l 57 557 l 63 557 l 63 581 q 51 587 51 581 l 57 596 q 54 599 57 599 l 57 605 q 51 629 57 608 l 51 635 q 54 637 51 637 q 45 652 50 652 q 42 649 45 649 l 39 655 l 39 659 l 45 659 l 45 664 l 39 664 l 42 679 q 31 711 39 711 l 33 726 l 27 735 q 31 739 27 739 q 3 854 22 754 q -8 892 0 886 q 18 901 1 897 q 27 899 24 899 q 33 905 28 905 q 51 899 43 899 l 54 899 q 48 928 48 924 l 54 931 l 57 931 q 60 928 60 931 l 66 931 l 69 931 l 75 928 q 81 937 75 937 q 72 1032 78 1006 q 98 1067 75 1067 q 104 1074 100 1074 m 612 940 l 612 937 q 618 943 618 937 l 618 946 q 612 940 612 945 m 538 560 q 529 543 538 554 l 535 543 l 535 549 l 541 549 l 541 540 l 544 540 l 544 554 q 538 560 544 560 m 529 534 l 529 525 l 532 525 q 535 534 532 528 l 529 534 m 244 394 l 244 391 q 250 385 245 385 l 250 394 l 244 394 z "},"W":{"ha":909,"x_min":-40,"x_max":892,"o":"m -4 1048 q 14 1012 2 1048 l 17 1012 l 26 1018 q 35 997 30 997 l 38 997 q 50 1006 38 1004 q 77 976 50 994 q 90 945 80 945 l 90 924 l 104 922 l 111 924 q 116 918 111 918 l 119 918 l 119 924 l 122 924 q 125 922 125 924 l 132 924 l 137 924 q 168 855 168 892 q 182 792 176 803 q 179 783 179 786 l 182 777 l 179 771 q 206 666 203 695 q 203 663 206 663 q 224 570 224 576 q 218 564 218 569 l 222 558 l 218 540 l 218 537 q 243 456 236 503 l 245 456 l 243 441 q 248 422 248 434 l 252 422 q 258 432 252 432 q 260 429 258 429 q 315 528 279 480 q 336 549 321 528 l 348 549 l 348 555 q 342 561 348 561 q 384 648 342 597 q 393 651 390 651 q 399 645 393 645 q 401 648 399 648 l 399 669 l 399 675 l 441 729 q 456 750 441 735 l 459 750 l 468 744 q 480 760 474 758 l 486 760 l 486 750 l 492 753 l 498 753 q 513 696 513 727 q 492 660 492 685 q 522 627 492 652 q 561 540 522 620 q 612 414 597 461 l 624 414 q 642 435 624 433 q 660 447 642 447 l 660 459 l 657 474 l 663 474 l 663 480 l 657 480 l 657 489 l 663 486 q 669 492 669 486 l 669 495 l 663 504 l 663 513 q 678 522 663 518 l 675 528 l 675 543 q 690 552 690 543 l 690 561 q 681 567 681 561 q 699 585 681 572 l 699 588 l 693 588 l 693 594 q 705 609 698 594 q 708 612 708 609 q 705 615 708 615 q 726 669 707 637 q 771 825 726 686 q 804 937 789 899 l 804 939 l 795 951 q 810 970 806 970 l 813 970 q 819 960 819 970 l 823 960 l 831 966 l 840 966 q 850 955 850 966 l 859 955 l 867 960 l 873 960 l 873 958 q 865 918 865 931 l 867 913 q 850 855 854 855 l 852 850 l 844 831 l 844 817 q 852 808 844 812 l 865 817 l 871 817 q 892 789 880 817 q 861 720 892 774 l 855 693 l 855 690 q 873 666 873 670 q 867 651 873 651 q 882 633 867 646 l 861 582 q 871 549 861 574 q 840 492 871 537 q 825 456 840 471 q 804 260 822 260 l 802 260 q 789 306 796 260 l 787 306 q 783 302 787 302 l 787 296 q 745 221 752 266 l 747 216 q 732 189 736 216 q 735 179 735 182 q 729 174 729 178 q 735 168 735 172 l 714 149 q 720 132 720 140 q 699 62 707 117 q 678 29 678 57 q 681 20 678 26 q 666 -19 681 12 l 666 -127 q 657 -151 666 -149 l 654 -151 q 630 -28 639 -132 q 588 20 630 -3 l 588 26 q 591 35 591 32 q 543 68 587 35 l 540 68 l 546 98 q 492 221 546 102 l 492 231 l 495 231 l 504 224 q 513 233 509 224 l 513 239 q 492 273 505 247 q 483 279 483 273 q 486 281 483 281 q 483 290 483 288 l 480 290 q 477 281 480 288 q 483 263 483 269 l 477 263 q 444 332 460 291 q 441 336 441 332 q 444 338 444 336 l 450 336 q 456 342 456 336 q 444 353 451 342 l 438 351 q 420 372 422 372 l 414 372 q 393 332 414 365 l 390 311 q 393 170 390 266 q 378 62 389 62 q 369 71 373 62 l 369 146 q 348 216 348 146 l 348 224 q 317 179 336 221 q 321 176 317 176 q 306 143 315 143 l 309 137 q 294 111 300 127 q 275 83 280 111 l 279 65 q 258 23 264 65 l 239 23 q 218 -1 239 14 l 216 -1 l 210 2 q 200 -7 210 -3 q 170 104 194 -7 q 149 224 170 119 l 134 221 l 134 224 l 128 221 q 95 321 123 221 q 47 531 86 348 q 17 651 35 562 q -13 771 2 688 q -16 774 -16 771 l -16 789 q -13 792 -16 792 l -16 798 l -16 813 q -31 855 -26 813 l -28 871 q -40 960 -40 948 l -37 982 l -34 982 l -28 979 q -34 1024 -34 1007 q -19 1045 -28 1042 l -16 1045 l -10 1042 q -4 1048 -9 1048 m 537 615 l 543 615 l 549 594 l 546 594 q 537 615 539 594 m 453 332 l 453 327 q 465 306 465 311 l 468 306 l 474 309 q 453 332 472 332 m 321 285 q 323 275 323 279 l 327 275 l 327 285 l 321 285 m 513 212 q 510 203 513 203 q 513 195 513 197 l 525 195 l 525 200 q 513 212 520 200 m 525 174 l 525 168 q 537 149 525 164 l 534 149 q 540 122 540 139 q 549 134 545 122 q 543 153 549 140 q 546 164 546 157 q 540 168 540 164 l 534 164 q 528 174 528 164 l 525 174 m 174 149 l 174 146 q 176 137 176 140 l 179 137 l 179 146 l 174 149 m 176 128 l 176 125 l 179 111 l 185 111 l 185 122 q 179 128 185 128 l 176 128 m 182 98 l 182 95 q 185 86 185 89 l 189 86 l 189 98 l 182 98 z "},"X":{"ha":692,"x_min":-114,"x_max":667,"o":"m 82 996 q 98 979 82 991 q 104 986 99 986 q 146 947 111 966 q 178 890 166 926 q 201 851 184 890 q 220 822 220 851 q 291 690 291 703 q 313 671 298 690 q 455 819 334 673 q 532 903 473 833 l 538 903 q 545 892 545 903 l 557 903 l 564 899 q 577 903 570 903 l 577 896 l 574 890 l 580 886 q 648 960 621 923 l 654 960 l 654 954 q 648 935 648 947 q 667 925 667 935 q 654 899 667 916 q 625 851 636 857 q 603 803 617 840 q 580 777 596 803 l 568 777 q 570 768 570 770 q 545 739 553 739 l 542 739 l 542 719 q 468 620 479 627 l 474 610 q 448 568 458 594 q 426 543 426 568 q 407 523 426 535 q 400 488 400 492 l 413 488 q 416 475 416 482 q 404 469 404 475 q 429 452 429 469 q 426 443 426 446 q 435 433 431 443 q 429 427 429 433 q 442 414 433 416 q 445 417 442 417 l 461 395 q 458 391 461 391 q 484 337 458 373 q 548 192 513 257 q 577 128 553 191 q 590 102 585 128 q 612 80 605 102 q 618 73 618 79 l 618 47 q 583 12 595 12 q 570 -7 570 12 q 606 -68 606 -64 q 593 -75 598 -75 l 583 -75 q 561 -104 583 -85 l 557 -104 l 551 -100 q 545 -106 551 -106 l 538 -106 q 526 -94 538 -100 q 474 -17 526 -91 l 465 -23 l 458 -14 l 458 -10 q 465 3 465 -2 q 448 44 465 18 l 442 44 q 435 35 442 35 l 433 35 q 422 44 427 35 l 422 47 l 435 47 l 435 51 q 416 73 429 51 l 416 77 q 426 86 416 81 q 404 118 426 111 q 397 73 404 73 l 400 67 l 400 44 q 404 31 400 37 q 400 19 400 26 l 400 -4 q 378 -52 384 -14 l 372 -52 q 361 -17 361 -52 l 361 6 q 365 35 361 17 q 333 237 350 95 q 294 298 316 248 l 281 298 q 262 266 276 266 l 252 266 q 214 228 224 228 l 214 218 l 217 218 l 233 221 l 236 215 q 198 170 198 193 q 201 160 201 163 l 195 160 l 188 163 l 188 157 l 195 147 l 195 138 q 159 93 168 93 l 143 102 q 146 16 146 43 l 146 -165 q 137 -184 146 -181 l 134 -184 q 111 -43 119 -184 q 89 31 106 -39 l 79 31 l 69 25 q 47 44 47 25 l 24 31 l -8 38 q -37 3 -18 16 q -66 16 -54 12 l -88 12 q -98 22 -88 15 l -92 44 l -95 44 l -108 35 l -114 35 l -114 41 q -1 212 -50 122 q 21 256 7 212 q 191 507 130 408 l 191 510 q 137 600 178 522 l 134 600 l 134 591 q 137 530 134 581 l 127 523 l 124 523 q 95 677 95 531 q 76 713 85 677 l 85 719 l 95 719 q 98 732 98 725 l 98 735 l 95 742 l 101 745 q 111 735 101 735 q 114 742 111 742 q 124 739 121 739 l 124 742 q 98 793 124 752 q 73 851 82 839 l 73 857 q 85 861 79 857 q 63 912 85 879 q 50 954 63 942 q 60 960 50 960 q 47 989 60 965 l 53 992 l 63 986 l 69 986 q 82 996 69 996 m 31 989 l 37 989 q 43 977 37 984 l 43 973 l 40 973 q 31 989 33 973 m 638 931 l 638 925 q 648 928 644 928 l 648 931 l 638 931 m 629 925 q 612 903 629 919 l 612 899 l 616 899 q 635 922 623 899 l 635 925 l 629 925 m 220 166 l 227 166 l 230 134 l 220 128 q 211 138 216 128 q 220 166 220 157 m -69 90 l -69 83 l -66 83 q -59 90 -59 83 l -69 90 m -79 77 q -92 54 -79 69 l -92 51 l -88 51 q -75 70 -75 57 l -75 77 l -79 77 z "},"Y":{"ha":599,"x_min":-19,"x_max":632,"o":"m 613 986 l 624 972 q 602 929 624 962 q 597 916 602 916 q 602 880 602 891 l 605 880 l 613 886 l 632 872 q 578 766 602 827 q 532 693 565 758 q 502 663 502 690 q 505 655 505 658 q 475 604 475 620 q 442 536 463 587 q 420 514 437 536 q 410 517 416 517 l 407 511 l 407 506 l 415 506 q 393 452 410 482 q 407 430 395 444 l 407 419 q 401 414 407 414 l 396 416 q 391 400 396 406 q 382 338 391 360 q 385 330 385 332 q 372 248 378 313 q 353 240 361 240 l 350 240 q 345 245 345 240 l 345 259 q 336 302 345 302 q 317 278 334 295 q 320 270 320 273 q 301 248 309 248 l 301 243 l 307 235 l 288 199 q 285 197 285 199 l 279 199 l 277 199 q 269 191 273 199 l 269 186 q 285 194 279 194 l 285 191 q 250 80 250 125 q 236 -85 247 16 l 236 -99 q 222 -115 236 -115 q 209 -161 222 -161 l 203 -161 l 198 -159 q 201 -134 198 -149 q 198 -15 198 -64 l 195 -1 l 193 -1 q 152 -61 180 -61 q 130 -64 145 -61 q 127 -56 127 -58 l 119 -61 l 114 -61 q 130 -12 114 -50 q 122 -9 125 -9 q 84 -15 113 -9 l 81 -9 l 84 -4 l 81 -4 q 71 -7 77 -7 l 68 -1 q 81 23 71 2 q 79 39 81 25 q 98 91 87 74 q 106 88 103 88 l 109 94 l 109 107 q 98 129 98 123 l 95 129 q 81 118 81 120 q 62 121 71 121 l 65 140 l 57 134 l 54 140 q 68 172 68 170 l 73 172 q 68 151 68 155 q 81 180 75 151 l 76 178 q 71 183 71 178 l 71 186 q 133 300 98 231 q 190 392 149 300 q 193 395 193 392 l 184 395 q 190 400 185 400 q 198 397 195 397 q 206 414 206 408 q 201 419 201 414 l 209 433 q 195 452 209 437 q 130 574 193 474 l 119 582 l 117 568 l 117 530 q 109 500 117 500 l 106 500 q 87 612 94 513 q 41 731 87 677 q -5 783 -5 768 l 0 785 l 5 783 q 8 785 5 785 l 5 799 q 11 804 6 804 l 0 823 l 0 829 q 8 856 5 835 q -3 875 5 871 q -16 907 -3 888 l -16 924 q -14 948 -16 933 q -19 964 -19 957 q -3 983 -5 983 l 3 983 q 57 916 37 959 q 111 878 90 916 q 152 812 121 876 q 168 802 168 807 l 163 793 l 163 791 q 182 761 182 770 l 201 747 q 206 739 206 747 l 220 742 q 225 736 220 736 l 222 723 q 258 671 241 699 q 288 617 270 663 l 290 617 q 366 720 332 670 l 372 720 q 380 718 377 718 l 380 723 q 372 728 372 723 q 393 745 385 745 l 388 753 q 401 758 388 758 l 401 755 q 418 774 407 755 l 423 774 q 426 772 423 772 q 429 774 426 774 l 420 791 l 420 793 l 426 791 q 437 804 429 804 l 437 807 l 431 807 l 431 812 q 456 834 441 812 l 450 842 q 477 867 450 846 q 505 897 477 882 l 505 902 l 499 902 l 499 910 q 518 932 503 910 q 548 945 540 945 l 553 943 q 586 983 576 979 l 591 983 q 594 981 594 983 q 613 986 605 986 m 507 902 l 507 899 l 510 899 l 513 910 q 507 902 507 910 m 496 869 q 502 864 497 864 l 510 864 l 513 878 q 496 869 503 869 z "},"Z":{"ha":776,"x_min":-45,"x_max":752,"o":"m 148 977 l 182 974 l 191 974 l 203 964 l 217 967 q 289 958 283 960 q 303 961 294 961 l 300 967 l 307 970 l 309 964 q 312 967 312 964 l 465 947 l 470 947 q 479 951 479 947 l 496 947 q 606 945 526 947 q 623 951 617 951 q 663 938 663 943 l 669 938 l 677 945 l 680 945 q 686 935 680 935 l 694 935 l 694 945 l 701 945 q 720 928 710 930 q 735 899 731 928 q 738 895 738 899 l 738 889 q 709 843 732 843 l 709 823 l 674 823 q 663 807 669 821 l 671 807 l 671 797 q 637 745 637 797 q 617 640 631 640 l 614 640 q 600 682 605 640 q 579 643 591 682 q 528 581 570 643 q 481 496 481 558 q 462 410 479 410 q 435 460 445 428 l 430 460 q 404 440 407 440 l 407 433 q 375 371 390 410 q 344 355 349 361 q 307 276 344 341 q 505 211 361 276 q 528 181 522 201 l 536 175 l 539 175 q 551 178 546 175 q 637 142 637 165 q 648 136 648 142 q 646 125 646 129 l 686 125 q 718 129 698 125 q 726 125 724 125 l 726 119 q 724 122 724 119 q 689 116 717 116 l 689 113 q 703 109 703 113 l 709 113 l 735 113 q 752 102 752 111 l 726 83 l 709 86 q 669 63 682 86 q 652 47 659 47 q 643 50 648 47 l 597 43 q 594 47 594 43 l 576 43 l 559 47 q 505 18 518 47 q 421 4 505 7 l 416 7 q 412 4 412 7 l 398 7 l 370 7 q 344 4 359 7 q 323 7 340 7 q 309 -71 320 7 q 303 -77 309 -77 l 300 -77 q 292 -58 292 -77 l 286 -58 l 280 -61 q 266 7 273 -55 l 231 11 l 189 11 q 168 -130 182 11 q 159 -143 162 -143 l 154 -143 q 134 -87 149 -138 l 134 -48 q 125 14 134 -25 l 90 18 q 62 -5 85 3 l 56 -5 q 50 7 50 -5 l 47 7 l 36 -2 l 30 -2 q 16 14 30 8 q -36 7 4 14 l -39 14 l -36 34 q -39 43 -39 40 q -36 47 -36 43 q -45 57 -41 47 q -36 66 -41 57 l -45 83 q 10 113 -26 113 l 10 122 l 7 142 q 59 201 14 172 l 62 208 l 59 240 q 191 414 65 244 l 203 424 l 205 424 l 205 420 l 200 410 l 200 407 l 203 407 q 231 444 231 433 l 252 469 l 252 476 l 229 456 l 229 460 q 260 503 229 465 l 275 499 l 277 499 q 295 512 277 512 l 295 515 l 286 515 l 286 522 q 317 574 301 539 q 332 587 326 587 l 332 604 q 404 718 371 682 l 416 712 q 421 725 421 720 l 427 725 q 433 715 427 715 q 435 722 433 722 l 433 728 l 433 732 q 450 738 450 732 q 444 764 450 748 q 435 754 435 764 l 430 754 q 421 771 430 771 q 398 768 419 771 l 398 771 l 393 768 l 378 768 q 347 761 358 768 l 340 764 l 326 761 l 321 764 l 280 754 q 272 758 275 758 q 208 748 267 752 l 205 732 l 205 682 q 194 653 205 657 l 189 653 q 177 741 182 676 q 82 715 125 725 q 67 758 71 725 q 50 784 60 758 l 56 793 l 47 800 l 16 800 q -1 833 9 800 q -13 843 -13 838 q -10 852 -10 850 q -16 859 -16 852 q -10 866 -16 866 l -13 872 l -13 879 l 36 879 q 73 905 50 905 q 128 945 73 918 q 145 961 136 945 q 157 967 157 961 l 157 970 l 148 970 l 148 977 m 280 970 l 295 970 l 295 964 l 275 964 q 280 970 275 970 m 307 961 l 307 954 l 309 954 q 317 958 315 958 l 317 961 l 307 961 m 671 843 l 671 833 l 692 830 l 694 830 l 694 833 q 671 843 694 840 m 718 827 l 738 827 l 738 820 l 718 820 l 718 827 m 715 810 l 732 810 l 732 807 q 726 800 732 800 l 720 800 q 715 807 715 800 l 715 810 m 694 804 l 703 804 l 703 797 l 694 797 l 694 804 m 453 734 q 444 725 453 725 l 444 722 l 450 722 q 458 728 450 728 l 458 734 l 453 734 m 404 699 q 410 692 405 692 l 412 692 q 418 699 418 692 l 418 702 l 404 699 m 378 663 l 378 659 l 381 659 q 395 669 381 669 l 395 673 l 390 673 q 378 663 378 667 m 674 116 l 674 113 l 686 113 l 686 116 l 674 116 m 724 77 l 735 77 l 735 70 l 724 70 l 724 77 z "},"[":{"ha":514,"x_min":0,"x_max":0,"o":""},"\\":{"ha":386,"x_min":0,"x_max":0,"o":""},"]":{"ha":514,"x_min":0,"x_max":0,"o":""},"^":{"ha":688,"x_min":0,"x_max":0,"o":""},"_":{"ha":694,"x_min":0,"x_max":694,"o":"m 0 -68 l 694 -68 l 694 -109 l 0 -109 l 0 -68 z "},"`":{"ha":694,"x_min":144,"x_max":456,"o":"m 456 732 l 410 732 l 186 869 q 154 896 165 882 q 144 924 144 909 q 158 959 144 945 q 194 972 172 972 q 221 964 208 972 q 259 932 235 956 l 456 732 z "},"a":{"ha":580,"x_min":-79,"x_max":555,"o":"m 249 977 q 252 974 252 977 l 257 977 l 262 977 q 309 932 277 968 q 298 908 298 916 q 333 874 324 875 q 340 861 333 869 l 340 853 l 328 825 q 385 625 343 800 q 464 421 397 604 q 488 363 471 412 q 511 319 492 359 q 506 313 511 313 q 503 316 506 316 q 485 306 496 306 q 543 172 516 208 q 529 164 529 169 q 555 101 555 115 l 550 98 l 543 98 q 503 149 527 104 q 488 135 488 145 q 516 83 488 125 q 522 73 516 79 l 522 67 q 513 62 513 67 l 534 7 q 516 1 522 1 l 516 -17 q 508 -24 516 -20 l 506 -24 q 464 22 477 -24 l 461 22 l 458 18 l 458 -54 l 453 -77 q 456 -153 453 -98 q 448 -163 452 -163 q 432 -100 432 -127 l 435 -100 l 432 -96 l 432 -85 q 435 -82 432 -82 q 412 94 424 94 q 330 267 364 186 l 273 267 l 273 264 l 277 256 q 273 250 273 255 l 273 172 q 259 106 271 106 q 249 156 252 106 q 241 185 241 156 l 241 248 q 236 253 241 253 l 212 253 q 189 245 199 253 l 173 245 q 142 258 163 256 l 142 264 l 149 264 l 149 269 q 134 271 138 269 q 115 216 126 262 q 81 119 86 166 q 68 104 79 119 l 52 106 q 39 94 43 94 l 42 83 q 21 43 29 43 q 5 -3 5 39 q -29 -9 -16 -9 q -66 1 -29 -4 q -73 12 -69 12 q -76 9 -73 9 l -79 15 q -42 109 -60 109 q -21 143 -31 135 q -24 164 -21 146 q -11 203 -14 164 q 18 290 -3 203 q 21 292 21 290 q -8 321 21 301 l -8 329 q 18 410 18 385 l 50 481 q 47 518 50 485 q 84 602 84 586 q 86 610 86 607 q 84 612 84 610 q 134 735 94 614 l 139 738 l 146 738 l 155 767 q 144 746 149 767 l 142 746 l 139 751 q 228 961 204 911 l 243 971 q 249 977 244 977 m 139 732 q 136 725 139 730 l 142 725 l 142 732 l 139 732 m 236 505 q 194 400 236 500 l 197 400 q 254 416 250 416 q 273 426 266 426 q 241 505 252 463 l 236 505 m 488 347 q 490 340 490 342 l 495 340 l 495 342 q 490 347 495 347 l 488 347 m 225 264 l 225 258 l 236 258 l 236 264 l 225 264 z "},"b":{"ha":661,"x_min":9,"x_max":628,"o":"m 100 1063 q 140 1012 119 1057 q 149 985 142 992 l 149 983 q 140 964 140 977 q 172 988 150 964 q 202 966 186 988 l 207 964 l 212 966 q 245 958 235 958 l 248 958 q 250 964 248 964 q 360 937 263 964 q 374 939 365 939 q 355 947 374 945 l 355 953 q 481 913 394 949 q 505 870 505 884 l 502 870 q 555 811 502 856 l 577 770 l 574 770 l 577 766 q 574 763 577 763 l 577 758 l 577 752 q 518 680 545 710 l 518 677 q 521 666 521 672 l 513 661 l 510 661 l 505 663 q 459 615 499 661 q 427 572 451 615 l 427 567 q 591 454 502 534 q 628 376 627 393 l 628 358 q 612 331 612 334 q 572 299 610 331 q 524 267 531 267 q 505 87 510 103 l 494 87 q 486 109 488 87 q 488 111 486 111 l 486 125 l 486 138 q 488 237 486 170 q 486 240 486 237 q 440 213 482 240 l 440 205 q 427 192 435 192 l 419 192 q 387 162 419 173 l 357 138 l 360 138 q 389 154 379 148 l 397 154 l 366 125 q 341 133 350 126 q 309 114 332 133 q 285 92 307 114 l 288 87 q 242 18 271 71 l 239 18 l 242 12 q 226 -4 242 8 l 212 -4 l 197 -1 q 189 -7 189 -4 q 161 1 161 -4 q 164 4 164 1 q 161 7 161 4 l 156 4 q 146 7 151 7 q 143 -4 146 1 l 146 -9 q 138 -58 138 -47 l 138 -68 q 127 -84 127 -75 q 111 -106 125 -106 l 108 -100 q 111 34 111 7 l 113 34 l 111 39 q 113 47 113 44 q 84 92 104 83 q 73 117 73 96 l 73 122 q 60 141 66 122 l 60 149 q 33 235 41 149 q 9 313 9 243 q 12 465 12 419 q 14 486 14 485 q 12 497 12 491 q 20 541 20 497 l 20 548 q 22 551 20 551 q 20 553 22 553 q 43 755 38 741 l 52 755 l 52 758 l 54 784 q 46 806 46 786 l 46 819 l 49 819 l 54 817 q 62 848 54 824 q 60 859 60 853 q 68 902 66 859 q 65 905 68 905 l 68 918 l 68 932 q 71 983 68 953 q 68 991 68 988 l 71 996 q 68 998 71 998 l 71 1017 l 71 1034 q 81 1042 71 1040 q 90 1039 87 1039 l 84 1047 l 84 1049 q 100 1063 84 1053 m 229 972 l 231 972 q 237 966 237 971 l 229 966 l 229 972 m 132 945 l 130 918 q 132 897 130 907 l 127 865 l 140 867 l 146 865 q 159 867 150 867 l 159 888 q 153 899 153 895 q 156 907 156 905 q 140 926 146 911 l 138 926 l 138 932 l 143 932 l 143 939 q 132 945 139 939 m 210 862 l 207 838 l 210 827 q 207 824 207 827 q 253 768 240 799 l 253 760 q 250 693 253 737 q 239 685 239 693 q 248 674 241 674 l 248 666 q 237 653 237 654 l 237 650 l 245 650 q 239 629 239 631 l 239 612 l 242 612 q 274 642 273 633 q 271 653 271 647 q 397 733 380 718 l 406 763 l 406 766 q 376 789 406 782 l 366 800 q 368 808 368 806 l 366 808 l 349 806 q 319 817 333 817 q 309 730 317 756 l 304 730 q 296 739 300 730 l 296 749 q 277 832 288 832 q 215 862 256 838 l 210 862 m 319 463 q 282 430 299 430 l 282 428 l 296 428 q 285 412 296 412 q 248 417 271 412 q 226 406 226 412 l 215 328 q 212 326 212 328 q 215 323 212 323 l 212 310 l 212 307 l 215 294 l 212 294 q 218 272 218 283 l 218 269 l 212 261 l 212 259 q 223 248 212 255 q 282 310 282 286 q 374 376 323 343 l 376 376 q 387 374 380 374 q 395 382 387 378 q 408 366 406 366 l 419 366 q 448 393 437 393 l 448 395 q 403 425 447 401 q 344 460 394 446 q 330 463 339 463 l 319 463 m 496 313 l 496 307 q 499 299 499 302 l 496 299 q 499 291 499 294 q 515 296 505 296 q 496 313 509 308 m 515 275 q 513 267 515 272 l 518 267 l 518 275 l 515 275 m 384 178 l 384 176 l 392 176 q 406 186 406 183 l 406 189 l 403 189 q 384 178 389 178 z "},"c":{"ha":618,"x_min":-18,"x_max":652,"o":"m 571 986 l 579 986 q 595 954 584 986 q 642 910 642 954 q 647 872 645 910 q 642 867 642 871 q 650 831 642 861 l 650 826 l 647 821 q 652 815 652 820 l 652 812 q 633 796 652 810 l 631 796 l 625 799 l 620 791 l 628 791 l 628 788 q 614 769 614 774 l 609 769 l 609 772 q 612 780 612 777 q 590 753 599 772 q 595 747 595 752 q 563 720 566 720 q 544 690 563 703 q 511 416 519 427 q 506 411 511 411 l 500 411 q 495 416 495 411 q 498 563 498 510 l 498 566 q 500 568 498 568 l 498 574 l 498 601 q 492 606 498 606 q 473 585 475 585 l 476 579 l 476 576 q 457 560 457 576 l 460 560 l 465 563 l 465 560 q 449 538 463 551 l 452 533 q 441 519 445 519 l 435 519 q 397 560 410 539 l 395 560 q 359 517 386 534 l 357 517 q 319 557 335 533 l 319 566 q 365 639 319 586 q 392 685 365 643 l 392 688 q 373 674 377 682 l 368 671 l 362 674 q 351 666 351 670 l 354 666 l 359 669 l 362 663 q 330 633 350 648 q 294 582 330 628 q 292 566 292 578 l 294 566 l 294 563 q 289 557 294 557 q 281 560 283 560 l 283 555 l 283 552 q 264 541 283 541 l 267 536 l 267 533 q 254 506 267 520 l 256 500 l 256 492 l 259 492 l 259 487 q 251 484 251 487 l 254 479 l 248 465 l 243 468 l 240 468 q 248 463 240 463 q 229 392 248 456 l 235 392 l 235 389 q 224 365 224 389 q 216 330 224 356 q 270 229 218 285 q 419 148 351 170 q 460 134 431 142 l 509 140 l 511 134 q 509 132 511 132 l 511 126 q 484 107 484 109 q 487 96 487 102 l 471 83 l 468 83 q 422 85 454 83 l 411 69 q 419 61 411 65 l 438 61 q 487 85 454 61 l 503 85 q 509 80 509 85 l 509 77 q 506 64 509 68 l 509 47 q 452 23 509 23 q 384 1 422 9 l 378 4 q 376 1 376 4 q 300 15 323 7 q 275 12 285 12 l 270 12 l 256 15 q 251 -20 254 9 q 254 -31 254 -25 q 245 -75 245 -49 l 245 -142 q 235 -153 245 -146 l 229 -153 q 221 -145 225 -153 q 216 26 221 -75 q 107 134 152 63 l 99 140 l 94 140 q 88 91 88 102 l 91 80 q 83 50 88 50 l 72 50 q 64 66 67 50 q 66 69 64 69 q 53 199 60 199 q -18 245 23 199 q 26 438 -18 315 q 28 457 28 449 q 15 487 25 457 q 12 490 12 487 l 12 492 q 80 595 15 530 l 83 595 l 83 587 l 94 587 q 110 598 94 595 l 110 601 q 102 606 102 601 l 140 655 q 156 685 140 667 l 151 693 q 221 755 203 755 q 229 753 227 753 q 262 793 262 774 q 349 880 262 804 q 373 897 366 880 q 438 943 412 919 l 460 951 l 454 959 q 473 970 458 959 l 479 967 q 487 975 479 971 l 492 975 q 509 959 509 975 q 552 981 522 959 q 571 986 565 981 m 604 766 l 606 766 l 606 764 q 601 758 606 758 l 598 764 l 604 766 m 210 628 l 216 628 q 227 636 227 632 l 218 636 q 210 628 214 636 m 490 620 q 484 609 490 616 l 484 606 l 487 606 q 495 620 487 610 l 490 620 m 191 614 q 189 606 189 609 l 186 606 l 178 612 l 175 612 l 175 609 q 186 604 179 609 q 199 612 195 612 l 199 614 l 191 614 m 243 574 l 243 568 l 251 568 l 251 574 l 243 574 m 237 495 q 248 525 243 495 l 245 525 q 237 495 239 525 m 99 514 l 99 511 q 110 517 106 517 l 110 522 q 99 514 99 518 m 161 506 l 161 503 l 167 503 l 167 511 q 161 506 161 511 m 137 441 l 137 430 l 140 430 l 140 441 l 137 441 m 134 427 l 134 416 q 148 419 139 419 l 148 422 q 134 427 141 422 m 47 338 l 47 319 l 50 319 l 53 335 l 47 338 m 39 302 l 39 297 l 42 297 q 50 305 46 297 l 45 308 q 39 302 39 307 m 58 294 q 56 286 58 292 l 58 275 q 47 264 56 264 l 47 259 q 50 256 47 256 l 47 251 l 47 240 q 64 243 52 243 l 64 245 l 61 273 q 72 281 72 277 l 72 283 q 61 294 61 283 l 58 294 m 191 294 l 191 292 l 194 286 q 191 278 191 281 q 208 240 191 271 q 205 229 208 234 q 208 218 208 224 q 205 216 205 218 l 251 180 l 254 180 l 254 186 l 191 294 m 45 275 l 45 273 l 50 273 l 50 281 q 45 275 45 280 m 75 281 q 83 273 75 277 l 85 273 l 85 275 q 80 281 85 281 l 75 281 m 99 248 q 96 235 99 239 q 99 232 99 235 q 110 235 104 235 q 104 248 104 243 l 99 248 m 56 216 q 61 210 56 210 l 64 210 l 61 216 l 61 221 l 72 213 q 75 216 72 216 l 83 199 q 96 210 95 205 q 72 227 96 213 q 56 216 56 221 m 137 142 l 142 142 l 140 137 l 140 134 l 142 134 q 148 151 144 151 q 145 159 145 156 q 137 142 137 156 m 151 153 q 145 132 151 137 q 151 126 146 126 l 153 126 q 164 137 153 137 l 164 140 q 153 153 153 140 l 151 153 m 243 102 q 254 85 248 85 l 251 102 l 243 102 m 302 102 q 321 94 302 96 q 302 102 321 100 m 330 96 l 335 88 q 332 85 332 88 q 370 75 370 79 q 389 83 384 83 q 330 96 389 89 z "},"d":{"ha":608,"x_min":5,"x_max":578,"o":"m 158 1006 l 163 1006 l 184 974 l 168 821 q 171 812 171 815 l 174 812 q 195 847 195 824 q 214 876 202 847 l 218 879 l 221 879 q 253 826 244 852 q 256 823 256 826 q 235 781 238 781 q 208 660 214 665 q 197 654 201 654 l 197 646 l 200 646 l 208 652 q 211 649 208 649 q 200 631 211 646 q 208 610 208 619 q 200 583 207 583 q 195 588 200 588 q 184 572 184 576 q 208 528 208 532 q 195 490 208 519 q 197 488 195 488 l 195 475 l 195 462 q 197 440 195 451 q 187 398 192 398 l 190 382 q 187 348 190 370 l 190 332 q 182 330 184 330 l 182 316 q 176 311 176 315 l 176 290 l 174 274 q 176 266 176 269 l 171 263 l 158 266 l 150 256 q 155 248 155 256 l 171 248 l 171 237 l 174 237 q 200 266 182 240 q 227 290 205 266 q 274 351 244 304 l 277 351 q 298 342 290 342 l 300 342 q 388 483 355 408 q 398 538 395 500 q 395 546 398 541 q 398 583 398 568 l 398 586 q 395 599 398 594 l 398 612 q 374 720 398 720 q 324 762 334 762 l 324 760 q 309 575 317 575 l 306 575 l 295 583 q 298 649 298 627 l 298 696 q 295 779 298 730 q 298 786 298 784 q 288 818 288 812 l 290 823 q 285 829 285 823 l 285 865 q 288 868 285 868 q 235 953 269 901 l 237 966 q 232 987 237 968 l 232 995 q 245 1006 232 999 l 248 1006 q 353 895 325 939 q 467 808 426 874 l 536 667 q 578 578 578 600 l 578 572 l 572 564 q 557 575 570 564 l 546 575 q 557 517 557 538 l 554 504 q 562 483 559 504 q 536 467 548 483 q 483 409 505 446 q 469 393 479 409 l 469 387 q 480 353 469 385 l 480 342 q 456 335 480 338 q 435 311 435 314 l 435 292 q 406 58 422 215 l 401 55 l 398 55 q 393 60 393 55 l 393 94 q 395 105 393 100 q 393 115 393 110 l 393 137 q 395 139 393 139 q 391 155 393 155 q 395 245 395 184 l 395 250 l 393 256 q 382 248 382 252 l 377 250 l 374 250 l 374 239 q 338 216 366 229 q 314 174 328 206 q 279 150 296 174 q 264 126 276 150 l 258 123 q 256 126 258 126 l 258 113 q 237 94 237 100 q 245 89 245 94 q 224 81 243 81 l 224 79 l 229 79 l 229 76 q 211 60 211 63 l 214 60 q 211 44 211 57 q 216 39 216 43 q 197 20 216 35 l 187 20 l 174 23 q 126 -12 144 -5 q 113 -114 126 -32 q 105 -149 113 -149 l 102 -149 q 94 -140 98 -149 l 94 -125 q 90 -77 94 -90 q 92 -75 90 -75 q 90 -30 90 -43 l 90 -6 l 87 10 l 90 15 q 47 58 90 37 q 31 108 38 108 q 5 147 16 108 l 5 158 q 10 203 5 182 l 7 218 l 10 218 l 7 224 l 7 250 q 10 261 7 256 q 7 271 7 265 q 13 277 13 271 q 10 285 10 282 l 13 285 l 10 290 l 10 298 q 7 300 7 298 l 10 316 q 7 342 7 330 l 7 345 q 10 348 7 348 l 7 353 l 7 385 q 16 430 7 401 l 13 435 q 16 437 13 437 l 13 451 l 13 454 q 18 483 13 457 q 16 504 18 494 q 26 533 18 533 l 37 525 l 39 525 q 44 538 39 532 l 44 546 l 39 546 q 20 541 34 541 q 18 543 20 543 q 42 638 18 626 l 42 652 l 50 652 l 50 638 l 58 644 l 55 649 l 60 662 q 52 665 55 665 l 52 673 q 63 684 63 673 l 55 688 q 52 681 52 684 l 47 681 l 47 686 l 39 681 l 37 681 l 37 686 q 58 765 37 709 q 68 781 66 765 l 71 781 q 79 779 76 779 l 81 784 l 81 786 l 76 784 l 71 784 l 71 794 q 97 903 92 862 l 100 903 q 97 924 97 917 q 116 958 97 934 l 121 956 q 129 963 125 956 q 126 974 129 969 q 137 1003 133 1003 l 153 1000 q 158 1006 153 1006 m 205 889 q 211 884 211 888 l 211 879 q 203 871 211 875 q 197 876 197 871 q 203 882 203 876 l 200 886 l 205 889 m 42 575 l 42 570 l 52 570 l 52 575 l 42 575 m 34 562 l 34 559 q 42 551 34 555 q 47 557 47 551 q 42 562 47 562 l 34 562 m 37 475 l 42 472 l 47 480 l 44 493 q 37 475 39 493 m 34 422 l 34 414 l 37 414 q 42 419 42 414 l 42 422 l 34 422 m 155 340 l 155 335 l 166 335 q 161 340 166 340 l 155 340 m 161 288 q 158 279 161 285 l 163 279 q 168 285 168 279 l 163 288 l 161 288 z "},"e":{"ha":518,"x_min":-1,"x_max":511,"o":"m 113 1040 q 155 965 155 1017 l 155 946 l 163 946 q 176 996 163 964 l 182 993 q 193 998 189 998 q 229 960 218 990 q 274 962 245 960 l 307 960 q 330 968 323 968 q 425 962 397 962 q 460 974 449 962 q 483 918 477 974 q 474 890 479 901 q 477 887 477 890 q 444 882 472 884 l 446 876 q 444 868 444 871 q 449 863 449 867 q 446 854 446 857 l 488 843 l 488 838 q 455 818 467 838 q 430 815 440 818 q 421 818 425 818 q 408 812 421 812 l 408 810 l 425 806 l 425 801 l 413 801 q 344 793 397 801 l 344 785 l 307 785 l 307 754 q 294 712 307 712 q 282 751 286 712 l 285 757 q 277 785 279 785 q 221 768 222 785 q 208 729 208 743 q 213 673 213 684 q 208 648 208 655 l 210 642 q 199 587 201 609 q 201 578 201 581 l 199 573 q 208 559 202 559 l 271 559 q 307 573 286 573 q 430 553 417 573 l 425 545 q 441 503 438 545 q 469 498 466 498 l 469 495 l 466 490 q 471 484 471 489 q 449 473 456 473 l 458 462 l 458 459 q 446 445 446 459 q 435 442 437 442 l 435 445 q 433 442 433 445 l 418 445 q 393 437 416 445 q 385 439 388 439 l 382 434 q 402 429 395 434 l 416 429 l 416 422 q 388 406 405 422 l 344 406 l 344 401 q 349 395 345 395 l 363 395 l 363 392 q 319 381 363 387 q 307 384 313 384 q 288 326 288 380 l 279 320 l 277 320 q 266 331 273 320 l 266 353 l 263 367 q 201 364 221 364 l 191 364 l 180 373 l 176 373 q 171 359 176 359 l 165 361 l 165 345 l 174 351 l 176 351 l 176 339 q 171 334 176 334 l 165 336 l 163 331 l 163 300 q 168 311 168 300 l 174 311 q 168 281 172 281 q 155 273 161 281 q 152 275 155 275 l 149 256 l 149 248 q 155 256 155 248 l 157 256 l 157 245 q 138 231 143 231 l 138 228 q 149 222 142 228 q 155 228 150 228 q 165 217 159 228 l 165 214 q 155 209 155 214 l 155 200 l 171 195 l 285 209 l 291 206 q 299 209 296 209 q 307 200 299 205 l 332 203 q 349 195 349 200 l 344 186 q 366 156 359 186 q 368 153 368 156 q 380 156 370 153 q 397 153 394 153 l 402 156 q 418 147 415 147 l 418 142 l 413 134 q 455 117 433 120 l 480 117 q 499 100 496 100 l 494 89 q 511 53 500 89 l 488 42 q 352 36 416 36 l 352 33 l 385 33 l 385 31 q 380 25 385 25 l 349 25 q 327 17 329 25 l 327 -8 q 316 -28 327 -23 l 310 -28 q 302 -5 302 -26 l 302 14 q 294 20 302 20 q 188 3 254 20 l 174 5 l 171 5 q 132 0 162 5 l 132 -50 l 130 -66 q 132 -69 130 -69 q 115 -139 129 -139 q 104 -109 109 -139 l 104 -73 q 107 -61 104 -66 q 102 -3 104 -61 q 54 33 54 -3 q 13 75 38 68 q -1 100 7 75 l -1 128 q 7 153 1 153 l 4 170 q 18 364 10 364 l 16 370 l 16 398 q 18 409 16 404 q 16 412 18 412 l 18 439 l 18 462 q 37 492 29 462 q 18 507 18 503 l 18 553 q 16 565 18 559 q 26 612 23 612 l 24 623 q 43 701 33 682 q 41 709 43 704 q 60 812 60 803 q 54 821 54 812 q 74 921 69 844 q 85 990 79 921 q 99 1023 94 1021 l 96 1029 q 113 1040 96 1034 m 24 523 l 24 517 q 29 512 24 512 l 32 517 l 32 528 l 29 528 q 24 523 24 528 m 24 456 l 24 437 l 26 437 q 29 454 26 449 l 24 456 m 319 404 q 324 398 319 398 q 330 404 330 398 l 319 404 m 168 378 l 165 373 l 171 370 l 174 376 l 168 378 m 168 326 l 174 326 l 174 317 l 168 317 l 168 326 m 160 292 q 163 283 163 287 l 168 287 q 165 295 165 292 l 160 292 m 143 217 q 149 212 144 212 l 152 212 q 146 217 152 217 l 143 217 m 282 33 l 282 28 l 296 31 l 296 33 l 282 33 m 399 33 l 421 33 l 421 28 l 399 28 l 399 33 z "},"f":{"ha":571,"x_min":9,"x_max":690,"o":"m 176 998 q 202 970 202 987 l 208 967 l 224 967 l 224 984 l 228 989 q 236 987 233 987 l 241 989 q 276 964 247 989 l 290 964 q 384 956 324 964 l 401 958 l 420 958 l 420 964 l 429 958 q 517 970 475 970 l 529 967 q 540 970 534 970 q 551 967 547 970 l 580 970 q 616 967 615 967 q 620 970 620 967 q 688 939 688 970 l 690 933 q 665 862 690 862 l 662 862 q 651 870 662 869 q 625 811 625 870 q 608 800 616 800 q 606 808 606 805 q 520 793 520 804 l 515 793 l 515 800 l 503 800 l 494 793 l 484 793 l 484 800 l 466 800 l 469 793 l 469 788 l 446 788 l 446 785 l 452 785 l 452 779 l 444 779 q 412 774 440 779 l 404 774 l 404 768 l 389 768 q 384 762 384 768 l 387 757 q 375 677 382 732 q 372 671 372 677 l 367 671 q 355 697 355 675 l 355 734 q 353 745 355 741 l 355 751 l 353 757 l 355 762 q 353 771 353 768 l 350 771 l 344 768 q 341 774 344 774 q 284 762 332 767 l 284 760 l 304 760 l 304 754 l 284 754 l 284 751 q 296 745 296 751 q 267 643 271 745 q 262 635 264 643 l 256 637 l 253 637 q 248 623 253 633 q 256 621 253 621 l 256 618 l 250 609 l 250 604 q 284 592 250 593 q 315 597 292 592 l 395 583 q 406 587 400 587 q 418 578 406 582 q 429 581 423 581 q 446 575 439 575 l 506 575 q 526 544 526 560 q 523 513 523 524 l 523 498 q 484 478 523 492 q 463 450 484 460 q 477 441 477 448 q 475 430 475 437 l 455 430 l 455 439 l 446 439 q 427 418 443 418 q 420 408 420 418 l 395 408 q 367 393 387 408 q 353 391 361 391 q 350 393 350 391 q 333 373 333 387 q 336 345 336 349 q 315 208 330 208 l 313 208 l 307 212 l 301 385 l 284 385 l 256 382 l 256 379 l 267 379 l 267 373 q 205 345 205 370 q 210 339 210 344 q 208 336 210 336 l 210 325 q 199 291 207 291 q 202 288 199 288 q 196 268 200 268 q 199 265 196 265 q 174 220 199 231 l 174 200 l 179 203 q 182 174 179 184 q 174 138 176 138 q 179 115 179 123 l 157 98 l 159 92 q 151 83 159 87 q 148 86 151 86 l 148 78 l 154 69 l 154 66 l 151 52 q 159 47 159 52 l 159 38 l 151 26 l 154 21 q 151 9 151 16 q 157 4 157 9 q 154 -61 154 -48 q 137 -70 144 -70 q 114 -189 133 -189 l 109 -180 l 109 -127 q 105 -87 109 -111 l 109 -81 q 94 -50 94 -57 q 97 -10 97 -26 l 97 4 q 74 1 81 1 q 52 30 57 1 q 49 33 49 30 l 49 35 q 60 90 56 40 q 40 100 60 97 q 28 98 35 98 l 18 112 q 20 123 20 117 l 9 129 q 23 237 14 205 q 18 243 18 237 l 18 254 q 26 274 18 274 l 23 319 q 32 342 32 321 l 32 356 l 28 385 l 35 385 l 35 416 q 40 439 35 418 l 40 450 q 52 564 52 543 q 45 569 45 564 l 45 572 q 57 592 57 572 q 80 669 66 669 l 77 683 l 77 686 q 94 777 83 692 q 119 862 107 802 q 145 956 130 888 l 148 956 l 145 962 l 145 964 q 168 998 168 964 l 176 998 m 97 737 q 88 703 97 726 l 85 688 l 91 688 q 100 703 98 688 l 100 711 l 105 711 l 102 726 q 105 728 105 726 q 100 737 100 728 l 97 737 m 63 564 l 60 544 l 60 538 l 63 538 q 71 549 63 549 l 71 561 q 63 564 68 561 m 60 532 l 60 518 l 63 518 l 63 532 l 60 532 m 432 441 l 432 439 l 444 439 l 444 441 l 432 441 z "},"g":{"ha":676,"x_min":7,"x_max":769,"o":"m 532 975 q 556 939 556 949 q 568 913 556 926 l 559 903 l 559 900 q 570 895 570 900 q 545 880 545 889 l 548 880 q 556 883 553 883 l 556 880 l 562 883 l 570 883 l 570 878 q 551 864 555 878 q 556 844 556 853 q 524 825 546 837 l 515 825 l 517 831 l 512 833 q 485 817 498 819 l 485 812 q 504 817 490 812 l 504 814 l 498 806 l 504 806 q 578 836 516 817 q 604 828 604 834 l 604 825 q 581 812 596 812 l 573 817 l 570 812 l 576 812 l 576 809 q 524 784 574 803 l 524 773 l 526 773 q 568 792 551 781 l 573 792 l 573 789 q 504 751 562 781 l 504 748 l 509 748 l 509 743 l 507 743 l 501 745 q 479 737 486 737 l 479 732 l 488 732 l 488 737 l 493 737 l 493 734 l 449 699 q 432 687 449 689 q 410 657 432 673 q 363 627 401 640 q 280 532 280 553 q 258 375 271 375 q 247 403 250 375 l 247 431 q 200 370 200 414 q 197 334 197 360 q 211 270 197 304 q 208 267 211 267 l 211 254 l 211 237 q 208 234 211 234 q 233 160 217 190 l 239 163 q 250 160 243 160 q 267 174 250 165 q 283 193 271 186 q 291 184 287 193 q 277 179 291 179 l 277 176 q 286 171 286 176 q 267 140 267 150 l 269 140 q 368 264 291 140 q 404 317 373 265 l 408 317 l 408 320 q 399 328 408 324 l 347 315 q 327 331 334 319 l 327 334 q 338 342 327 340 l 324 359 l 327 364 q 311 400 311 389 l 341 425 q 330 441 341 428 l 330 463 q 327 475 330 470 l 330 480 l 327 494 q 360 513 341 513 l 366 513 q 427 524 366 524 q 452 532 446 528 l 454 532 q 463 530 463 532 q 471 532 465 530 q 755 505 755 528 q 761 499 761 505 l 761 496 q 749 488 761 488 q 769 475 749 486 l 769 458 q 764 452 769 452 q 761 455 761 452 q 741 450 741 452 l 736 452 l 733 452 q 686 428 718 428 l 686 431 q 650 403 678 430 q 631 386 647 395 q 628 361 628 371 l 628 347 q 601 130 621 130 q 595 138 595 130 q 601 353 595 212 q 592 367 597 367 l 589 367 q 556 356 589 356 q 526 298 541 314 q 532 292 532 297 q 524 287 532 287 l 526 273 q 496 240 522 273 q 504 237 498 240 q 446 118 470 146 q 435 74 440 112 q 421 35 431 71 q 391 -3 404 3 q 352 -86 367 -61 l 352 -105 q 336 -130 352 -119 q 327 -153 336 -138 l 330 -158 q 321 -169 326 -169 q 313 -163 321 -163 q 288 -180 288 -163 l 288 -202 l 283 -210 l 277 -208 l 250 -241 l 236 -238 l 231 -241 q 205 -230 205 -234 q 261 -3 237 -130 q 258 5 258 2 q 217 -37 220 -37 l 214 -31 q 228 -1 214 -21 l 228 8 q 164 24 228 13 q 98 85 136 48 l 98 52 l 95 35 q 98 33 95 33 l 95 19 l 95 -17 q 81 -37 85 -37 q 68 118 72 -37 q 26 190 49 160 q 7 315 7 258 q 40 513 7 391 q 56 530 40 526 q 65 549 65 538 l 79 547 l 81 552 q 73 574 73 570 l 81 580 l 79 585 l 79 588 q 87 596 79 592 l 92 593 l 92 599 q 90 607 90 604 l 95 610 q 106 599 95 606 q 112 604 112 599 q 109 607 109 604 l 104 604 l 100 604 l 100 610 l 106 618 l 106 629 l 104 635 l 109 635 l 106 646 q 131 676 115 676 l 134 682 q 131 684 131 682 l 134 684 q 136 682 136 684 q 186 718 149 682 q 195 715 192 715 q 203 728 200 728 l 200 734 l 217 762 l 211 762 l 211 767 q 250 800 218 767 q 291 831 283 828 l 291 833 q 288 836 291 836 q 363 886 322 886 q 380 900 363 890 l 391 897 q 401 905 401 901 q 396 911 396 905 q 488 964 418 936 q 532 975 488 970 m 468 753 l 468 751 q 473 745 469 745 q 512 762 499 759 l 512 764 q 507 770 512 770 q 468 753 473 753 m 151 704 l 153 699 l 145 699 q 151 704 146 704 m 92 591 l 92 585 l 104 585 l 104 588 l 92 591 m 68 541 l 68 530 l 71 530 l 71 541 l 68 541 m 236 469 q 247 458 240 469 q 244 486 244 473 q 236 469 236 483 m 205 422 l 205 416 l 208 416 l 247 444 l 241 447 q 205 422 237 447 z "},"h":{"ha":620,"x_min":1,"x_max":610,"o":"m 503 1012 l 506 1012 q 516 985 511 1012 l 516 975 l 513 947 l 530 943 q 543 964 531 950 q 541 972 541 969 l 546 975 q 575 947 575 962 q 604 905 575 944 l 610 881 l 607 867 q 610 865 607 865 q 591 753 602 769 q 583 713 585 713 q 586 705 586 707 q 575 627 581 631 q 578 620 575 625 q 570 595 576 604 l 572 582 q 567 569 572 569 l 570 564 l 570 561 l 556 545 q 564 539 564 545 q 556 524 559 539 l 564 524 l 564 515 q 556 510 564 510 l 562 499 q 559 489 559 495 q 562 481 562 484 q 553 473 557 481 l 559 470 q 553 441 557 441 l 556 435 q 546 417 549 427 l 543 417 l 543 409 q 551 404 551 409 q 543 398 551 398 q 551 379 551 388 q 541 355 551 371 l 543 350 l 541 339 l 543 334 l 538 315 q 541 313 538 313 l 538 286 l 538 273 q 535 270 538 270 q 538 267 535 267 q 519 153 538 186 l 522 139 l 522 123 q 519 121 522 121 l 522 115 q 519 113 522 113 q 524 92 524 102 q 503 43 518 43 q 498 35 502 43 q 513 -5 509 -5 l 513 -18 q 498 -26 511 -26 q 481 75 481 -26 q 466 96 481 81 q 458 134 460 134 l 460 147 l 460 161 q 458 172 460 167 l 460 176 q 458 184 458 182 l 460 184 q 458 195 458 189 l 452 193 l 455 187 q 439 153 439 159 l 439 115 q 441 104 439 109 q 436 96 439 96 q 439 89 436 94 l 436 64 l 439 49 q 423 -90 433 -90 l 420 -90 q 407 3 407 -90 q 410 78 410 31 q 399 129 399 109 q 407 161 400 161 l 404 179 l 404 187 q 407 190 404 190 q 396 219 399 204 q 399 238 399 230 q 393 281 399 247 q 407 379 401 371 q 404 382 407 382 q 410 433 410 412 l 407 433 q 378 422 395 433 l 375 422 q 372 425 372 422 q 359 414 365 424 l 279 398 l 281 393 q 273 376 275 376 l 276 372 l 276 329 q 260 216 276 216 l 252 227 l 252 256 q 247 299 247 295 l 247 376 q 236 401 242 401 q 231 395 236 395 q 220 398 224 395 q 201 372 205 398 q 191 366 195 366 l 191 363 l 196 363 l 196 358 l 193 353 q 201 345 197 353 l 201 339 l 196 339 l 196 336 l 199 332 q 191 321 195 332 q 193 313 193 315 q 185 310 188 310 l 188 299 q 183 292 185 292 l 185 286 l 183 281 l 183 273 l 178 270 q 180 259 180 265 l 188 264 l 188 259 l 178 246 q 183 230 183 237 l 183 227 q 175 209 183 218 l 180 201 l 180 198 l 167 174 q 170 163 170 170 q 159 150 166 163 l 159 142 q 164 132 164 135 q 153 62 158 85 l 156 56 l 156 30 l 135 -10 l 127 -10 q 124 -7 124 -10 q 108 -21 120 -7 l 95 -21 q 79 -7 79 -12 q 92 104 88 84 q 90 113 90 110 q 71 104 79 110 l 65 104 l 58 110 q 52 104 58 104 l 44 104 l 41 99 q 44 96 41 96 q 28 22 37 22 q 15 75 15 22 l 15 102 q 1 134 15 132 q 4 142 1 136 l 1 161 l 12 219 l 9 224 q 12 235 12 229 l 12 238 l 7 238 q 55 638 20 281 q 84 793 55 730 q 113 913 113 907 q 138 929 121 924 q 140 921 140 924 l 148 921 q 180 905 156 921 q 185 932 180 918 l 180 935 q 212 961 180 944 l 212 964 q 210 966 210 964 l 215 969 q 218 966 215 966 q 236 993 218 977 l 239 993 l 241 980 l 247 983 q 252 977 248 977 q 258 983 253 983 q 295 953 272 976 q 300 932 300 943 q 295 905 300 905 l 298 892 q 273 715 284 826 q 244 617 258 646 l 250 614 l 244 564 l 271 564 q 364 569 278 564 l 386 569 l 401 566 q 426 593 426 566 l 433 665 l 431 670 l 433 684 q 431 694 433 690 q 433 718 433 709 l 433 740 q 436 750 433 745 q 433 761 433 755 q 455 950 433 838 q 473 1001 468 950 q 503 1012 488 1012 z "},"i":{"ha":460,"x_min":-70,"x_max":564,"o":"m 209 1031 l 226 1031 q 276 972 245 1026 q 281 970 276 970 q 360 964 330 969 q 371 967 365 967 l 382 967 q 416 962 416 966 l 421 964 q 435 962 431 964 l 449 964 q 519 939 519 954 l 519 925 l 513 917 l 513 914 q 564 897 549 914 q 544 844 553 844 q 533 847 539 847 l 530 842 l 505 847 q 488 844 503 847 l 444 850 q 433 827 433 832 l 435 822 q 433 810 433 817 l 433 808 q 441 802 433 802 l 441 800 q 433 797 438 800 l 427 800 q 401 783 401 800 q 399 747 399 770 l 399 739 q 396 582 399 681 q 388 568 393 568 q 368 797 374 568 q 354 802 354 797 l 340 800 l 323 802 q 315 800 318 800 l 315 797 q 321 791 316 791 q 313 707 318 736 l 307 707 l 307 719 l 304 719 l 304 707 l 307 707 q 304 699 304 702 q 307 691 307 694 q 296 680 302 691 l 296 677 q 304 671 304 677 l 296 657 q 304 637 304 647 q 301 629 304 635 l 307 585 q 298 507 301 585 q 293 501 293 506 l 298 492 l 296 481 l 296 473 q 288 465 292 473 l 296 454 q 281 431 285 454 l 290 414 l 290 406 l 281 406 l 285 392 q 276 373 285 383 l 276 370 q 285 367 279 370 l 281 339 l 281 336 l 285 322 q 276 314 280 322 l 276 311 l 285 300 l 285 286 l 296 286 q 276 267 296 281 l 276 256 l 273 256 l 273 247 l 279 250 q 285 244 285 249 l 279 236 q 281 211 279 226 q 279 208 281 208 l 281 194 l 281 163 q 360 155 295 155 q 363 158 360 158 l 376 149 l 368 130 l 349 133 l 329 130 q 323 136 329 136 q 301 119 301 122 l 321 116 l 340 116 l 349 111 l 363 111 q 399 99 389 111 q 408 102 404 102 q 416 96 408 96 l 416 94 l 401 94 l 396 96 q 385 60 396 75 q 388 58 388 60 q 379 54 382 54 l 379 52 l 385 52 l 385 46 q 363 41 380 46 l 357 43 q 340 41 355 43 l 326 43 q 318 41 321 41 l 313 43 q 288 13 292 43 q 285 10 288 10 q 290 -21 290 -5 q 254 -37 283 -21 q 243 -29 243 -33 l 243 7 q 237 13 243 13 q 223 4 223 9 l 226 -9 q 195 -24 198 -24 l 193 -18 l 193 10 q 184 13 184 10 l 178 10 q 168 13 174 13 l 165 -1 l 165 -29 q 156 -62 165 -36 l 156 -104 q 148 -127 156 -125 l 142 -127 q 125 7 134 -94 q 36 4 66 4 l 31 4 q 25 10 25 4 l 28 16 q 14 43 24 19 l 17 49 l 14 66 q 31 71 25 71 l 31 79 l 25 88 l 25 105 q 86 121 25 117 q 95 119 92 119 l 95 121 l 92 141 q 111 161 93 148 l 131 161 l 131 174 q 134 219 131 191 q 131 228 131 224 l 134 228 l 131 233 l 131 236 q 140 261 131 243 q 131 286 132 261 l 134 292 l 128 314 q 140 336 128 336 l 140 339 q 123 387 127 347 l 123 392 q 128 406 123 406 l 125 420 l 125 423 q 128 434 125 429 l 123 445 q 125 476 125 469 q 123 484 125 479 q 136 509 123 509 l 131 517 q 142 532 135 517 q 136 537 142 537 q 134 534 136 534 l 131 540 q 142 543 136 543 l 142 551 l 140 551 l 134 549 l 131 554 l 131 568 l 142 615 q 140 627 140 621 q 151 705 151 688 q 148 707 151 707 q 156 741 151 741 l 153 747 l 153 766 q 125 791 153 791 l 125 797 l 120 797 l 115 794 q 111 802 111 800 l 109 802 q 106 800 106 802 l 95 805 q 78 794 95 802 l 58 794 q 53 785 58 785 l 47 785 l 53 794 l 53 797 q 36 802 36 797 q 22 800 31 800 l 22 791 l 33 791 l 33 783 q 0 774 7 781 l 3 769 l 3 766 q -45 758 -3 766 l -59 758 q -64 764 -64 758 l -64 766 l -59 774 q -64 780 -64 774 l -56 791 q -70 800 -70 795 l -70 810 q -56 825 -70 814 l -59 830 l -59 833 q -56 844 -59 840 q -64 872 -64 871 l -53 889 q -22 900 -22 896 q 3 945 -22 932 q 131 964 22 954 l 131 962 q 156 970 150 965 l 173 967 q 184 972 180 972 l 184 978 q 201 1012 184 995 q 209 1031 201 1015 m 83 953 q 90 947 84 947 l 100 947 l 100 956 l 83 953 m 496 867 l 496 861 l 502 864 q 511 861 508 861 l 511 864 l 508 869 q 496 867 503 867 m 441 814 l 446 814 l 446 805 l 441 805 l 441 814 m 14 772 l 25 772 l 25 766 l 14 766 l 14 772 m 31 772 l 42 772 l 42 766 l 31 766 l 31 772 m 70 772 l 78 772 l 78 766 l 70 766 l 70 772 m 273 389 l 273 378 l 276 378 q 279 387 276 381 l 273 389 m 229 322 l 229 317 l 231 317 q 243 334 231 326 l 243 336 l 240 336 q 229 322 229 331 m 226 303 l 231 300 l 234 311 q 226 303 230 311 m 229 199 q 231 189 231 195 q 237 194 237 189 l 237 203 l 234 203 l 229 199 m 418 152 q 427 149 424 149 l 427 144 l 413 141 l 404 141 q 399 146 399 141 l 399 149 l 418 152 m 184 26 l 181 21 l 181 18 l 193 18 l 193 24 q 184 26 190 24 z "},"j":{"ha":609,"x_min":-19,"x_max":648,"o":"m 359 977 q 385 974 368 974 q 395 977 387 974 q 419 972 406 972 q 427 974 422 972 q 482 964 482 970 l 500 969 l 506 966 q 509 969 509 966 q 611 948 568 961 q 648 940 624 948 l 648 937 q 640 930 648 933 q 629 935 629 932 q 618 932 625 932 l 621 927 l 621 924 q 600 932 600 927 q 603 935 603 932 q 587 940 595 940 l 587 930 l 572 930 q 569 924 572 924 q 579 916 569 916 l 579 911 l 572 911 l 574 898 q 569 892 574 892 q 595 864 569 864 l 595 861 q 582 859 591 859 l 582 853 l 593 835 q 577 749 582 795 q 572 743 572 748 q 574 722 574 729 q 556 720 571 720 l 558 714 l 564 717 l 569 714 l 566 704 l 569 686 q 556 651 566 686 q 545 628 553 651 q 551 623 551 627 q 545 612 545 623 l 540 612 l 543 625 q 537 630 543 630 q 524 614 537 625 q 532 609 532 614 l 532 588 q 522 568 522 581 q 530 547 530 566 l 530 538 l 524 530 l 524 526 q 530 520 525 520 q 516 470 522 477 l 516 454 q 522 444 522 448 q 511 394 517 433 l 509 394 l 503 397 q 498 386 503 386 q 496 389 498 389 l 496 384 q 500 378 496 378 l 498 360 l 498 349 l 500 349 q 506 357 506 349 q 511 352 511 357 l 511 339 q 506 334 511 334 l 503 334 l 503 339 l 500 339 q 498 334 500 334 q 500 331 498 331 l 498 313 l 498 305 l 509 315 q 511 313 509 313 l 509 300 q 511 279 509 293 q 506 231 506 252 l 506 224 q 516 186 516 212 q 519 58 516 156 l 509 -2 q 506 -5 509 -5 l 503 -5 q 490 50 495 -3 q 493 53 490 53 l 490 71 l 490 116 q 482 119 488 116 l 479 113 q 482 105 482 108 q 461 98 468 102 l 448 105 q 451 113 448 108 q 448 134 448 127 l 446 134 q 437 119 437 132 l 437 95 q 435 92 437 92 l 437 87 l 437 77 l 440 50 l 437 50 q 448 35 437 47 q 440 22 440 26 q 446 5 446 13 l 446 1 l 443 1 l 437 3 l 435 -13 q 437 -16 437 -13 q 427 -20 431 -20 l 427 -39 q 435 -44 435 -39 l 435 -50 q 419 -62 425 -50 l 419 -110 q 406 -149 414 -149 q 401 -144 401 -149 l 401 -139 q 382 -62 401 -62 q 367 -16 378 -62 q 319 43 355 -16 l 309 50 q 291 29 292 42 l 286 26 l 277 26 l 212 142 q 207 153 207 142 l 204 153 q 196 111 196 153 l 196 77 q 189 61 196 63 q 168 205 176 61 q 162 213 165 205 q 165 224 165 218 q 146 242 165 227 l 141 242 l 144 237 l 141 237 q 125 255 138 237 l 125 258 l 131 265 q 104 284 113 265 q 86 307 100 285 l 86 315 q 50 363 72 315 q 41 373 50 373 q 39 370 41 370 l 39 373 l 41 378 q 20 415 36 378 q 10 439 14 415 q 18 441 15 441 l 18 460 q 28 457 24 460 q 39 460 33 460 q 57 452 45 460 l 62 452 l 62 457 l 57 465 l 57 481 l 60 494 q 110 447 81 494 l 123 439 l 133 439 l 141 444 l 144 444 q 168 431 151 437 q 228 349 168 420 q 235 352 233 352 q 286 310 254 352 q 349 237 293 286 l 354 239 l 361 239 l 361 234 l 367 234 l 367 237 l 361 245 l 361 263 q 364 265 361 265 l 361 271 l 361 273 q 367 279 362 279 l 367 268 l 372 268 l 375 294 l 375 302 l 372 307 l 367 305 l 364 305 l 364 318 l 370 318 l 370 313 l 375 313 l 375 326 q 364 331 364 326 q 372 334 370 334 l 372 339 l 367 339 l 367 347 l 370 347 q 377 345 375 345 l 377 349 q 375 357 377 357 l 377 370 l 377 381 l 375 386 q 380 391 380 386 l 375 394 q 382 452 382 439 l 377 460 l 380 460 l 385 457 l 385 463 l 382 473 q 388 484 385 484 l 385 488 q 388 496 385 491 q 385 505 388 499 l 391 557 l 385 581 q 388 602 388 591 l 395 602 l 393 614 q 404 675 398 619 l 398 675 l 398 680 l 404 688 l 398 696 l 398 701 q 406 707 398 707 l 406 714 q 409 725 406 720 q 406 728 409 728 l 409 741 l 406 753 q 414 770 414 756 q 406 780 408 770 q 409 788 409 785 q 404 793 404 788 q 406 795 406 793 l 382 798 q 377 793 382 793 q 372 798 377 798 l 364 798 l 367 793 l 367 790 q 354 793 358 790 q 346 790 351 793 q 312 793 323 793 l 301 790 l 296 793 q 277 783 277 787 l 277 696 q 270 662 277 690 q 273 588 273 608 l 267 586 l 264 586 q 252 633 258 586 l 254 638 q 249 659 254 643 l 252 665 q 243 793 246 689 q 238 801 241 801 l 225 798 q 222 806 222 804 l 173 806 l 173 804 l 186 801 l 186 795 l 183 795 q 110 790 124 795 q 99 793 105 793 q 73 790 96 793 q 44 838 56 802 l 47 843 q 10 856 39 853 q -6 877 10 867 q -19 916 -6 884 l -19 919 q 5 935 -19 923 l 5 937 l -1 945 l -1 948 q 44 964 13 964 l 170 964 q 259 974 214 964 q 264 972 264 974 l 283 974 l 312 974 q 359 977 334 974 m 566 943 q 572 937 567 937 l 579 937 l 579 943 l 566 943 m 600 911 l 608 911 q 603 906 608 906 l 600 906 l 600 911 m 535 644 l 535 633 l 540 633 l 543 646 l 543 649 l 540 649 q 535 644 535 648 m 561 644 l 564 644 l 564 641 q 558 635 564 635 l 556 635 l 556 638 q 561 644 557 644 m 553 623 l 556 623 q 561 617 561 622 l 556 614 l 553 614 l 553 623 m 503 444 l 503 436 l 509 436 l 509 444 l 503 444 m 99 399 l 99 391 l 113 391 l 113 397 l 99 399 m 110 389 l 110 386 q 115 376 115 380 l 117 376 l 117 378 q 110 389 113 389 m 133 357 l 133 355 q 146 339 133 339 l 146 342 q 133 357 137 357 m 498 300 l 496 286 l 500 284 q 503 286 500 286 q 500 300 500 291 l 498 300 m 138 284 l 138 281 q 146 271 142 271 l 146 276 q 138 284 146 280 m 149 268 q 157 250 157 257 l 162 250 q 152 268 159 268 l 149 268 m 367 265 q 372 239 372 243 l 375 239 l 375 252 l 372 265 l 367 265 z "},"k":{"ha":657,"x_min":5,"x_max":747,"o":"m 168 1151 q 192 1120 186 1140 q 235 1068 223 1120 l 241 1065 l 262 1086 l 272 1086 q 302 1059 302 1062 l 302 1053 l 287 961 l 281 961 l 275 964 l 272 949 q 278 943 273 943 l 278 955 l 281 955 q 287 949 287 954 l 284 933 l 278 933 l 278 939 l 272 939 l 272 930 q 262 909 272 920 l 262 903 q 272 884 265 884 l 272 890 l 278 890 l 281 878 q 272 860 278 860 l 272 876 q 260 857 268 876 q 262 848 262 851 l 272 854 l 278 851 l 275 836 l 278 814 l 272 811 l 269 811 l 262 814 q 269 832 269 824 l 269 842 q 248 839 256 839 l 254 829 l 254 793 q 248 787 254 787 q 244 789 248 789 l 244 768 l 235 768 l 232 732 q 238 722 238 732 q 370 848 245 722 q 422 882 376 848 l 428 882 l 428 878 q 410 854 410 863 l 410 851 l 412 851 q 465 894 447 893 l 477 888 l 513 903 l 513 909 l 507 918 l 507 930 q 538 952 524 930 l 538 955 l 535 955 l 529 952 l 526 958 q 541 970 541 962 l 553 970 q 593 939 587 952 l 593 933 l 590 915 q 612 897 590 899 l 612 894 q 581 869 591 869 l 581 863 l 584 863 l 593 869 l 596 869 l 602 866 q 618 876 602 873 l 618 872 l 575 836 l 575 832 l 578 832 q 661 882 644 882 l 667 878 q 694 884 673 884 l 694 882 l 701 882 q 731 903 701 891 l 734 909 q 728 915 728 909 l 728 918 l 734 918 q 747 903 734 914 q 725 882 739 903 q 673 832 694 859 q 633 799 667 832 q 600 771 601 777 q 602 768 602 771 q 569 750 593 768 l 569 734 q 557 707 557 723 q 559 606 559 623 q 541 575 559 585 q 535 557 541 557 q 519 600 526 557 l 519 640 q 517 692 519 656 l 511 692 q 505 682 511 682 l 498 682 l 492 686 q 465 649 484 659 l 450 649 l 452 643 q 431 609 431 631 l 434 609 l 434 603 l 425 603 l 425 609 q 418 603 418 608 q 422 593 422 597 q 394 585 404 589 l 397 578 l 394 560 q 477 391 421 488 q 486 364 486 367 l 480 364 l 471 370 l 465 370 q 489 336 473 349 l 486 352 l 486 361 l 489 361 q 513 315 503 342 q 505 312 507 312 q 535 251 524 251 l 535 248 l 532 241 q 566 208 561 208 l 563 201 l 563 199 l 569 189 l 566 174 q 578 165 578 173 q 575 156 575 159 l 581 159 l 584 159 q 624 92 624 104 l 640 92 q 682 27 661 64 q 691 18 686 27 q 688 9 688 12 q 694 3 694 8 l 694 0 q 682 -13 690 0 l 664 -13 q 602 43 664 -5 l 596 45 l 590 45 l 590 43 l 600 31 l 600 27 l 596 27 q 559 45 568 27 l 559 49 q 572 55 572 49 q 557 79 559 55 l 535 79 q 529 88 529 79 l 523 88 l 523 85 l 532 70 l 532 27 l 538 18 q 532 12 532 17 l 532 -31 q 513 -111 523 -111 q 489 79 501 -111 q 434 146 434 113 q 388 214 412 165 q 351 266 368 224 q 339 272 347 266 l 336 272 q 339 156 339 188 q 321 101 330 101 q 302 251 302 101 q 296 309 300 257 l 299 309 q 262 395 299 347 q 244 422 244 417 l 238 422 l 241 416 l 241 413 q 189 355 213 384 l 192 342 q 183 302 189 319 l 186 288 q 180 254 180 255 q 186 233 180 248 q 146 174 186 197 q 149 165 149 168 l 155 168 l 159 162 l 159 119 q 134 107 159 116 l 131 79 q 134 67 134 74 q 103 27 126 62 q 100 31 100 27 q 82 15 96 31 l 70 15 q 66 18 66 15 l 60 15 l 58 15 q 45 43 45 19 l 45 116 q 48 144 45 127 l 45 150 q 60 199 45 180 l 60 211 q 58 208 58 211 q 12 239 12 208 q 9 263 9 251 l 9 296 q 5 309 9 304 l 12 321 q 9 349 9 338 q 24 355 16 355 l 24 367 q 9 376 9 370 l 21 404 l 18 410 l 21 425 q 15 407 15 425 l 9 407 l 9 429 q 15 435 9 435 q 21 429 16 429 l 27 429 q 39 444 27 436 l 39 447 q 21 459 30 447 l 24 453 q 18 447 24 447 l 12 447 q 24 585 15 536 q 30 597 30 585 q 24 603 24 597 q 33 609 24 609 l 27 618 l 27 633 l 45 646 l 45 649 q 33 673 40 673 q 45 719 33 681 l 52 716 l 54 716 l 54 719 l 42 732 q 60 753 60 747 q 54 762 54 753 q 48 753 48 762 l 42 753 l 42 771 q 48 795 42 784 q 45 799 45 795 q 54 802 52 802 l 54 811 l 52 817 q 66 845 58 818 q 52 854 52 848 l 52 857 q 54 860 52 860 l 52 866 l 52 888 l 54 888 l 60 884 l 64 890 q 58 897 58 890 l 58 903 l 60 918 l 54 921 q 76 973 54 973 q 100 991 76 978 q 119 1108 100 1036 l 116 1114 q 168 1151 138 1151 m 52 312 q 42 288 47 295 l 42 284 q 58 300 46 284 l 58 306 q 52 312 58 312 m 12 288 q 15 278 15 281 l 21 278 l 21 281 q 18 290 18 288 l 12 288 m 517 290 l 526 290 q 519 284 526 284 l 517 290 m 538 269 l 541 263 l 541 260 l 538 260 q 532 266 532 260 l 538 269 m 581 201 l 584 195 l 578 193 l 575 193 l 575 195 q 581 201 576 201 m 563 116 l 563 113 q 569 107 564 107 l 572 107 l 572 116 l 563 116 z "},"l":{"ha":266,"x_min":9,"x_max":245,"o":"m 115 1028 l 136 1028 q 161 993 157 993 l 161 987 q 155 966 161 979 q 158 958 158 960 l 172 974 l 191 966 l 196 968 l 201 966 q 212 968 206 968 q 245 939 245 949 l 245 936 q 223 841 229 880 l 234 814 q 218 757 234 789 q 220 719 220 723 q 215 689 218 693 l 218 673 l 218 665 q 215 662 218 662 q 231 640 215 652 q 218 488 231 549 l 220 472 q 207 420 214 420 q 201 415 201 420 q 210 380 203 386 l 210 374 q 193 296 201 368 q 188 290 188 295 q 199 274 191 290 l 199 244 q 182 171 199 194 l 188 168 q 191 171 188 171 l 193 165 l 193 146 q 188 141 193 141 l 191 122 l 191 117 l 182 117 l 182 109 q 191 103 191 109 q 193 52 191 81 q 188 3 191 3 q 172 -5 179 3 l 155 -5 l 153 -19 q 155 -24 153 -24 q 142 -100 151 -100 q 117 11 127 -100 q 115 16 115 11 l 109 14 q 93 33 103 30 l 96 46 l 96 73 q 98 119 96 87 l 96 119 q 82 100 92 119 l 71 98 l 66 106 l 60 103 q 44 114 58 103 q 25 92 28 92 l 22 92 q 9 111 9 106 q 17 228 17 222 l 20 228 q 17 236 17 233 q 28 271 23 264 q 22 277 22 271 l 22 304 q 33 420 33 383 l 36 420 q 33 429 33 426 q 41 475 38 434 q 36 483 36 475 q 47 608 36 509 l 44 621 q 50 640 46 640 q 47 648 47 646 q 58 765 47 725 l 55 770 q 58 773 55 773 l 55 787 q 68 890 55 814 q 66 936 66 918 l 71 939 l 74 939 l 79 936 q 87 963 87 958 l 87 990 l 115 1028 m 210 486 l 210 475 l 212 475 l 212 486 l 210 486 m 207 467 l 207 450 l 210 450 l 212 469 l 212 472 q 207 467 207 471 m 44 136 l 44 125 l 47 125 l 47 136 l 44 136 z "},"m":{"ha":852,"x_min":7,"x_max":865,"o":"m 81 996 l 89 996 l 89 991 l 86 985 l 92 983 l 94 983 q 100 991 94 991 l 111 991 l 116 988 q 121 996 116 996 l 124 996 l 135 983 l 146 991 l 151 991 l 151 988 q 149 980 149 983 l 154 983 l 162 983 q 178 964 162 979 q 200 934 184 934 q 208 926 206 926 l 205 920 q 214 893 214 909 q 208 888 208 892 q 211 877 211 883 l 208 877 q 224 839 216 852 l 238 842 l 241 842 q 243 839 243 842 l 249 842 l 254 842 q 311 766 294 823 q 328 717 328 722 q 325 695 325 698 q 355 616 325 688 q 390 530 368 530 q 439 595 433 595 q 477 663 440 610 q 498 692 490 666 q 542 720 534 720 l 539 725 l 539 728 q 558 752 552 736 l 564 755 l 574 755 l 572 749 l 572 739 l 580 739 q 623 771 605 771 q 626 768 623 768 q 653 787 640 784 l 653 782 q 629 752 648 782 l 629 747 l 637 752 l 640 752 l 640 744 q 631 739 631 744 l 648 739 q 677 777 648 752 q 732 836 712 836 l 729 842 l 729 844 q 767 885 755 880 q 821 945 767 893 q 851 969 821 949 l 859 969 q 865 956 859 962 q 840 915 844 925 q 800 882 812 901 q 816 869 812 880 l 813 852 l 816 852 l 821 855 l 824 850 l 824 844 q 794 774 809 823 q 810 755 804 771 q 802 644 808 665 l 805 638 q 791 554 800 578 q 794 532 794 544 l 791 532 q 794 530 791 530 q 783 454 790 454 l 786 448 l 786 443 q 778 427 778 437 q 783 421 783 426 q 762 397 783 409 l 762 394 q 770 380 762 380 l 770 370 q 762 364 770 364 l 762 361 l 767 353 q 759 299 764 317 q 772 272 759 286 q 756 248 763 263 l 759 234 l 753 223 q 756 204 756 212 q 751 188 751 195 q 753 185 753 188 l 748 182 l 753 139 q 748 115 751 134 q 753 71 753 79 l 745 66 q 743 68 745 68 l 743 52 l 745 52 l 745 63 l 751 63 q 753 44 751 55 q 734 14 753 27 q 710 20 717 20 l 707 20 q 713 -2 713 3 q 694 -83 694 -2 q 677 -168 684 -83 l 669 -173 q 659 -157 664 -173 q 672 -78 659 -145 l 669 -73 q 672 -70 669 -70 l 669 -56 l 669 -10 q 661 -7 667 -10 q 645 -13 652 -13 q 634 3 640 3 l 631 3 l 621 -5 q 604 6 608 6 l 607 20 l 607 39 l 612 39 l 612 33 l 615 33 l 615 50 l 607 50 l 607 55 q 610 58 607 58 q 607 60 610 60 l 610 74 l 610 85 l 612 85 l 618 82 l 621 101 q 607 128 614 101 q 612 136 610 136 l 610 142 l 610 172 q 615 177 610 177 l 610 188 q 612 201 612 191 q 604 234 606 201 l 607 245 l 604 250 q 610 283 610 269 l 610 286 l 615 286 l 615 280 l 623 280 q 640 291 635 280 q 631 307 636 307 l 634 321 q 618 342 634 332 l 618 359 q 629 372 627 372 l 626 378 l 626 405 l 631 405 l 631 397 l 634 397 q 640 408 634 401 l 631 418 l 631 424 q 642 440 637 424 l 637 448 l 637 454 q 648 492 648 470 q 645 500 645 497 l 650 503 l 648 508 l 648 522 q 637 532 637 522 l 645 546 l 645 551 l 642 557 q 566 467 629 557 q 536 435 536 444 l 536 367 q 528 340 536 357 q 515 237 524 237 q 501 383 507 237 l 496 383 q 455 315 472 334 q 431 269 455 311 q 420 242 431 256 q 436 210 420 236 q 412 182 433 210 q 382 223 387 223 l 371 223 q 366 215 371 215 l 344 245 l 344 253 l 349 272 l 341 267 l 338 267 q 336 283 336 281 l 341 280 l 341 288 l 336 288 l 336 283 q 281 394 294 351 q 276 408 277 394 q 292 416 276 416 l 292 421 l 290 421 q 276 416 281 416 q 254 456 254 445 l 257 467 q 246 473 253 467 l 243 473 q 227 375 243 430 q 230 367 230 370 q 222 364 224 364 l 222 361 l 227 353 l 224 340 q 227 337 227 340 q 216 326 224 337 l 219 321 q 216 318 219 318 q 222 296 222 301 q 214 283 218 283 q 200 304 214 296 q 189 296 200 296 l 189 294 l 195 294 l 195 288 q 168 269 184 288 q 181 248 176 248 l 189 248 q 195 269 195 262 l 200 269 l 200 256 q 205 250 201 250 q 211 275 205 262 l 216 275 l 219 261 q 214 231 217 231 q 216 229 214 229 l 214 215 l 216 201 q 203 193 208 193 l 208 185 l 208 172 l 205 172 l 197 177 q 192 161 197 170 q 195 153 195 155 l 189 153 l 184 155 l 184 150 l 195 131 l 195 128 l 184 128 l 178 131 q 176 128 178 128 q 178 47 178 74 l 178 14 q 176 12 178 12 q 178 9 176 9 q 168 -37 176 -37 q 149 14 149 -26 l 149 52 l 143 52 q 108 12 143 12 l 105 12 q 100 17 100 12 l 100 28 q 121 115 100 36 l 121 125 l 119 125 q 108 123 114 123 q 102 134 102 130 q 75 115 87 115 q 70 120 75 120 l 67 120 q 62 96 62 102 l 62 90 q 40 79 50 90 l 24 82 q 21 79 24 79 q 16 85 21 85 l 10 82 q 7 90 7 87 q 29 215 19 189 l 29 218 q 26 229 29 229 l 32 304 q 24 323 24 321 q 26 440 24 336 l 35 467 q 26 481 26 476 q 37 519 35 493 q 32 524 32 519 q 40 554 32 533 l 37 565 l 40 570 q 37 578 40 573 q 43 619 41 614 l 37 638 l 45 692 q 43 695 45 695 l 54 814 l 51 820 q 56 844 56 840 l 54 850 q 70 945 62 909 q 67 953 70 947 q 81 996 72 994 m 802 871 l 802 863 l 808 863 l 808 871 l 802 871 m 580 763 l 583 763 l 583 760 q 577 755 583 755 l 574 755 l 574 758 q 580 763 575 763 m 612 733 l 615 733 q 621 739 621 733 l 621 741 q 612 733 616 741 m 547 709 q 574 720 562 720 l 574 722 l 572 736 l 566 736 q 547 709 547 714 m 574 695 l 574 690 l 577 690 q 602 703 591 700 q 599 714 599 708 l 596 714 q 574 695 581 695 m 526 690 l 526 687 l 528 687 q 545 703 536 687 l 539 706 q 526 690 530 690 m 561 625 l 561 619 l 566 619 q 574 630 570 619 l 566 630 q 561 625 561 629 m 558 611 l 558 608 l 564 608 l 564 616 q 558 611 558 616 m 333 587 l 333 578 l 344 578 q 347 587 344 581 l 333 587 m 178 522 l 178 519 q 184 505 184 512 q 195 516 188 505 l 195 527 l 192 527 q 178 522 183 522 m 637 511 l 640 511 q 645 505 645 510 l 645 503 l 642 503 q 637 508 637 503 l 637 511 m 775 503 q 767 494 775 494 l 767 492 q 772 486 768 486 l 775 486 q 778 500 775 495 l 778 503 l 775 503 m 254 494 l 262 489 l 262 500 l 260 500 q 254 494 254 499 m 314 383 q 328 375 319 383 l 330 375 l 330 378 q 319 389 330 382 q 314 383 314 388 m 303 383 l 303 378 q 319 361 303 374 l 319 370 q 303 383 315 380 m 178 345 l 176 340 l 176 334 q 186 323 180 334 q 195 326 192 326 l 195 329 q 178 345 191 329 m 203 323 l 203 315 q 214 321 210 321 l 214 323 l 203 323 m 181 307 q 173 310 176 310 l 173 304 l 189 304 l 189 313 l 181 307 m 195 229 l 197 215 l 195 215 q 197 207 197 210 l 203 207 q 208 229 203 229 q 205 245 205 233 q 195 229 195 242 m 178 218 l 178 212 l 189 212 l 189 218 l 178 218 m 105 188 l 105 182 q 111 188 111 182 l 111 193 q 105 188 105 193 m 737 6 l 743 6 l 743 -5 q 737 -10 743 -10 l 737 6 m 743 -32 q 751 -73 749 -32 q 737 -48 747 -73 l 737 -37 q 743 -32 738 -32 z "},"n":{"ha":688,"x_min":0,"x_max":709,"o":"m 669 1036 q 683 1019 669 1029 l 683 1010 l 697 1013 q 709 996 697 1010 l 709 981 q 677 804 695 960 q 657 659 667 791 q 646 627 646 635 q 649 618 646 618 l 629 507 l 629 487 l 634 478 l 626 467 l 626 464 q 606 347 626 386 l 606 338 q 609 335 606 335 q 603 270 603 304 q 606 267 606 270 l 600 267 l 600 258 q 606 267 606 258 l 612 267 l 612 264 l 603 247 q 609 241 609 246 l 609 224 l 600 212 q 606 195 606 203 q 589 153 589 159 l 591 141 q 580 96 587 96 l 583 90 q 577 52 577 56 q 583 30 583 42 l 583 24 q 551 4 569 4 l 546 7 q 517 1 533 1 q 506 4 507 4 l 506 1 q 523 -36 506 -13 q 529 -47 523 -41 q 523 -54 529 -54 q 497 -10 513 -45 q 500 1 500 -5 q 486 16 486 1 l 483 16 l 480 4 l 483 -10 l 480 -10 q 477 -7 477 -10 q 460 -19 473 -7 q 423 75 446 -5 q 389 161 412 89 q 334 284 361 210 l 329 284 l 326 270 l 326 190 q 323 113 326 165 l 317 110 l 315 110 q 294 321 303 110 q 260 458 294 383 q 231 532 231 515 q 240 538 231 538 l 240 544 q 217 564 217 556 q 197 604 209 604 q 200 587 200 589 q 160 233 179 233 l 165 190 q 163 181 163 184 q 172 172 168 181 l 169 138 l 172 127 q 169 124 169 127 q 151 130 159 130 q 155 90 155 94 l 143 70 q 149 64 149 69 l 143 56 l 143 52 q 160 21 157 52 l 155 18 q 140 30 140 27 q 125 -7 125 30 q 111 -76 125 -45 q 103 -99 109 -99 q 94 -90 98 -99 l 94 -64 q 92 -50 94 -56 l 94 -33 q 92 44 94 -26 q 83 75 83 44 l 83 81 l 75 81 l 75 73 l 66 73 q 49 81 51 73 l 49 98 q 52 101 49 101 q 26 132 52 132 q 3 184 26 159 q 0 195 0 189 q 9 258 0 227 l 9 264 q 17 481 17 370 q 23 530 23 519 q 20 538 23 532 q 40 699 29 669 q 37 701 40 701 q 77 913 37 757 q 97 956 77 942 l 109 956 q 157 921 129 956 l 160 921 l 157 927 q 163 941 157 941 q 160 949 160 947 q 169 967 163 967 l 183 964 l 183 981 q 189 987 184 987 l 191 981 l 189 964 l 203 964 l 209 961 q 217 972 213 972 l 240 927 l 237 927 q 243 913 243 918 q 237 867 243 888 q 283 827 237 859 q 340 673 311 724 q 372 624 340 667 q 414 527 372 620 l 414 521 l 409 518 q 406 527 406 524 q 400 518 400 527 q 403 470 403 479 q 400 467 400 470 q 406 461 406 466 l 400 458 q 397 461 400 461 l 394 450 l 406 450 l 406 455 l 414 455 q 429 427 414 450 l 429 418 q 420 415 423 415 l 423 410 l 417 401 q 426 398 423 398 l 426 395 l 423 390 q 434 381 434 388 l 417 364 q 426 355 417 359 q 429 358 426 358 q 446 324 446 326 q 454 327 452 327 l 454 332 l 449 332 q 460 347 460 340 q 474 541 465 360 q 480 547 480 541 q 477 564 480 549 q 494 627 477 586 l 489 635 l 489 650 q 497 684 489 662 l 494 690 q 506 709 502 709 l 509 690 q 503 684 503 689 q 511 667 511 673 l 517 667 l 520 684 q 511 690 511 684 q 526 701 520 701 l 526 715 l 532 724 l 532 761 q 560 850 545 781 l 566 852 q 574 844 566 848 l 577 855 l 580 855 l 589 850 l 597 850 q 626 949 606 850 l 626 956 l 629 956 l 634 953 q 643 984 643 983 q 637 989 637 984 q 669 1036 640 1007 m 517 784 l 520 784 l 523 767 q 511 741 517 767 l 509 741 q 517 784 511 784 m 506 741 q 511 735 511 741 l 511 730 q 506 735 506 730 l 506 741 m 506 647 q 500 635 506 642 q 511 633 507 635 l 514 638 q 511 647 511 644 l 506 647 m 374 584 l 374 581 q 380 575 375 575 l 380 578 q 374 584 380 584 m 383 570 l 383 564 q 391 547 391 555 l 394 547 l 394 553 q 383 570 388 570 m 280 438 l 280 435 q 283 427 283 430 l 289 430 q 286 438 286 435 l 280 438 m 412 421 l 412 418 l 420 418 l 420 427 l 417 427 q 412 421 412 426 m 446 295 l 446 278 l 452 278 l 452 295 l 446 295 m 449 210 l 449 207 q 452 190 449 205 l 446 190 l 446 186 l 452 186 q 454 190 452 190 q 469 161 469 168 l 466 161 q 460 170 460 161 l 457 170 q 454 161 457 167 q 474 106 466 145 l 483 106 q 492 130 483 117 l 489 136 l 492 150 q 466 190 487 152 l 469 204 q 449 210 457 210 m 417 138 l 414 118 l 420 115 l 426 115 q 429 132 426 128 q 417 138 425 132 m 426 113 l 426 104 l 431 101 l 431 104 q 429 113 429 110 l 426 113 m 431 92 q 452 33 431 85 l 460 33 l 457 38 l 463 41 q 480 18 480 24 l 483 18 l 483 26 l 477 35 q 486 64 484 43 l 477 58 l 469 58 l 457 73 l 454 73 l 454 70 q 457 61 457 64 l 452 61 q 437 92 441 61 l 431 92 m 483 -22 l 486 -22 l 486 -33 q 483 -36 486 -36 l 486 -42 q 477 -50 486 -46 l 474 -50 q 466 -33 466 -47 q 474 -28 466 -28 l 483 -28 l 483 -22 z "},"o":{"ha":629,"x_min":3,"x_max":602,"o":"m 366 979 l 368 972 q 371 975 371 972 q 401 970 397 970 l 407 972 q 431 958 431 968 l 440 964 l 443 958 l 449 960 q 479 930 479 949 l 485 934 q 538 871 486 928 q 595 733 595 791 q 599 722 599 733 l 595 673 q 599 629 599 647 q 589 623 589 629 q 602 614 602 623 q 593 569 599 585 l 595 563 q 581 548 595 548 q 587 518 583 526 q 574 485 579 518 l 581 485 l 581 479 q 551 368 567 404 q 515 270 528 347 q 497 135 507 135 q 482 81 486 135 l 473 75 q 467 81 467 75 q 470 138 470 129 l 467 150 q 470 168 470 155 l 467 174 q 470 186 470 179 l 470 192 l 464 192 q 428 144 453 144 q 407 69 409 107 q 371 24 390 54 q 366 31 366 24 q 341 -3 356 29 l 315 -26 q 296 -20 304 -20 l 302 -29 q 296 -35 302 -35 l 288 -35 q 281 -29 281 -35 l 305 7 l 302 7 l 285 -3 q 183 18 224 -3 l 180 18 q 171 16 177 18 q 132 28 165 16 q 114 -131 120 -52 l 105 -137 l 99 -137 q 90 -110 94 -137 l 93 -98 q 96 3 93 -84 q 48 171 92 88 q 6 267 48 212 l 3 302 l 3 317 l 9 327 q 6 336 9 336 q 16 446 16 384 q 21 452 16 452 q 18 455 21 455 q 45 515 34 515 l 52 515 q 60 512 57 512 q 69 539 69 534 q 60 559 60 541 q 45 527 54 559 l 42 527 l 42 533 l 52 566 q 42 602 48 585 q 87 718 56 665 l 177 835 q 228 904 183 855 q 366 979 298 979 m 422 799 q 443 769 439 769 l 443 772 l 440 790 l 449 805 l 449 808 q 440 814 449 814 q 422 799 422 808 m 273 590 l 267 590 q 260 595 260 590 q 258 680 258 656 q 237 635 254 680 q 231 625 233 625 l 234 620 q 216 602 231 602 l 216 599 l 222 599 l 222 587 q 201 473 213 553 q 192 476 195 476 l 192 461 q 189 458 192 458 q 192 455 189 455 l 189 440 q 192 393 192 410 l 189 393 q 203 311 195 375 l 198 309 l 201 302 l 201 300 l 198 294 q 213 264 203 294 l 210 258 q 252 171 235 171 q 275 165 252 165 q 383 270 311 165 q 404 315 404 313 l 428 383 l 422 422 q 437 455 428 455 q 446 452 443 452 l 449 458 q 446 461 446 458 l 440 458 l 434 458 q 422 497 434 475 l 428 497 l 434 494 l 434 512 q 419 533 429 512 q 434 566 434 550 q 425 572 425 566 l 425 575 l 434 575 l 434 578 l 428 587 q 434 593 434 587 q 425 605 429 605 l 428 620 l 428 623 q 410 631 425 623 l 413 637 l 410 652 q 413 665 413 658 q 407 671 407 665 l 407 673 l 410 680 q 401 703 404 680 q 362 784 376 784 q 285 650 285 741 q 273 590 285 590 m 87 616 l 84 610 l 84 608 l 87 608 q 93 614 93 608 l 87 616 m 245 620 l 252 620 l 252 610 q 245 605 252 605 l 243 605 l 245 620 m 243 602 l 245 595 l 245 593 q 239 587 245 587 l 237 593 l 237 595 q 243 602 237 602 m 42 500 l 39 494 l 39 488 l 42 488 q 48 497 42 497 l 48 500 l 42 500 m 192 491 l 192 482 q 198 488 198 482 l 192 491 m 234 117 l 234 111 l 243 102 l 258 105 l 267 105 q 269 114 267 109 l 264 117 l 258 114 l 252 117 q 239 114 246 114 l 234 117 m 320 43 l 311 28 l 315 28 q 326 39 319 28 l 320 43 z "},"p":{"ha":576,"x_min":0,"x_max":555,"o":"m 122 1032 l 127 1032 q 158 967 158 1005 q 197 988 176 973 q 215 991 205 988 l 218 985 l 213 978 l 233 978 q 257 981 243 978 q 324 952 262 981 q 355 947 331 952 l 368 949 q 407 947 391 947 l 415 947 q 485 905 466 934 q 537 789 537 826 q 534 781 537 786 q 547 685 540 724 l 553 687 l 555 687 l 555 685 q 532 627 532 633 q 534 433 534 494 l 529 431 l 524 431 q 516 438 520 431 q 509 545 516 454 q 449 485 475 495 q 446 488 449 488 q 454 508 454 505 l 449 508 q 444 498 449 498 l 441 498 l 436 500 q 433 495 436 495 l 436 490 q 418 472 436 488 l 405 475 q 371 438 380 446 q 374 431 374 433 l 366 425 l 348 425 q 345 428 345 425 q 317 412 317 422 q 319 368 319 382 l 319 296 q 306 228 319 233 l 303 228 q 290 288 297 228 q 275 397 287 293 l 273 397 q 257 394 259 394 q 200 410 215 394 q 179 431 184 420 q 161 444 172 431 q 158 435 161 441 q 171 420 163 435 l 171 418 l 169 405 q 176 399 176 405 q 158 368 176 381 q 153 376 153 368 q 155 391 153 378 l 153 397 l 155 412 l 151 415 q 148 387 151 396 q 151 366 151 376 l 148 366 q 151 363 148 363 l 148 350 l 148 340 l 140 340 l 140 332 l 145 334 l 148 334 l 151 309 l 151 306 l 148 293 l 142 293 l 142 298 l 138 298 l 132 275 l 132 264 q 142 239 140 264 l 148 239 l 148 228 q 142 236 142 228 l 140 236 l 138 223 l 138 205 q 125 199 138 199 l 125 195 l 130 186 q 127 158 127 164 q 130 155 130 158 q 125 151 125 155 q 130 148 130 151 q 125 132 125 139 l 125 119 q 127 111 125 111 l 125 98 l 125 60 l 127 44 q 111 28 125 35 q 106 44 106 28 l 101 44 l 101 28 l 98 28 l 91 34 q 85 28 91 28 l 88 23 l 88 20 l 85 20 l 81 23 l 78 18 l 78 16 q 91 10 86 16 q 98 13 96 13 q 104 7 99 7 l 98 -18 l 101 -24 l 98 -28 l 101 -41 l 88 -47 l 83 -44 q 75 -47 78 -47 l 62 -26 l 57 -28 l 47 -28 q 39 13 39 -28 l 41 18 q 37 34 37 28 l 39 39 q 37 47 39 41 q 44 106 37 52 q 41 117 41 111 q 44 127 44 121 q 21 148 40 127 l 21 142 l 16 142 q 10 155 16 147 q 13 163 13 161 q 0 197 5 163 l 0 212 l 7 270 l 5 286 q 10 384 10 352 l 5 397 q 18 654 12 416 q 52 908 35 908 q 85 952 67 952 l 85 954 l 81 962 q 104 998 100 962 q 122 1029 109 998 l 122 1032 m 264 825 l 262 819 q 264 817 264 819 q 275 819 269 819 l 275 822 l 264 825 m 246 724 l 244 724 q 229 789 237 724 l 226 789 l 189 760 q 169 708 174 760 q 161 701 161 708 q 174 583 174 620 l 179 581 q 345 635 243 581 q 358 682 352 682 l 361 682 l 361 674 l 363 674 q 374 734 374 726 l 374 736 l 368 734 l 366 734 l 371 775 l 361 791 l 311 802 q 286 796 289 796 q 280 802 286 802 l 267 802 q 254 729 262 802 l 246 724 m 361 713 l 366 713 l 366 701 q 361 695 366 695 l 361 713 m 358 671 l 358 659 l 361 659 l 361 671 l 358 671 m 205 495 q 176 498 182 498 l 176 488 q 197 479 178 479 l 208 479 q 218 485 208 485 q 220 479 218 479 q 267 503 267 486 l 264 503 q 205 495 240 495 m 151 444 l 151 428 l 155 428 l 153 444 l 151 444 m 155 358 l 161 358 l 163 347 l 158 345 l 155 350 l 155 358 m 155 319 l 163 319 l 163 303 q 158 298 163 298 q 153 303 153 298 l 153 306 l 155 319 m 166 314 l 174 314 l 174 309 q 169 303 174 303 l 166 303 l 166 314 m 155 293 l 161 293 l 161 286 l 155 286 l 155 293 m 142 283 l 148 283 l 151 272 l 145 270 l 142 275 l 142 283 m 153 243 l 161 243 l 161 233 q 155 228 161 228 l 153 228 l 153 243 m 10 130 l 16 130 l 16 119 l 10 119 l 10 130 m 7 111 l 13 111 l 13 91 l 7 91 l 7 111 m 23 109 q 26 106 23 106 q 18 83 23 83 l 16 88 q 23 109 16 108 m 5 85 l 10 85 l 10 67 l 18 73 l 21 73 l 21 54 q 16 50 21 50 l 13 50 l 13 52 q 16 60 16 57 l 10 62 l 10 50 l 5 50 l 5 85 m 16 3 q 21 -3 21 2 q 16 -8 21 -8 l 10 0 l 16 3 z "},"q":{"ha":757,"x_min":-12,"x_max":774,"o":"m 532 1015 l 558 1015 q 576 994 576 1002 l 591 994 q 620 968 608 968 q 756 924 743 939 q 774 882 770 924 q 765 870 770 870 l 762 870 q 750 876 755 876 l 735 873 q 680 906 735 899 q 614 924 677 909 q 606 921 608 921 q 593 924 599 921 q 547 915 559 921 l 547 911 q 591 894 547 906 l 591 891 q 585 885 585 890 q 647 797 647 835 q 641 791 641 795 q 661 737 652 737 q 673 773 667 737 q 656 847 665 800 q 647 867 652 847 q 680 882 647 880 q 730 817 730 852 l 730 779 q 712 785 724 779 q 709 776 712 782 q 721 758 713 776 l 721 749 q 709 732 709 737 q 712 723 709 728 l 709 705 l 709 699 q 726 682 726 699 q 712 608 721 632 q 718 593 718 608 l 726 599 q 730 590 730 593 q 724 575 724 580 l 721 575 l 715 578 l 709 569 q 715 563 715 568 l 715 560 q 706 545 706 551 q 694 477 706 493 q 706 439 706 467 l 706 427 l 685 410 q 680 415 685 415 q 671 404 680 404 l 667 404 l 661 406 l 659 401 l 659 397 q 671 389 671 396 q 632 338 665 365 q 629 318 632 321 q 632 306 632 313 l 632 297 l 629 297 l 620 303 q 600 247 615 270 q 588 241 600 241 l 588 238 l 602 194 q 671 90 616 169 l 667 75 l 661 75 l 656 79 q 647 40 656 40 q 652 16 652 29 q 623 -1 652 -1 q 600 -4 612 -4 l 578 -1 q 602 -58 602 -50 q 573 -78 586 -78 l 558 -78 q 537 -176 547 -176 l 534 -176 q 514 -43 521 -176 q 454 61 475 61 q 431 64 443 61 q 393 40 407 40 l 393 37 l 399 37 l 399 31 l 328 5 q 295 -81 325 -81 q 280 1 280 -56 l 275 5 l 257 5 q 162 31 227 5 l 147 31 l 130 28 q 62 87 103 28 q 12 271 32 178 q 14 273 12 273 l 12 288 l 12 297 q 20 318 20 311 q -6 404 7 386 q -12 415 -6 415 q 26 528 16 528 l 23 534 l 23 536 q 38 549 38 545 l 59 602 q 79 673 68 621 q 106 705 79 690 l 103 720 q 144 770 106 720 l 142 776 q 165 820 165 808 l 153 814 l 151 820 l 168 835 l 171 835 l 171 826 l 174 826 q 186 832 181 832 l 186 841 q 177 847 177 841 l 206 873 l 210 873 q 230 859 230 866 q 254 882 237 859 q 251 894 251 888 q 345 932 312 932 l 357 941 l 360 941 l 375 939 q 443 971 375 959 q 449 965 444 965 l 534 985 l 534 989 l 532 989 q 484 983 500 983 q 514 998 484 989 q 532 1015 514 1006 m 425 773 l 422 767 l 422 749 q 404 625 422 625 l 399 622 q 387 673 390 622 l 387 682 q 390 708 387 696 q 387 737 387 724 l 387 767 l 378 767 q 372 755 378 755 q 369 758 372 758 l 372 764 l 372 767 q 334 720 368 767 l 330 720 l 330 726 l 336 734 l 336 741 q 269 654 304 722 q 233 602 262 654 q 159 463 192 559 q 147 395 151 431 q 165 318 147 370 l 168 318 q 248 356 186 318 q 257 353 254 353 q 192 271 257 338 q 177 250 192 257 q 248 205 212 220 l 254 208 q 295 182 263 194 q 313 176 295 176 q 375 238 313 179 l 378 244 l 378 250 l 354 268 l 354 273 q 372 286 354 279 q 384 282 377 282 q 399 297 386 297 l 395 303 q 419 315 395 307 l 422 309 l 428 312 l 443 309 l 443 312 q 410 362 435 334 l 410 371 q 422 383 410 376 l 428 383 l 446 371 q 452 377 452 371 q 440 389 448 377 l 449 389 q 467 380 449 382 q 481 368 467 368 q 502 386 481 372 l 508 383 l 532 421 l 526 421 q 564 501 564 490 q 558 528 558 524 q 573 545 558 545 q 555 575 573 551 q 549 599 549 597 q 555 604 555 599 q 543 637 547 604 q 541 640 541 637 l 543 661 q 519 687 534 661 q 475 752 505 696 q 425 773 450 773 m 321 702 l 325 696 l 316 690 l 316 696 q 321 702 317 702 m 301 667 l 307 667 l 307 661 q 292 643 296 643 l 292 649 q 301 667 301 663 m 665 415 l 665 410 l 667 410 q 673 415 673 410 l 665 415 m 136 342 l 144 342 l 144 347 l 142 347 q 136 342 136 347 m 210 155 l 210 149 l 218 149 l 218 155 l 210 155 m 227 146 l 230 140 l 230 135 l 221 123 q 262 117 237 117 l 266 123 l 266 125 q 230 146 245 146 l 227 146 z "},"r":{"ha":628,"x_min":0,"x_max":675,"o":"m 143 1078 q 157 1064 157 1076 l 162 1064 l 162 1070 l 168 1070 q 182 1036 174 1070 q 171 986 176 1029 q 185 966 174 977 q 179 932 179 940 q 188 930 185 930 q 243 958 224 945 q 275 961 259 958 q 277 952 277 955 l 283 952 q 288 964 283 956 l 302 961 q 359 972 354 966 q 493 935 451 962 q 566 871 565 895 q 619 756 619 804 q 622 751 622 756 q 610 709 620 709 l 613 697 l 596 633 q 580 608 588 629 q 560 600 569 600 q 557 602 560 602 q 538 577 538 583 q 541 574 541 577 q 535 569 535 574 l 535 566 l 541 557 l 535 555 l 532 555 l 532 560 l 529 560 q 501 476 501 551 q 498 412 498 447 q 487 398 493 399 q 476 423 476 414 l 476 446 q 462 498 476 498 q 395 454 441 492 q 364 434 395 447 q 345 418 364 428 q 333 401 342 407 l 381 331 l 372 331 q 328 389 372 339 l 322 392 l 322 387 q 409 272 396 304 q 442 216 424 260 q 476 151 454 208 l 476 149 l 473 143 q 484 121 481 143 q 481 109 481 116 q 513 59 500 109 q 543 12 543 41 q 549 6 549 11 l 549 3 l 541 3 l 543 -3 l 543 -5 l 541 -11 q 551 -20 551 -12 q 541 -42 541 -21 q 568 -64 549 -42 l 574 -64 q 580 -53 574 -53 q 591 -75 582 -70 l 588 -81 q 605 -92 591 -92 q 600 -109 605 -100 q 625 -129 608 -109 l 630 -125 l 635 -125 l 635 -129 q 633 -137 633 -134 q 644 -148 637 -137 l 644 -151 q 622 -162 640 -151 q 661 -210 636 -184 q 675 -238 661 -220 q 667 -246 675 -242 l 664 -246 q 622 -224 652 -233 q 566 -162 581 -187 q 546 -157 560 -162 l 543 -162 q 551 -168 551 -162 l 551 -176 q 521 -210 537 -197 q 498 -174 521 -204 q 493 -154 498 -165 l 487 -157 q 476 -151 480 -151 l 476 -145 l 479 -145 l 484 -148 l 484 -142 q 434 -75 484 -137 q 422 -70 430 -75 l 422 -159 l 426 -176 q 414 -229 422 -229 q 392 -182 392 -208 l 392 -174 q 375 -25 392 -25 q 355 39 363 39 q 361 45 361 39 q 350 59 361 50 l 353 64 q 350 73 350 71 l 336 73 q 328 84 328 80 l 319 84 l 313 81 q 308 98 308 87 l 313 98 q 294 129 313 108 l 297 135 l 288 135 l 291 140 q 263 174 288 152 q 238 216 263 180 q 224 238 236 229 l 227 244 q 199 292 199 262 q 176 319 176 300 l 171 319 q 165 314 165 319 l 165 311 q 179 300 174 311 l 179 275 q 168 224 179 224 q 159 233 168 229 l 157 233 l 159 218 l 159 193 l 154 185 q 168 146 154 159 q 157 90 164 132 l 151 90 q 149 22 151 87 q 132 0 144 22 q 106 -8 113 0 q 101 28 104 -2 q 104 62 104 43 l 101 62 q 92 59 95 59 l 90 64 l 92 76 q 87 84 90 84 l 92 151 q 84 154 90 151 q 64 143 64 151 l 64 115 q 56 93 64 95 l 50 93 q 37 154 43 144 q 22 149 27 149 q 20 160 20 153 l 12 154 q 0 163 12 161 q 17 267 0 205 q 14 269 17 269 q 25 302 17 293 l 20 311 l 22 339 l 14 353 l 17 364 q 14 373 14 370 l 17 378 q 14 389 14 383 q 25 409 25 403 q 20 414 20 409 l 20 418 q 37 465 24 446 q 31 488 31 484 q 45 566 37 507 q 42 574 42 572 l 50 580 l 47 585 l 47 591 q 56 625 56 601 l 47 636 l 47 642 l 59 644 l 50 656 q 53 659 50 659 l 50 672 l 50 681 q 59 686 50 686 l 59 697 l 53 706 l 53 720 q 75 753 53 739 q 67 779 67 766 q 70 795 67 781 q 67 815 67 806 q 75 818 73 818 l 73 829 q 79 857 73 841 l 75 868 q 81 902 75 876 l 79 907 q 92 964 87 921 l 95 964 l 92 969 q 109 1056 109 993 q 129 1064 120 1064 q 132 1061 132 1064 q 149 1067 140 1067 l 149 1073 l 143 1073 l 143 1078 m 196 1056 l 201 1053 q 196 1022 201 1050 l 191 1022 q 196 1056 191 1036 m 233 762 l 233 759 q 241 753 241 759 l 241 751 q 221 692 241 718 l 221 664 l 227 664 q 221 659 227 659 q 218 661 221 661 q 204 652 218 652 l 204 650 q 213 644 213 650 q 199 625 213 632 l 196 605 l 201 602 l 201 608 l 208 608 l 210 594 q 193 543 207 594 q 199 538 199 543 l 199 527 q 196 524 199 524 q 199 505 199 520 q 252 524 252 519 q 280 543 252 526 l 280 546 q 277 557 280 553 q 283 577 283 566 l 297 577 q 384 630 384 608 q 422 656 406 656 q 454 723 438 706 q 451 726 454 726 q 456 751 454 745 q 451 776 454 755 l 454 776 q 400 832 454 814 q 350 810 350 827 q 330 726 343 726 q 311 835 317 727 q 305 846 305 835 l 302 846 q 249 823 251 830 q 233 762 249 762 m 504 770 l 507 759 q 479 661 507 743 q 513 701 492 662 l 515 701 l 513 706 q 524 756 519 711 l 513 773 l 509 773 l 504 770 m 476 736 l 473 726 l 479 726 l 479 736 l 476 736 m 185 610 l 185 591 l 188 591 l 188 610 l 185 610 m 302 373 l 302 370 q 308 359 308 363 l 313 359 q 302 373 308 371 m 37 328 l 39 311 l 47 311 q 45 322 47 317 q 47 334 47 327 l 37 328 m 37 289 l 39 275 l 42 275 l 42 289 l 37 289 m 90 283 l 87 269 q 95 277 91 269 q 90 283 95 283 m 90 230 q 87 222 90 227 l 92 222 l 92 230 l 90 230 m 319 104 l 319 96 l 325 96 l 325 98 q 319 104 325 104 z "},"s":{"ha":594,"x_min":-90,"x_max":604,"o":"m 292 986 l 315 986 q 402 953 349 979 l 402 959 l 413 959 l 430 962 l 441 962 q 447 968 442 968 l 452 968 q 590 935 590 947 q 604 913 601 925 l 602 901 q 604 892 604 896 l 593 886 l 596 880 l 596 874 l 576 871 q 551 874 566 871 l 545 871 q 526 874 534 874 l 511 871 l 517 863 q 435 850 502 850 q 388 838 435 845 q 366 747 382 747 q 357 718 366 718 q 340 784 352 718 q 326 793 335 784 q 267 757 301 793 q 182 724 257 757 l 180 724 q 228 682 182 711 q 261 663 228 675 q 332 612 261 653 l 334 612 l 334 606 l 326 606 q 320 612 320 606 l 315 609 q 298 615 303 615 q 281 606 298 609 q 228 624 251 621 q 216 630 228 628 q 208 627 211 627 q 399 530 225 613 q 425 500 417 520 l 425 494 q 418 482 418 487 q 455 431 455 437 q 506 382 455 410 q 548 322 548 355 q 551 319 551 322 q 528 304 528 316 q 557 232 551 262 q 537 180 548 194 q 526 126 529 162 l 514 114 q 500 135 500 119 l 500 168 l 494 168 q 450 108 488 168 q 413 66 413 85 q 396 -37 413 1 q 385 -88 396 -88 q 379 -82 379 -88 q 366 62 379 -39 l 357 62 l 349 56 q 340 66 349 61 l 208 2 q 185 8 203 2 q 177 5 180 5 l 163 8 q 123 -13 130 -3 l 123 -49 q 121 -61 123 -56 q 123 -64 121 -64 q 101 -212 118 -139 l 96 -215 q 84 -191 84 -202 l 84 -134 q 64 -22 84 -22 q 50 -7 61 -22 q 53 20 53 12 q -28 62 -28 31 q -43 114 -28 67 q -17 123 -43 121 l -17 126 q -71 183 -71 178 q -65 214 -65 206 q -71 220 -71 214 l -68 226 l -85 250 l -82 262 q -85 289 -85 279 l -82 295 q -87 319 -87 311 l -85 326 q -90 340 -90 335 q -87 343 -87 340 l -73 340 l -56 355 l -54 355 q 104 237 37 302 q 160 189 109 229 l 163 189 q 248 235 172 189 q 283 262 262 235 q 329 286 324 286 l 329 292 q 152 440 289 329 l 149 440 q 138 404 147 404 q 115 479 125 404 q 67 545 67 524 q 11 663 47 545 q -9 696 1 663 l -3 709 l -6 715 q 70 865 2 779 q 113 901 81 877 l 118 901 l 118 892 l 126 892 q 132 905 126 905 q 138 899 133 899 l 140 899 q 177 928 143 899 q 180 926 177 926 q 253 962 217 949 l 258 959 q 292 986 271 986 m 258 220 l 264 220 q 278 232 277 226 l 278 235 q 258 220 260 229 m 180 180 q 194 174 189 174 q 224 189 198 174 l 224 201 l 222 201 q 180 180 180 195 m 349 68 l 349 66 l 351 66 q 357 72 357 66 l 357 78 q 349 68 353 78 m 5 66 l 14 54 l 14 39 q 42 62 28 39 q 22 68 28 68 l 5 66 z "},"t":{"ha":307,"x_min":-104,"x_max":728,"o":"m 12 1164 l 88 1164 q 161 1152 161 1164 q 195 1160 182 1154 q 471 1124 410 1148 q 584 1097 584 1111 q 728 1069 728 1084 l 728 1066 l 722 1066 q 706 1069 711 1066 l 688 1066 l 675 1066 q 657 1072 667 1066 l 639 1069 q 630 1072 633 1072 l 630 1066 l 621 1066 l 611 1072 q 605 1063 611 1063 l 596 1069 l 587 1069 l 578 1063 l 547 1063 q 513 1042 525 1042 l 513 1044 q 449 1023 480 1029 q 410 986 427 986 l 370 986 l 351 830 q 336 800 341 830 l 330 800 q 315 888 323 800 l 315 901 q 317 983 315 926 l 309 983 q 290 956 290 972 l 290 892 q 278 880 290 887 l 272 882 l 266 846 q 269 842 266 842 q 260 806 266 806 l 262 791 l 256 769 l 260 739 q 241 668 248 668 l 244 656 l 241 635 l 244 613 q 229 506 238 559 l 232 500 q 220 435 232 494 q 223 427 220 433 l 217 378 q 220 366 220 372 q 214 347 214 355 l 214 341 q 217 329 214 334 q 214 319 214 323 l 217 304 q 211 267 211 283 l 211 212 q 205 206 211 206 q 193 246 197 206 q 189 249 189 246 l 193 255 l 186 258 l 183 258 l 180 246 q 186 237 183 237 q 180 216 180 224 l 183 203 l 180 197 q 183 173 183 180 q 168 56 172 129 q 153 -54 159 56 l 146 -57 l 137 -57 l 137 -26 q 131 -2 137 -13 q 134 56 134 32 l 134 75 q 128 170 128 119 l 125 170 q 106 130 125 161 l 110 123 q 100 102 100 110 q 104 78 104 85 q 88 66 94 66 l 94 56 q 70 -118 77 11 q 52 -195 70 -175 q 33 -286 46 -286 l 27 -286 q 18 -268 18 -283 l 18 -256 q 24 -149 24 -157 l 24 -142 q 15 -136 15 -142 q 18 -127 15 -133 l 15 -115 q 24 -81 17 -88 l 24 -75 l 18 -75 l 18 -63 l 21 -45 l 18 -39 q 30 62 24 -39 q 21 68 21 62 q 27 185 21 94 l 18 191 q 36 329 28 296 l 33 347 l 33 356 q 43 399 39 399 l 39 414 l 39 423 q 45 451 39 431 q 43 460 43 457 q 45 469 45 467 q 43 473 45 473 q 58 536 43 485 q 55 555 55 553 q 61 579 55 560 q 58 589 61 583 q 61 623 61 609 l 61 653 q 67 656 67 653 q 64 665 64 662 l 73 674 q 70 684 73 677 q 98 928 85 841 q 100 980 98 938 q 94 983 94 980 l 88 980 q 73 1002 85 980 l 27 1002 q 21 996 21 1001 q 5 904 21 907 l -1 904 q -19 1004 -12 1004 q -56 1020 -56 1004 q -50 1048 -56 1027 q -58 1060 -54 1060 l -62 1060 l -83 1057 l -86 1063 l -80 1072 q -95 1087 -88 1072 l -95 1090 q -92 1093 -95 1093 q -104 1127 -104 1118 l -104 1136 q -95 1154 -98 1136 l -40 1154 q 12 1164 -1 1164 m 183 283 l 183 267 l 189 267 q 193 279 189 275 l 186 283 l 183 283 z "},"u":{"ha":657,"x_min":9,"x_max":654,"o":"m 201 1014 q 218 996 214 1014 l 224 1000 q 235 953 235 1000 q 224 851 224 871 q 229 825 229 832 q 221 656 221 764 q 250 590 245 656 l 253 575 q 221 412 227 469 q 224 360 224 385 q 210 334 210 355 l 210 332 q 218 326 218 332 l 218 308 q 210 302 218 302 q 218 273 215 295 q 215 264 215 267 l 224 258 l 233 258 q 357 319 357 286 q 395 380 378 340 q 410 401 399 392 q 433 473 410 420 q 441 511 433 490 q 439 523 439 517 l 441 523 q 439 526 441 526 q 453 566 444 566 q 462 564 459 564 l 465 570 q 462 578 462 575 l 456 575 l 450 575 l 450 584 q 459 610 450 591 q 453 616 453 610 q 462 627 458 616 q 456 633 456 627 q 473 674 459 674 l 479 674 l 477 680 l 477 683 l 485 683 l 485 688 l 477 688 l 477 683 l 471 683 q 465 692 465 683 q 485 753 465 730 l 485 761 q 496 810 485 786 q 514 869 508 869 q 532 863 524 863 q 541 903 532 903 l 546 903 q 570 892 559 892 l 578 898 q 584 886 584 898 l 590 886 l 590 909 q 598 918 590 911 q 622 976 598 976 l 633 985 q 645 970 637 985 l 645 959 q 654 924 646 924 l 642 842 l 648 828 l 645 822 l 648 810 q 602 581 622 667 q 587 514 594 514 l 587 500 q 566 369 587 479 q 570 355 570 364 q 564 337 564 345 l 566 317 q 561 311 561 316 l 564 299 q 532 180 552 229 q 534 178 534 180 q 520 154 524 178 l 517 154 l 514 160 q 526 178 514 178 l 526 180 q 514 183 519 180 l 509 174 l 509 160 q 523 137 522 142 q 517 131 517 136 l 517 113 q 491 96 504 113 l 488 96 q 471 102 481 102 l 471 113 l 473 128 l 471 128 q 453 87 467 128 q 424 44 431 44 q 412 -69 418 44 q 395 -96 403 -95 q 383 -78 390 -96 q 387 -46 387 -58 l 387 -41 q 369 20 369 -41 q 357 38 359 20 q 349 41 355 38 l 279 3 q 229 -5 246 -5 l 229 -12 q 247 -20 247 -14 l 247 -23 q 229 -28 229 -24 q 136 26 165 -28 q 108 38 121 38 q 90 32 98 32 l 79 41 q 61 -9 72 -9 q 50 15 50 8 q 35 134 50 134 l 38 149 l 29 163 q 32 165 32 163 q 12 212 12 175 l 15 218 q 12 230 12 223 q 26 262 26 243 l 18 256 l 12 256 q 9 271 12 265 q 23 294 15 294 l 23 299 l 15 299 l 15 302 q 32 337 22 309 q 26 343 26 337 l 26 346 q 29 349 26 349 q 26 357 26 355 l 18 352 q 15 360 15 357 l 18 380 q 15 389 15 387 q 20 395 20 389 q 9 416 9 408 q 20 448 18 430 l 18 453 q 23 468 20 468 q 18 488 18 479 q 23 506 18 493 l 20 511 q 41 633 41 631 q 38 636 41 636 q 81 912 64 852 q 122 964 81 952 q 142 930 122 960 l 142 927 l 149 927 q 174 987 149 987 q 201 1014 201 1010 m 189 712 l 195 703 q 180 668 180 680 l 186 668 l 186 665 l 183 660 l 189 660 q 201 680 201 665 l 201 688 l 195 697 q 203 703 203 697 l 203 709 q 195 718 195 709 q 189 712 189 717 m 104 111 q 99 87 104 87 q 93 93 93 87 q 81 90 88 90 l 87 81 l 81 81 l 81 67 l 87 67 l 84 73 l 84 79 l 93 79 q 102 67 94 67 l 104 67 q 113 76 104 76 l 113 93 q 104 111 113 109 m 311 38 l 311 35 l 319 35 q 326 41 326 35 l 326 44 q 311 38 316 38 z "},"v":{"ha":622,"x_min":-8,"x_max":671,"o":"m 104 1074 q 137 1041 120 1074 q 155 934 146 1041 q 176 833 157 933 l 170 833 q 158 866 165 866 l 158 863 q 176 759 167 837 q 208 616 189 759 q 256 445 232 556 q 253 441 253 445 q 268 379 260 441 q 271 370 271 379 q 318 430 275 371 l 315 430 q 309 421 309 430 l 303 424 q 348 522 333 474 q 369 551 359 522 q 387 596 380 559 q 419 652 410 614 q 502 795 443 686 l 508 798 l 505 804 l 505 806 q 526 821 513 821 l 523 836 l 523 839 l 532 839 l 532 836 q 529 827 529 830 q 547 863 534 827 l 553 863 l 553 857 l 559 860 l 555 866 l 555 869 q 562 875 556 875 l 562 869 l 564 869 l 564 872 q 562 881 562 878 q 615 961 583 885 l 621 961 l 627 958 q 633 964 627 964 l 642 964 q 656 952 655 952 q 668 955 662 955 l 671 949 l 671 934 q 642 872 654 918 l 635 872 l 639 866 q 633 848 639 858 q 635 845 635 848 q 624 825 628 845 q 612 821 618 821 l 612 812 l 618 815 q 621 812 618 812 q 603 789 621 802 q 600 791 603 791 l 603 777 l 603 771 q 588 747 592 747 l 591 741 l 591 739 q 576 730 591 733 l 579 724 l 579 718 l 573 709 l 573 706 l 576 691 q 553 652 557 669 q 538 637 540 646 l 541 620 q 532 596 532 606 q 541 590 541 596 q 532 584 541 584 l 532 581 q 549 560 544 560 q 564 575 555 560 l 573 575 q 553 549 569 561 q 535 513 553 534 q 538 504 538 507 l 523 495 l 526 489 l 514 471 q 517 463 517 465 q 484 409 511 463 l 484 406 l 493 406 l 493 412 l 499 412 l 499 409 q 475 376 479 376 l 475 382 q 478 391 478 388 q 464 370 471 390 l 467 370 l 475 376 l 475 370 q 446 231 446 336 q 425 106 435 106 q 413 124 419 106 q 416 225 413 157 l 413 243 q 416 245 416 243 l 410 249 q 387 184 410 233 q 380 165 387 172 q 383 154 383 161 q 372 142 380 154 l 374 136 l 374 133 q 366 127 366 133 l 366 121 l 369 106 q 342 59 359 106 l 342 56 q 348 50 342 50 q 324 -134 334 1 l 312 -146 q 286 -116 286 -131 l 286 -68 q 279 -45 286 -66 l 279 -21 l 277 8 q 274 5 274 8 q 229 29 260 5 q 220 26 223 26 q 188 71 205 60 l 188 74 l 182 71 l 164 85 l 164 89 q 167 98 164 98 q 149 228 167 174 q 140 249 149 248 q 108 198 108 233 q 104 118 104 163 l 104 113 q 93 85 104 90 q 78 184 85 102 l 78 213 l 72 234 q 57 543 65 543 l 57 557 l 63 557 l 63 581 q 51 587 51 581 l 57 596 q 54 599 57 599 l 57 605 q 51 629 57 608 l 51 635 q 54 637 51 637 q 45 652 50 652 q 42 649 45 649 l 39 655 l 39 659 l 45 659 l 45 664 l 39 664 l 42 679 q 31 711 39 711 l 33 726 l 27 735 q 31 739 27 739 q 3 854 22 754 q -8 892 0 886 q 18 901 1 897 q 27 899 24 899 q 33 905 28 905 q 51 899 43 899 l 54 899 q 48 928 48 924 l 54 931 l 57 931 q 60 928 60 931 l 66 931 l 69 931 l 75 928 q 81 937 75 937 q 72 1032 78 1006 q 98 1067 75 1067 q 104 1074 100 1074 m 612 940 l 612 937 q 618 943 618 937 l 618 946 q 612 940 612 945 m 538 560 q 529 543 538 554 l 535 543 l 535 549 l 541 549 l 541 540 l 544 540 l 544 554 q 538 560 544 560 m 529 534 l 529 525 l 532 525 q 535 534 532 528 l 529 534 m 244 394 l 244 391 q 250 385 245 385 l 250 394 l 244 394 z "},"w":{"ha":909,"x_min":-40,"x_max":892,"o":"m -4 1048 q 14 1012 2 1048 l 17 1012 l 26 1018 q 35 997 30 997 l 38 997 q 50 1006 38 1004 q 77 976 50 994 q 90 945 80 945 l 90 924 l 104 922 l 111 924 q 116 918 111 918 l 119 918 l 119 924 l 122 924 q 125 922 125 924 l 132 924 l 137 924 q 168 855 168 892 q 182 792 176 803 q 179 783 179 786 l 182 777 l 179 771 q 206 666 203 695 q 203 663 206 663 q 224 570 224 576 q 218 564 218 569 l 222 558 l 218 540 l 218 537 q 243 456 236 503 l 245 456 l 243 441 q 248 422 248 434 l 252 422 q 258 432 252 432 q 260 429 258 429 q 315 528 279 480 q 336 549 321 528 l 348 549 l 348 555 q 342 561 348 561 q 384 648 342 597 q 393 651 390 651 q 399 645 393 645 q 401 648 399 648 l 399 669 l 399 675 l 441 729 q 456 750 441 735 l 459 750 l 468 744 q 480 760 474 758 l 486 760 l 486 750 l 492 753 l 498 753 q 513 696 513 727 q 492 660 492 685 q 522 627 492 652 q 561 540 522 620 q 612 414 597 461 l 624 414 q 642 435 624 433 q 660 447 642 447 l 660 459 l 657 474 l 663 474 l 663 480 l 657 480 l 657 489 l 663 486 q 669 492 669 486 l 669 495 l 663 504 l 663 513 q 678 522 663 518 l 675 528 l 675 543 q 690 552 690 543 l 690 561 q 681 567 681 561 q 699 585 681 572 l 699 588 l 693 588 l 693 594 q 705 609 698 594 q 708 612 708 609 q 705 615 708 615 q 726 669 707 637 q 771 825 726 686 q 804 937 789 899 l 804 939 l 795 951 q 810 970 806 970 l 813 970 q 819 960 819 970 l 823 960 l 831 966 l 840 966 q 850 955 850 966 l 859 955 l 867 960 l 873 960 l 873 958 q 865 918 865 931 l 867 913 q 850 855 854 855 l 852 850 l 844 831 l 844 817 q 852 808 844 812 l 865 817 l 871 817 q 892 789 880 817 q 861 720 892 774 l 855 693 l 855 690 q 873 666 873 670 q 867 651 873 651 q 882 633 867 646 l 861 582 q 871 549 861 574 q 840 492 871 537 q 825 456 840 471 q 804 260 822 260 l 802 260 q 789 306 796 260 l 787 306 q 783 302 787 302 l 787 296 q 745 221 752 266 l 747 216 q 732 189 736 216 q 735 179 735 182 q 729 174 729 178 q 735 168 735 172 l 714 149 q 720 132 720 140 q 699 62 707 117 q 678 29 678 57 q 681 20 678 26 q 666 -19 681 12 l 666 -127 q 657 -151 666 -149 l 654 -151 q 630 -28 639 -132 q 588 20 630 -3 l 588 26 q 591 35 591 32 q 543 68 587 35 l 540 68 l 546 98 q 492 221 546 102 l 492 231 l 495 231 l 504 224 q 513 233 509 224 l 513 239 q 492 273 505 247 q 483 279 483 273 q 486 281 483 281 q 483 290 483 288 l 480 290 q 477 281 480 288 q 483 263 483 269 l 477 263 q 444 332 460 291 q 441 336 441 332 q 444 338 444 336 l 450 336 q 456 342 456 336 q 444 353 451 342 l 438 351 q 420 372 422 372 l 414 372 q 393 332 414 365 l 390 311 q 393 170 390 266 q 378 62 389 62 q 369 71 373 62 l 369 146 q 348 216 348 146 l 348 224 q 317 179 336 221 q 321 176 317 176 q 306 143 315 143 l 309 137 q 294 111 300 127 q 275 83 280 111 l 279 65 q 258 23 264 65 l 239 23 q 218 -1 239 14 l 216 -1 l 210 2 q 200 -7 210 -3 q 170 104 194 -7 q 149 224 170 119 l 134 221 l 134 224 l 128 221 q 95 321 123 221 q 47 531 86 348 q 17 651 35 562 q -13 771 2 688 q -16 774 -16 771 l -16 789 q -13 792 -16 792 l -16 798 l -16 813 q -31 855 -26 813 l -28 871 q -40 960 -40 948 l -37 982 l -34 982 l -28 979 q -34 1024 -34 1007 q -19 1045 -28 1042 l -16 1045 l -10 1042 q -4 1048 -9 1048 m 537 615 l 543 615 l 549 594 l 546 594 q 537 615 539 594 m 453 332 l 453 327 q 465 306 465 311 l 468 306 l 474 309 q 453 332 472 332 m 321 285 q 323 275 323 279 l 327 275 l 327 285 l 321 285 m 513 212 q 510 203 513 203 q 513 195 513 197 l 525 195 l 525 200 q 513 212 520 200 m 525 174 l 525 168 q 537 149 525 164 l 534 149 q 540 122 540 139 q 549 134 545 122 q 543 153 549 140 q 546 164 546 157 q 540 168 540 164 l 534 164 q 528 174 528 164 l 525 174 m 174 149 l 174 146 q 176 137 176 140 l 179 137 l 179 146 l 174 149 m 176 128 l 176 125 l 179 111 l 185 111 l 185 122 q 179 128 185 128 l 176 128 m 182 98 l 182 95 q 185 86 185 89 l 189 86 l 189 98 l 182 98 z "},"x":{"ha":692,"x_min":-114,"x_max":667,"o":"m 82 996 q 98 979 82 991 q 104 986 99 986 q 146 947 111 966 q 178 890 166 926 q 201 851 184 890 q 220 822 220 851 q 291 690 291 703 q 313 671 298 690 q 455 819 334 673 q 532 903 473 833 l 538 903 q 545 892 545 903 l 557 903 l 564 899 q 577 903 570 903 l 577 896 l 574 890 l 580 886 q 648 960 621 923 l 654 960 l 654 954 q 648 935 648 947 q 667 925 667 935 q 654 899 667 916 q 625 851 636 857 q 603 803 617 840 q 580 777 596 803 l 568 777 q 570 768 570 770 q 545 739 553 739 l 542 739 l 542 719 q 468 620 479 627 l 474 610 q 448 568 458 594 q 426 543 426 568 q 407 523 426 535 q 400 488 400 492 l 413 488 q 416 475 416 482 q 404 469 404 475 q 429 452 429 469 q 426 443 426 446 q 435 433 431 443 q 429 427 429 433 q 442 414 433 416 q 445 417 442 417 l 461 395 q 458 391 461 391 q 484 337 458 373 q 548 192 513 257 q 577 128 553 191 q 590 102 585 128 q 612 80 605 102 q 618 73 618 79 l 618 47 q 583 12 595 12 q 570 -7 570 12 q 606 -68 606 -64 q 593 -75 598 -75 l 583 -75 q 561 -104 583 -85 l 557 -104 l 551 -100 q 545 -106 551 -106 l 538 -106 q 526 -94 538 -100 q 474 -17 526 -91 l 465 -23 l 458 -14 l 458 -10 q 465 3 465 -2 q 448 44 465 18 l 442 44 q 435 35 442 35 l 433 35 q 422 44 427 35 l 422 47 l 435 47 l 435 51 q 416 73 429 51 l 416 77 q 426 86 416 81 q 404 118 426 111 q 397 73 404 73 l 400 67 l 400 44 q 404 31 400 37 q 400 19 400 26 l 400 -4 q 378 -52 384 -14 l 372 -52 q 361 -17 361 -52 l 361 6 q 365 35 361 17 q 333 237 350 95 q 294 298 316 248 l 281 298 q 262 266 276 266 l 252 266 q 214 228 224 228 l 214 218 l 217 218 l 233 221 l 236 215 q 198 170 198 193 q 201 160 201 163 l 195 160 l 188 163 l 188 157 l 195 147 l 195 138 q 159 93 168 93 l 143 102 q 146 16 146 43 l 146 -165 q 137 -184 146 -181 l 134 -184 q 111 -43 119 -184 q 89 31 106 -39 l 79 31 l 69 25 q 47 44 47 25 l 24 31 l -8 38 q -37 3 -18 16 q -66 16 -54 12 l -88 12 q -98 22 -88 15 l -92 44 l -95 44 l -108 35 l -114 35 l -114 41 q -1 212 -50 122 q 21 256 7 212 q 191 507 130 408 l 191 510 q 137 600 178 522 l 134 600 l 134 591 q 137 530 134 581 l 127 523 l 124 523 q 95 677 95 531 q 76 713 85 677 l 85 719 l 95 719 q 98 732 98 725 l 98 735 l 95 742 l 101 745 q 111 735 101 735 q 114 742 111 742 q 124 739 121 739 l 124 742 q 98 793 124 752 q 73 851 82 839 l 73 857 q 85 861 79 857 q 63 912 85 879 q 50 954 63 942 q 60 960 50 960 q 47 989 60 965 l 53 992 l 63 986 l 69 986 q 82 996 69 996 m 31 989 l 37 989 q 43 977 37 984 l 43 973 l 40 973 q 31 989 33 973 m 638 931 l 638 925 q 648 928 644 928 l 648 931 l 638 931 m 629 925 q 612 903 629 919 l 612 899 l 616 899 q 635 922 623 899 l 635 925 l 629 925 m 220 166 l 227 166 l 230 134 l 220 128 q 211 138 216 128 q 220 166 220 157 m -69 90 l -69 83 l -66 83 q -59 90 -59 83 l -69 90 m -79 77 q -92 54 -79 69 l -92 51 l -88 51 q -75 70 -75 57 l -75 77 l -79 77 z "},"y":{"ha":599,"x_min":-19,"x_max":632,"o":"m 613 986 l 624 972 q 602 929 624 962 q 597 916 602 916 q 602 880 602 891 l 605 880 l 613 886 l 632 872 q 578 766 602 827 q 532 693 565 758 q 502 663 502 690 q 505 655 505 658 q 475 604 475 620 q 442 536 463 587 q 420 514 437 536 q 410 517 416 517 l 407 511 l 407 506 l 415 506 q 393 452 410 482 q 407 430 395 444 l 407 419 q 401 414 407 414 l 396 416 q 391 400 396 406 q 382 338 391 360 q 385 330 385 332 q 372 248 378 313 q 353 240 361 240 l 350 240 q 345 245 345 240 l 345 259 q 336 302 345 302 q 317 278 334 295 q 320 270 320 273 q 301 248 309 248 l 301 243 l 307 235 l 288 199 q 285 197 285 199 l 279 199 l 277 199 q 269 191 273 199 l 269 186 q 285 194 279 194 l 285 191 q 250 80 250 125 q 236 -85 247 16 l 236 -99 q 222 -115 236 -115 q 209 -161 222 -161 l 203 -161 l 198 -159 q 201 -134 198 -149 q 198 -15 198 -64 l 195 -1 l 193 -1 q 152 -61 180 -61 q 130 -64 145 -61 q 127 -56 127 -58 l 119 -61 l 114 -61 q 130 -12 114 -50 q 122 -9 125 -9 q 84 -15 113 -9 l 81 -9 l 84 -4 l 81 -4 q 71 -7 77 -7 l 68 -1 q 81 23 71 2 q 79 39 81 25 q 98 91 87 74 q 106 88 103 88 l 109 94 l 109 107 q 98 129 98 123 l 95 129 q 81 118 81 120 q 62 121 71 121 l 65 140 l 57 134 l 54 140 q 68 172 68 170 l 73 172 q 68 151 68 155 q 81 180 75 151 l 76 178 q 71 183 71 178 l 71 186 q 133 300 98 231 q 190 392 149 300 q 193 395 193 392 l 184 395 q 190 400 185 400 q 198 397 195 397 q 206 414 206 408 q 201 419 201 414 l 209 433 q 195 452 209 437 q 130 574 193 474 l 119 582 l 117 568 l 117 530 q 109 500 117 500 l 106 500 q 87 612 94 513 q 41 731 87 677 q -5 783 -5 768 l 0 785 l 5 783 q 8 785 5 785 l 5 799 q 11 804 6 804 l 0 823 l 0 829 q 8 856 5 835 q -3 875 5 871 q -16 907 -3 888 l -16 924 q -14 948 -16 933 q -19 964 -19 957 q -3 983 -5 983 l 3 983 q 57 916 37 959 q 111 878 90 916 q 152 812 121 876 q 168 802 168 807 l 163 793 l 163 791 q 182 761 182 770 l 201 747 q 206 739 206 747 l 220 742 q 225 736 220 736 l 222 723 q 258 671 241 699 q 288 617 270 663 l 290 617 q 366 720 332 670 l 372 720 q 380 718 377 718 l 380 723 q 372 728 372 723 q 393 745 385 745 l 388 753 q 401 758 388 758 l 401 755 q 418 774 407 755 l 423 774 q 426 772 423 772 q 429 774 426 774 l 420 791 l 420 793 l 426 791 q 437 804 429 804 l 437 807 l 431 807 l 431 812 q 456 834 441 812 l 450 842 q 477 867 450 846 q 505 897 477 882 l 505 902 l 499 902 l 499 910 q 518 932 503 910 q 548 945 540 945 l 553 943 q 586 983 576 979 l 591 983 q 594 981 594 983 q 613 986 605 986 m 507 902 l 507 899 l 510 899 l 513 910 q 507 902 507 910 m 496 869 q 502 864 497 864 l 510 864 l 513 878 q 496 869 503 869 z "},"z":{"ha":776,"x_min":-45,"x_max":752,"o":"m 148 977 l 182 974 l 191 974 l 203 964 l 217 967 q 289 958 283 960 q 303 961 294 961 l 300 967 l 307 970 l 309 964 q 312 967 312 964 l 465 947 l 470 947 q 479 951 479 947 l 496 947 q 606 945 526 947 q 623 951 617 951 q 663 938 663 943 l 669 938 l 677 945 l 680 945 q 686 935 680 935 l 694 935 l 694 945 l 701 945 q 720 928 710 930 q 735 899 731 928 q 738 895 738 899 l 738 889 q 709 843 732 843 l 709 823 l 674 823 q 663 807 669 821 l 671 807 l 671 797 q 637 745 637 797 q 617 640 631 640 l 614 640 q 600 682 605 640 q 579 643 591 682 q 528 581 570 643 q 481 496 481 558 q 462 410 479 410 q 435 460 445 428 l 430 460 q 404 440 407 440 l 407 433 q 375 371 390 410 q 344 355 349 361 q 307 276 344 341 q 505 211 361 276 q 528 181 522 201 l 536 175 l 539 175 q 551 178 546 175 q 637 142 637 165 q 648 136 648 142 q 646 125 646 129 l 686 125 q 718 129 698 125 q 726 125 724 125 l 726 119 q 724 122 724 119 q 689 116 717 116 l 689 113 q 703 109 703 113 l 709 113 l 735 113 q 752 102 752 111 l 726 83 l 709 86 q 669 63 682 86 q 652 47 659 47 q 643 50 648 47 l 597 43 q 594 47 594 43 l 576 43 l 559 47 q 505 18 518 47 q 421 4 505 7 l 416 7 q 412 4 412 7 l 398 7 l 370 7 q 344 4 359 7 q 323 7 340 7 q 309 -71 320 7 q 303 -77 309 -77 l 300 -77 q 292 -58 292 -77 l 286 -58 l 280 -61 q 266 7 273 -55 l 231 11 l 189 11 q 168 -130 182 11 q 159 -143 162 -143 l 154 -143 q 134 -87 149 -138 l 134 -48 q 125 14 134 -25 l 90 18 q 62 -5 85 3 l 56 -5 q 50 7 50 -5 l 47 7 l 36 -2 l 30 -2 q 16 14 30 8 q -36 7 4 14 l -39 14 l -36 34 q -39 43 -39 40 q -36 47 -36 43 q -45 57 -41 47 q -36 66 -41 57 l -45 83 q 10 113 -26 113 l 10 122 l 7 142 q 59 201 14 172 l 62 208 l 59 240 q 191 414 65 244 l 203 424 l 205 424 l 205 420 l 200 410 l 200 407 l 203 407 q 231 444 231 433 l 252 469 l 252 476 l 229 456 l 229 460 q 260 503 229 465 l 275 499 l 277 499 q 295 512 277 512 l 295 515 l 286 515 l 286 522 q 317 574 301 539 q 332 587 326 587 l 332 604 q 404 718 371 682 l 416 712 q 421 725 421 720 l 427 725 q 433 715 427 715 q 435 722 433 722 l 433 728 l 433 732 q 450 738 450 732 q 444 764 450 748 q 435 754 435 764 l 430 754 q 421 771 430 771 q 398 768 419 771 l 398 771 l 393 768 l 378 768 q 347 761 358 768 l 340 764 l 326 761 l 321 764 l 280 754 q 272 758 275 758 q 208 748 267 752 l 205 732 l 205 682 q 194 653 205 657 l 189 653 q 177 741 182 676 q 82 715 125 725 q 67 758 71 725 q 50 784 60 758 l 56 793 l 47 800 l 16 800 q -1 833 9 800 q -13 843 -13 838 q -10 852 -10 850 q -16 859 -16 852 q -10 866 -16 866 l -13 872 l -13 879 l 36 879 q 73 905 50 905 q 128 945 73 918 q 145 961 136 945 q 157 967 157 961 l 157 970 l 148 970 l 148 977 m 280 970 l 295 970 l 295 964 l 275 964 q 280 970 275 970 m 307 961 l 307 954 l 309 954 q 317 958 315 958 l 317 961 l 307 961 m 671 843 l 671 833 l 692 830 l 694 830 l 694 833 q 671 843 694 840 m 718 827 l 738 827 l 738 820 l 718 820 l 718 827 m 715 810 l 732 810 l 732 807 q 726 800 732 800 l 720 800 q 715 807 715 800 l 715 810 m 694 804 l 703 804 l 703 797 l 694 797 l 694 804 m 453 734 q 444 725 453 725 l 444 722 l 450 722 q 458 728 450 728 l 458 734 l 453 734 m 404 699 q 410 692 405 692 l 412 692 q 418 699 418 692 l 418 702 l 404 699 m 378 663 l 378 659 l 381 659 q 395 669 381 669 l 395 673 l 390 673 q 378 663 378 667 m 674 116 l 674 113 l 686 113 l 686 116 l 674 116 m 724 77 l 735 77 l 735 70 l 724 70 l 724 77 z "},"{":{"ha":688,"x_min":163,"x_max":600,"o":"m 163 473 q 314 522 279 477 q 349 612 349 566 l 349 929 q 401 1025 349 979 q 526 1071 453 1071 l 600 1071 l 600 1037 l 538 1037 q 466 1014 497 1037 q 434 952 435 991 l 434 613 q 393 506 434 557 q 296 454 352 454 l 296 452 q 393 401 352 452 q 435 294 435 350 l 434 -45 q 466 -107 435 -85 q 538 -130 497 -130 l 600 -130 l 600 -164 l 526 -164 q 401 -118 453 -164 q 349 -22 349 -73 l 349 295 q 314 385 349 340 q 163 433 279 429 l 163 473 z "},"|":{"ha":688,"x_min":290,"x_max":398,"o":"m 290 1069 l 398 1069 l 398 -283 l 290 -283 l 290 1069 z "},"}":{"ha":688,"x_min":88,"x_max":525,"o":"m 525 433 q 374 385 408 429 q 339 295 339 340 l 339 -22 q 287 -118 338 -73 q 161 -164 235 -164 l 88 -164 l 88 -130 l 149 -130 q 222 -107 191 -130 q 254 -45 253 -85 l 253 294 q 294 401 253 350 q 392 452 336 452 l 392 454 q 295 506 336 454 q 254 613 254 557 l 254 952 q 222 1014 253 991 q 149 1037 191 1037 l 88 1037 l 88 1071 l 161 1071 q 287 1025 235 1071 q 339 929 339 979 l 339 612 q 374 522 339 566 q 525 473 408 477 l 525 433 z "},"~":{"ha":688,"x_min":64,"x_max":626,"o":"m 626 595 l 626 490 q 543 424 583 441 q 465 406 503 406 q 344 439 424 406 q 224 472 264 472 q 152 453 190 472 q 64 377 113 434 l 64 483 q 147 550 107 532 q 224 568 187 568 q 348 534 268 568 q 465 500 427 500 q 538 519 500 500 q 626 595 576 538 z "},"":{"ha":456,"x_min":0,"x_max":0,"o":""},"":{"ha":772,"x_min":0,"x_max":0,"o":""},"":{"ha":688,"x_min":52,"x_max":635,"o":"m 507 913 q 399 935 458 935 l 397 935 q 269 866 330 935 q 212 703 212 803 q 212 682 212 692 q 248 497 212 591 l 492 497 l 492 456 l 266 456 q 287 416 275 436 q 311 322 311 373 q 201 68 311 213 l 473 68 q 602 157 562 68 l 635 157 l 565 0 l 77 0 l 78 34 q 205 317 205 195 q 182 414 205 370 q 161 456 170 436 l 52 456 l 52 497 l 143 497 q 104 669 104 594 q 188 904 104 822 q 395 986 271 986 l 398 986 q 524 977 449 986 q 599 954 599 967 l 599 844 l 559 844 q 507 913 556 886 z "},"":{"ha":688,"x_min":83,"x_max":604,"o":"m 237 380 q 304 341 265 353 q 344 336 324 336 q 383 341 363 336 q 450 380 422 353 q 489 447 477 408 q 495 486 495 467 q 489 526 495 506 q 450 593 477 565 q 382 631 422 620 q 343 637 363 637 q 304 631 323 637 q 237 593 264 619 q 199 526 211 566 q 193 486 193 506 q 199 448 193 467 q 237 380 210 408 m 163 612 l 83 692 l 137 747 l 217 667 q 284 699 247 688 q 345 708 314 708 q 401 700 372 708 q 470 667 439 688 l 550 747 l 604 692 l 525 613 q 557 544 546 582 q 566 486 566 515 q 557 429 566 458 q 525 359 546 391 l 604 280 l 550 225 l 470 305 q 401 273 439 283 q 344 264 373 264 q 286 273 315 264 q 217 305 248 283 l 137 225 l 83 280 l 163 359 q 130 429 141 391 q 122 486 122 458 q 131 545 122 516 q 163 612 142 583 z "},"":{"ha":856,"x_min":5,"x_max":864,"o":"m 371 153 l 370 317 q 369 340 370 330 q 366 362 368 351 l 37 363 q 23 367 28 363 q 18 380 18 372 q 23 393 18 389 q 37 397 27 397 l 354 397 l 272 514 l 39 514 q 23 518 27 514 q 18 530 18 522 q 22 544 18 540 q 37 547 26 547 l 245 547 q 172 652 216 586 q 18 786 83 786 q 9 790 14 786 q 5 798 5 793 q 13 816 5 810 q 35 822 20 822 q 118 817 53 822 q 229 811 183 811 l 289 811 q 317 807 311 811 q 322 789 322 802 q 312 779 322 783 q 286 775 302 775 q 274 777 282 775 q 261 778 265 778 q 236 771 245 778 q 227 754 227 765 q 238 719 227 742 q 269 667 249 696 l 376 517 q 399 481 385 504 q 447 433 427 433 q 458 437 453 433 q 468 447 463 440 l 656 715 q 665 733 661 724 q 668 750 668 743 q 661 768 668 762 q 636 778 654 774 q 608 781 626 779 q 576 798 576 783 q 582 813 576 808 q 599 818 587 818 q 609 817 601 818 q 682 812 647 812 l 777 812 q 821 813 797 812 q 846 814 844 814 q 858 811 853 814 q 864 803 863 808 q 838 780 864 784 q 820 777 826 778 q 720 697 777 766 q 712 687 715 691 l 597 547 l 817 547 q 833 543 827 547 q 839 532 839 539 q 835 518 839 522 q 819 514 831 514 l 571 514 q 506 438 540 475 q 470 397 471 400 l 817 397 q 834 394 829 397 q 839 382 839 390 q 834 368 839 372 q 819 363 829 363 l 460 363 q 459 342 460 355 q 458 322 458 329 l 460 176 q 464 75 460 99 q 477 45 467 50 q 550 32 498 33 q 603 11 603 31 q 596 -3 603 3 q 579 -8 589 -8 q 555 -5 578 -8 q 511 -3 532 -3 q 370 -5 450 -3 q 273 -8 290 -8 q 246 -5 252 -8 q 240 5 240 -3 q 245 18 240 14 q 271 26 251 22 q 288 30 277 28 q 350 52 338 41 q 366 83 361 60 q 371 153 371 106 z "},"":{"ha":688,"x_min":290,"x_max":398,"o":"m 290 252 l 398 252 l 398 -283 l 290 -283 l 290 252 m 290 1070 l 398 1070 l 398 535 l 290 535 l 290 1070 z "},"":{"ha":688,"x_min":115,"x_max":572,"o":"m 370 218 q 435 254 408 229 q 485 366 485 298 q 484 373 485 370 l 483 373 q 480 391 482 382 q 404 477 465 433 q 318 497 363 497 q 233 467 265 497 q 201 387 201 437 q 370 218 201 304 m 316 -235 q 441 -188 393 -231 q 490 -76 490 -144 q 276 111 490 9 q 157 204 193 155 q 121 324 121 254 q 182 485 121 425 q 297 541 227 529 l 270 553 q 151 646 186 597 q 115 766 115 696 q 176 927 115 867 q 322 985 231 981 q 334 986 328 986 l 336 986 q 446 975 380 986 q 512 947 512 964 l 512 815 l 477 815 q 423 905 474 870 q 322 939 376 937 l 312 939 q 227 909 259 939 q 195 829 195 879 q 390 647 195 740 q 529 550 491 602 q 566 422 566 498 q 498 231 566 307 q 431 188 466 205 q 535 108 504 150 q 572 -19 572 56 q 504 -211 572 -135 q 316 -282 420 -280 l 316 -281 q 307 -282 312 -282 l 305 -282 q 195 -271 260 -282 q 129 -243 129 -260 l 129 -111 l 163 -111 q 218 -201 167 -166 q 316 -235 264 -231 z "},"":{"ha":694,"x_min":142,"x_max":536,"o":"m 151 874 l 199 923 q 216 931 208 931 q 235 922 224 931 l 281 872 q 288 855 288 863 q 280 837 288 846 l 233 786 q 216 774 222 774 q 199 783 207 774 l 148 841 q 142 857 142 849 q 151 874 142 865 m 399 874 l 447 923 q 464 931 456 931 q 482 922 471 931 l 529 872 q 536 855 536 863 q 528 838 536 846 l 481 786 q 464 774 469 774 q 447 783 454 774 l 395 842 q 389 857 389 849 q 399 874 389 865 z "},"":{"ha":1135,"x_min":68,"x_max":1067,"o":"m 570 987 q 760 949 668 987 q 922 840 851 911 q 1029 679 991 772 q 1067 487 1067 586 q 1029 296 1067 387 q 919 133 991 204 q 757 25 848 62 q 565 -12 666 -12 q 376 25 466 -12 q 215 134 287 63 q 105 295 143 205 q 68 487 68 386 q 105 679 68 587 q 214 840 143 770 q 375 949 283 911 q 570 987 468 987 m 242 812 q 143 663 178 747 q 109 487 109 579 q 143 311 109 394 q 243 163 178 229 q 392 63 310 98 q 566 28 474 28 q 742 63 659 28 q 890 161 825 97 q 991 312 956 228 q 1027 487 1027 395 q 991 663 1027 578 q 893 812 956 748 q 744 912 828 877 q 569 947 660 947 q 391 912 476 947 q 242 812 307 877 m 587 151 q 408 197 490 151 q 281 323 325 243 q 238 488 238 402 q 282 653 238 573 q 410 778 327 733 q 582 823 492 823 q 633 819 608 823 q 684 805 658 814 q 690 804 688 804 q 708 825 703 804 l 736 825 l 785 690 l 755 690 q 667 774 720 754 q 567 792 618 792 l 557 792 q 444 744 498 787 q 361 624 389 701 q 339 499 339 563 q 340 465 339 482 q 388 313 348 383 q 489 210 427 243 q 602 182 538 183 q 733 220 686 182 q 781 305 781 258 l 817 305 l 817 237 q 751 179 817 206 q 587 151 686 151 z "},"":{"ha":439,"x_min":0,"x_max":0,"o":""},"":{"ha":640,"x_min":118,"x_max":572,"o":"m 118 325 l 350 530 l 359 530 l 359 505 l 220 325 l 359 144 l 359 119 l 350 119 l 118 325 m 330 325 l 562 530 l 572 530 l 572 505 l 433 325 l 572 144 l 572 119 l 562 119 l 330 325 z "},"":{"ha":688,"x_min":59,"x_max":629,"o":"m 59 520 l 629 520 l 629 187 l 628 186 l 562 186 l 562 452 l 59 452 l 59 520 z "},"":{"ha":1135,"x_min":68,"x_max":1067,"o":"m 509 745 l 509 492 l 511 486 q 549 431 527 448 q 587 416 569 416 l 591 416 q 633 443 612 419 q 665 509 654 466 q 673 578 673 543 q 673 597 673 587 q 654 681 670 642 q 615 733 637 720 q 572 745 593 745 l 509 745 m 667 391 l 723 312 q 825 216 791 216 l 848 216 l 848 182 l 613 182 l 613 216 l 644 216 q 664 231 664 216 q 617 309 664 251 l 566 378 q 509 406 538 378 l 509 298 q 534 216 509 216 l 570 216 l 570 182 l 355 182 l 355 216 l 385 216 q 410 298 410 216 l 410 663 q 385 745 410 745 l 355 745 l 355 793 l 597 793 q 682 764 640 792 q 744 687 722 736 q 766 584 766 637 q 745 482 766 531 q 667 391 723 433 m 570 987 q 760 949 668 987 q 922 840 851 911 q 1029 679 991 772 q 1067 487 1067 586 q 1029 296 1067 387 q 919 133 991 204 q 757 25 848 62 q 565 -12 666 -12 q 376 25 466 -12 q 215 134 287 63 q 105 295 143 205 q 68 487 68 386 q 105 679 68 587 q 214 840 143 770 q 375 949 283 911 q 570 987 468 987 m 242 812 q 143 663 178 747 q 109 487 109 579 q 143 311 109 394 q 243 163 178 229 q 392 63 310 98 q 566 28 474 28 q 742 63 659 28 q 890 161 825 97 q 991 312 956 228 q 1027 487 1027 395 q 991 663 1027 578 q 893 812 956 748 q 744 912 828 877 q 569 947 660 947 q 391 912 476 947 q 242 812 307 877 z "},"":{"ha":454,"x_min":0,"x_max":0,"o":""},"":{"ha":457,"x_min":41,"x_max":418,"o":"m 230 930 q 130 889 172 930 q 88 789 88 848 q 130 689 88 730 q 230 648 171 648 q 330 689 289 648 q 370 789 370 730 q 329 889 370 848 q 230 930 288 930 m 230 978 q 363 923 308 978 q 418 789 418 867 q 362 656 418 712 q 229 601 307 601 q 95 656 149 601 q 41 789 41 711 q 96 923 41 868 q 230 978 151 978 z "},"":{"ha":688,"x_min":0,"x_max":0,"o":""},"":{"ha":688,"x_min":0,"x_max":0,"o":""},"":{"ha":688,"x_min":0,"x_max":0,"o":""},"":{"ha":694,"x_min":214,"x_max":527,"o":"m 412 932 q 449 964 435 956 q 477 972 463 972 q 513 959 499 972 q 527 924 527 945 q 516 896 527 909 q 485 869 506 882 l 261 731 l 214 731 l 412 932 z "},"":{"ha":800,"x_min":0,"x_max":0,"o":""},"":{"ha":694,"x_min":63,"x_max":630,"o":"m 630 973 l 630 926 l 544 926 l 544 0 l 488 0 l 488 926 l 376 926 l 376 0 l 319 0 l 319 500 q 132 570 201 506 q 63 736 63 634 q 136 908 63 843 q 330 973 209 973 l 630 973 z "},"":{"ha":345,"x_min":87,"x_max":257,"o":"m 98 502 l 154 559 q 174 568 164 568 q 195 557 182 568 l 249 499 q 257 479 257 488 q 248 458 257 469 l 193 399 q 174 385 180 385 q 154 395 163 385 l 94 463 q 87 481 87 472 q 98 502 87 491 z "},"":{"ha":694,"x_min":244,"x_max":521,"o":"m 244 -197 q 347 -232 302 -232 q 411 -217 392 -232 q 431 -172 431 -203 q 397 -129 431 -142 q 328 -118 370 -118 q 305 -119 317 -118 l 338 0 l 380 0 l 355 -71 q 397 -67 377 -68 q 488 -95 456 -67 q 521 -172 521 -122 q 481 -253 521 -223 q 372 -283 441 -283 q 244 -262 298 -283 l 244 -197 z "},"":{"ha":688,"x_min":0,"x_max":0,"o":""},"":{"ha":487,"x_min":0,"x_max":0,"o":""},"":{"ha":640,"x_min":68,"x_max":522,"o":"m 78 119 l 68 119 l 68 144 l 208 325 l 68 505 l 68 530 l 78 530 l 310 325 l 78 119 m 290 119 l 281 119 l 281 144 l 420 325 l 281 505 l 281 530 l 290 530 l 522 325 l 290 119 z "},"":{"ha":1158,"x_min":0,"x_max":0,"o":""},"":{"ha":1332,"x_min":0,"x_max":0,"o":""},"":{"ha":1158,"x_min":0,"x_max":0,"o":""}}}
